<svg viewBox="0 0 48 48" xml:space="preserve" xmlns="http://www.w3.org/2000/svg" enable-background="new 0 0 48 48"><path d="M25.5 42h-3c-2.2 0-3.9-1.7-3.9-3.9l-.1-.8-.7.6c-.7.7-1.6 1.1-2.7 1.1-1 0-2-.4-2.8-1.2l-2.2-2.2c-.6-.7-1.1-1.7-1.1-2.7 0-1 .4-2 1.1-2.8l.5-.6-.9-.1c-2 0-3.8-1.8-3.8-3.9v-3c0-2.2 1.7-3.9 3.9-3.9l.8-.1-.6-.7c-.6-.7-1-1.6-1-2.7 0-1 .4-2 1.2-2.8l2.2-2.2c1.5-1.5 4-1.6 5.5 0l.6.5.1-.9c0-2 1.8-3.8 3.9-3.8h3c2.2 0 3.9 1.7 3.9 3.9l.1.8.7-.6c1.4-1.5 3.9-1.4 5.5.1l2.2 2.2c.7.7 1.2 1.7 1.2 2.8 0 1-.4 2-1.1 2.8l-.5.6.8.1c2.1 0 3.8 1.8 3.8 3.9v3c0 2.2-1.7 3.9-3.9 3.9l-.8.1.6.7c.7.7 1.1 1.6 1.1 2.7 0 1-.4 2-1.2 2.8l-2.2 2.2c-1.5 1.5-4 1.6-5.5 0l-.6-.5-.1.9c0 2-1.8 3.7-4 3.7zm-6.2-7.7c.1 0 .3 0 .4.1.3.1.6.5.6.8l.2 2.8c0 1.1.9 2 1.9 2h3c1.1 0 1.9-.8 1.9-1.9l.2-2.9c0-.4.3-.7.6-.8.3-.1.7-.1 1 .2l2.1 1.8c.8.8 2 .8 2.8 0l2.2-2.2c.4-.4.6-.9.6-1.4 0-.5-.2-1-.5-1.3l-1.9-2.2c-.2-.3-.3-.7-.2-1 .1-.3.5-.6.8-.6l2.8-.2c1.1 0 2-.9 2-1.9v-3c0-1.1-.8-1.9-1.9-1.9h-.1l-2.8-.2c-.4 0-.7-.3-.8-.6-.1-.3-.1-.7.2-1l1.8-2.1c.4-.4.6-.9.6-1.4 0-.5-.2-1-.6-1.4L34 11.8c-.8-.8-2-.8-2.7 0l-2.2 1.9c-.3.2-.7.3-1 .2-.3-.1-.6-.5-.6-.8V10c0-1.1-.9-2-1.9-2h-3c-1.1 0-1.9.8-1.9 1.9l-.2 2.9c0 .4-.3.7-.6.8-.3.1-.7.1-1-.2l-2.1-1.8c-.8-.8-2-.8-2.8 0l-2.2 2.2c-.4.4-.6.9-.6 1.4 0 .5.2 1 .5 1.3l1.9 2.2c.2.3.3.7.2 1s-.5.6-.8.6l-3 .2c-1.1 0-2 .9-2 1.9v3c0 1.1.8 1.9 1.9 1.9l2.9.2c.4 0 .7.3.8.6s.1.7-.2 1l-1.8 2.1c-.4.4-.6.9-.6 1.4 0 .5.2 1 .6 1.4l2.2 2.2c.4.4.9.6 1.4.6.5 0 1-.2 1.3-.5l2.2-1.9c.1 0 .4-.1.6-.1z" fill="#ffffff" class="fill-000000"></path><path d="M24 30.1c-3.4 0-6.1-2.7-6.1-6.1s2.7-6.1 6.1-6.1 6.1 2.7 6.1 6.1-2.7 6.1-6.1 6.1zm0-10.2c-2.3 0-4.1 1.9-4.1 4.1s1.9 4.1 4.1 4.1 4.1-1.9 4.1-4.1-1.8-4.1-4.1-4.1z" fill="#ffffff" class="fill-000000"></path></svg>