<svg fill="none" viewBox="0 0 24 24" xmlns="http://www.w3.org/2000/svg"><path clip-rule="evenodd" d="M10.658 2.553a3 3 0 0 1 2.684 0l6 3A3 3 0 0 1 21 8.236v7.528a3 3 0 0 1-1.658 2.683l-6 3a3 3 0 0 1-2.684 0l-6-3A3 3 0 0 1 3 15.764V8.236a3 3 0 0 1 1.658-2.683l6-3Zm1.79 1.789a1 1 0 0 0-.895 0l-6 3A1 1 0 0 0 5 8.236v7.528a1 1 0 0 0 .553.894l6 3a1 1 0 0 0 .894 0l6-3a1 1 0 0 0 .553-.894V8.236a1 1 0 0 0-.553-.894l-6-3ZM12 10a2 2 0 1 0 0 4 2 2 0 0 0 0-4Zm-4 2a4 4 0 1 1 8 0 4 4 0 0 1-8 0Z" fill="#ffffff" fill-rule="evenodd" class="fill-000000"></path></svg>