<?xml version="1.0" encoding="utf-8"?>
<!-- Generator: Adobe Illustrator 27.0.0, SVG Export Plug-In . SVG Version: 6.00 Build 0)  -->
<svg version="1.1" id="Layer_1" xmlns="http://www.w3.org/2000/svg" xmlns:xlink="http://www.w3.org/1999/xlink" x="0px" y="0px"
	 viewBox="0 0 4000 4000" style="enable-background:new 0 0 4000 4000;" xml:space="preserve">
<style type="text/css">
	.st0{fill:none;}
	.st1{display:none;fill:#212121;}
	.st2{fill:#F24E32;}
	.st3{opacity:0.5;}
	.st4{fill:#FFFFFF;}
	.st5{fill:#F21932;}
</style>
<g>
	<g>
		<rect class="st0" width="4000" height="4000"/>
	</g>
	<g>
		<g>
			<path class="st1" d="M2653.1,3129.2c383.1-231.9,640.4-661.5,640.4-1153.3C3293.5,1238.1,2714.4,640,2000,640
				S706.5,1238.1,706.5,1975.9c0,491.7,257.3,921.4,640.4,1153.3c197.5-3.7,419-5.7,653.1-5.7S2455.6,3125.5,2653.1,3129.2z"/>
		</g>
		<g>
			<g>
				<path class="st2" d="M2942,3165.2H1058c-30.5,0-55.2-24.7-55.2-55.2v-1.8c0-30.5,24.7-55.2,55.2-55.2h1884
					c30.5,0,55.2,24.7,55.2,55.2v1.8C2997.2,3140.5,2972.5,3165.2,2942,3165.2z"/>
			</g>
			<g class="st3">
				<path class="st4" d="M2942.9,3069.7H1368.3h-131.8h-179.4c-21.1,0-38.2,17.7-38.2,39.5c0,15.9,9.2,29.7,22.4,35.9
					c-4-6.2-6.3-13.7-6.3-21.7c0-21.8,17.1-39.5,38.2-39.5h161.5c8.4,9.6,35.4,16.6,67.7,16.6s59.3-7,67.7-16.6h1589
					c5.6,0,11,1.3,15.8,3.6C2967.9,3076.8,2956.2,3069.7,2942.9,3069.7z"/>
			</g>
			<g>
				<path class="st2" d="M2070,2712.7c0.2-0.1,0.3-0.1,0.5-0.2c5.3-2.2,10.2,3.5,7.2,8.4c-8.6,14-21.6,25.5-38.2,32.1
					c-37.4,14.9-80.8-1.1-99.4-36.7c-21.5-41.1-3.5-91.2,38.4-109.5c15.8-6.9,32.7-8.3,48.4-4.9c5.2,1.1,5.9,8.2,1.1,10.3l-0.2,0.1
					c-28.9,12.6-41.3,47.2-26.2,75.6C2014.4,2712.2,2044.4,2723.1,2070,2712.7z"/>
			</g>
		</g>
		<g>
			<g>
				<path class="st5" d="M1232,2212.2l-35.2,5.4c-7,1.1-12.6,6.6-13.7,13.7l-5.4,35.2l-5.4-35.2c-1.1-7-6.6-12.6-13.7-13.7
					l-35.2-5.4l35.2-5.4c7-1.1,12.6-6.6,13.7-13.7l5.4-35.2l5.4,35.2c1.1,7,6.6,12.6,13.7,13.7L1232,2212.2z"/>
			</g>
			<g>
				<path class="st5" d="M1092.4,2444.1l-33,5.1c-6.6,1-11.8,6.2-12.8,12.8l-5.1,33l-5.1-33c-1-6.6-6.2-11.8-12.8-12.8l-33-5.1
					l33-5.1c6.6-1,11.8-6.2,12.8-12.8l5.1-33l5.1,33c1,6.6,6.2,11.8,12.8,12.8L1092.4,2444.1z"/>
			</g>
			<g>
				<path class="st5" d="M980.9,2041.6l-24.6,3.8c-4.9,0.8-8.8,4.6-9.6,9.6l-3.8,24.6l-3.8-24.6c-0.8-4.9-4.6-8.8-9.6-9.6l-24.6-3.8
					l24.6-3.8c4.9-0.8,8.8-4.6,9.6-9.6l3.8-24.6l3.8,24.6c0.8,4.9,4.6,8.8,9.6,9.6L980.9,2041.6z"/>
			</g>
			<g>
				<path class="st5" d="M3059.6,2120.9l36.1,5.6c7.2,1.1,12.9,6.8,14,14l5.6,36.1l5.6-36.1c1.1-7.2,6.8-12.9,14-14l36.1-5.6
					l-36.1-5.6c-7.2-1.1-12.9-6.8-14-14l-5.6-36.1l-5.6,36.1c-1.1,7.2-6.8,12.9-14,14L3059.6,2120.9z"/>
			</g>
			<g>
				<path class="st5" d="M2842.2,2353.4l33.9,5.2c6.8,1,12.1,6.4,13.2,13.2l5.2,33.9l5.2-33.9c1-6.8,6.4-12.1,13.2-13.2l33.9-5.2
					l-33.9-5.2c-6.8-1-12.1-6.4-13.2-13.2l-5.2-33.9l-5.2,33.9c-1,6.8-6.4,12.1-13.2,13.2L2842.2,2353.4z"/>
			</g>
			<g>
				<path class="st5" d="M2919.7,1924l25.3,3.9c5.1,0.8,9,4.8,9.8,9.8l3.9,25.3l3.9-25.3c0.8-5.1,4.8-9,9.8-9.8l25.3-3.9l-25.3-3.9
					c-5.1-0.8-9-4.8-9.8-9.8l-3.9-25.3l-3.9,25.3c-0.8,5.1-4.8,9-9.8,9.8L2919.7,1924z"/>
			</g>
			<g>
				<path class="st5" d="M1366.2,1234.5l-27.6,4.3c-5.5,0.9-9.9,5.2-10.7,10.7l-4.3,27.6l-4.3-27.6c-0.9-5.5-5.2-9.9-10.7-10.7
					l-27.6-4.3l27.6-4.3c5.5-0.9,9.9-5.2,10.7-10.7l4.3-27.6l4.3,27.6c0.9,5.5,5.2,9.9,10.7,10.7L1366.2,1234.5z"/>
			</g>
			<g>
				<path class="st5" d="M1169.9,1456.3l-28.6,4.4c-5.7,0.9-10.2,5.4-11.1,11.1l-4.4,28.6l-4.4-28.6c-0.9-5.7-5.4-10.2-11.1-11.1
					l-28.6-4.4l28.6-4.4c5.7-0.9,10.2-5.4,11.1-11.1l4.4-28.6l4.4,28.6c0.9,5.7,5.4,10.2,11.1,11.1L1169.9,1456.3z"/>
			</g>
			<g>
				<path class="st5" d="M2461.7,1064.5l27.6,4.3c5.5,0.9,9.9,5.2,10.7,10.7l4.3,27.6l4.3-27.6c0.9-5.5,5.2-9.9,10.7-10.7l27.6-4.3
					l-27.6-4.3c-5.5-0.9-9.9-5.2-10.7-10.7l-4.3-27.6l-4.3,27.6c-0.9,5.5-5.2,9.9-10.7,10.7L2461.7,1064.5z"/>
			</g>
		</g>
	</g>
</g>
</svg>
