<?xml version="1.0" encoding="utf-8"?>
<!-- Generator: Adobe Illustrator 27.0.0, SVG Export Plug-In . SVG Version: 6.00 Build 0)  -->
<svg version="1.1" id="Layer_1" xmlns="http://www.w3.org/2000/svg" xmlns:xlink="http://www.w3.org/1999/xlink" x="0px" y="0px"
	 viewBox="0 0 4000 4000" style="enable-background:new 0 0 4000 4000;" xml:space="preserve">
<style type="text/css">
	.st0{display:none;fill:#1D008B;}
	.st1{display:none;}
	.st2{display:inline;fill:#3D3144;}
	.st3{fill:#F24E32;}
	.st4{fill:#242424;}
	.st5{fill:#616161;}
	.st6{fill:#000072;}
	.st7{opacity:0.3;}
	.st8{opacity:0.55;}
	.st9{fill:#FFFFFF;}
	.st10{opacity:0.4;}
	.st11{fill:#FFDEC9;}
	.st12{fill:#383838;}
	.st13{fill:#FEFEFE;}
	.st14{opacity:0.2;}
	.st15{clip-path:url(#SVGID_00000126292450800287099290000000686065771384253343_);}
	.st16{filter:url(#Adobe_OpacityMaskFilter);}
	.st17{clip-path:url(#SVGID_00000031204602547200648830000008121116665904001201_);}
	.st18{clip-path:url(#SVGID_00000060013072454322320860000003556363405433799325_);}
	
		.st19{clip-path:url(#SVGID_00000075872521366476480620000015458192768720024707_);fill:url(#SVGID_00000165233644283860281040000004253365019617842096_);}
	
		.st20{clip-path:url(#SVGID_00000031204602547200648830000008121116665904001201_);mask:url(#SVGID_00000138571272938309639200000014522162969816734856_);fill:url(#SVGID_00000023994545015611185310000010809949974317402264_);}
	.st21{opacity:0.5;fill:url(#SVGID_00000096771000505593374150000007137936557779482773_);enable-background:new    ;}
	.st22{fill:#AAAAAA;}
	.st23{opacity:0.75;}
	.st24{fill-rule:evenodd;clip-rule:evenodd;fill:#F24E32;}
	.st25{fill-rule:evenodd;clip-rule:evenodd;fill:#242424;}
</style>
<g>
	<rect y="-201" class="st0" width="4000" height="4000"/>
	<g>
		<g class="st1">
			<circle class="st2" cx="2000" cy="1532.6" r="1153.6"/>
		</g>
		<g>
			<g>
				<path class="st3" d="M2889.2,1057.8h-222.1c-8.6,0-15.5-6.9-15.5-15.5c0-8.6,6.9-15.5,15.5-15.5h222.1c8.6,0,15.5,6.9,15.5,15.5
					C2904.7,1050.8,2897.8,1057.8,2889.2,1057.8z"/>
			</g>
			<g>
				<path class="st3" d="M2452.8,1057.8h-909.4c-8.6,0-15.5-6.9-15.5-15.5c0-8.6,6.9-15.5,15.5-15.5h909.4c8.6,0,15.5,6.9,15.5,15.5
					C2468.3,1050.8,2461.4,1057.8,2452.8,1057.8z"/>
			</g>
			<g>
				<path class="st3" d="M1400,1057.8h-251.4c-8.6,0-15.5-6.9-15.5-15.5c0-8.6,6.9-15.5,15.5-15.5H1400c8.6,0,15.5,6.9,15.5,15.5
					C1415.5,1050.8,1408.5,1057.8,1400,1057.8z"/>
			</g>
			<g>
				<path class="st3" d="M2889.2,1186.9h-191.1c-8.6,0-15.5-6.9-15.5-15.5s6.9-15.5,15.5-15.5h191.1c8.6,0,15.5,6.9,15.5,15.5
					S2897.8,1186.9,2889.2,1186.9z"/>
			</g>
			<g>
				<path class="st3" d="M2581.1,1186.9H1439c-8.6,0-15.5-6.9-15.5-15.5s6.9-15.5,15.5-15.5h1142.1c8.6,0,15.5,6.9,15.5,15.5
					S2589.6,1186.9,2581.1,1186.9z"/>
			</g>
			<g>
				<path class="st3" d="M1280.5,1186.9h-131.9c-8.6,0-15.5-6.9-15.5-15.5s6.9-15.5,15.5-15.5h131.9c8.6,0,15.5,6.9,15.5,15.5
					S1289.1,1186.9,1280.5,1186.9z"/>
			</g>
			<g>
				<path class="st3" d="M2889.2,1316H1148.6c-8.6,0-15.5-6.9-15.5-15.5c0-8.6,6.9-15.5,15.5-15.5h1740.7c8.6,0,15.5,6.9,15.5,15.5
					S2897.8,1316,2889.2,1316z"/>
			</g>
			<g>
				<path class="st3" d="M2889.2,1445.2H1417.2c-8.6,0-15.5-6.9-15.5-15.5s6.9-15.5,15.5-15.5h1472.1c8.6,0,15.5,6.9,15.5,15.5
					S2897.8,1445.2,2889.2,1445.2z"/>
			</g>
			<g>
				<path class="st3" d="M1280.5,1445.2h-131.9c-8.6,0-15.5-6.9-15.5-15.5s6.9-15.5,15.5-15.5h131.9c8.6,0,15.5,6.9,15.5,15.5
					S1289.1,1445.2,1280.5,1445.2z"/>
			</g>
			<g>
				<path class="st3" d="M2889.2,1574.3h-111.1c-8.6,0-15.5-6.9-15.5-15.5s6.9-15.5,15.5-15.5h111.1c8.6,0,15.5,6.9,15.5,15.5
					S2897.8,1574.3,2889.2,1574.3z"/>
			</g>
			<g>
				<path class="st3" d="M2667.1,1574.3H1148.6c-8.6,0-15.5-6.9-15.5-15.5s6.9-15.5,15.5-15.5h1518.6c8.6,0,15.5,6.9,15.5,15.5
					C2682.6,1567.4,2675.7,1574.3,2667.1,1574.3z"/>
			</g>
			<g>
				<path class="st3" d="M2889.2,1703.4H1148.6c-8.6,0-15.5-6.9-15.5-15.5c0-8.6,6.9-15.5,15.5-15.5h1740.7
					c8.6,0,15.5,6.9,15.5,15.5S2897.8,1703.4,2889.2,1703.4z"/>
			</g>
			<g>
				<path class="st3" d="M2889.2,1832.5h-125.3c-8.6,0-15.5-6.9-15.5-15.5c0-8.6,6.9-15.5,15.5-15.5h125.3c8.6,0,15.5,6.9,15.5,15.5
					C2904.7,1825.6,2897.8,1832.5,2889.2,1832.5z"/>
			</g>
			<g>
				<path class="st3" d="M2632.4,1832.5H1486.1c-8.6,0-15.5-6.9-15.5-15.5c0-8.6,6.9-15.5,15.5-15.5h1146.3
					c8.6,0,15.5,6.9,15.5,15.5C2647.9,1825.6,2640.9,1832.5,2632.4,1832.5z"/>
			</g>
			<g>
				<path class="st3" d="M1296.7,1832.5h-148.1c-8.6,0-15.5-6.9-15.5-15.5c0-8.6,6.9-15.5,15.5-15.5h148.1c8.6,0,15.5,6.9,15.5,15.5
					C1312.2,1825.6,1305.2,1832.5,1296.7,1832.5z"/>
			</g>
			<g>
				<path class="st3" d="M2889.2,1961.7h-279.6c-8.6,0-15.5-6.9-15.5-15.5s6.9-15.5,15.5-15.5h279.6c8.6,0,15.5,6.9,15.5,15.5
					S2897.8,1961.7,2889.2,1961.7z"/>
			</g>
			<g>
				<path class="st3" d="M2391.7,1961.7H1148.6c-8.6,0-15.5-6.9-15.5-15.5s6.9-15.5,15.5-15.5h1243.1c8.6,0,15.5,6.9,15.5,15.5
					S2400.2,1961.7,2391.7,1961.7z"/>
			</g>
		</g>
		<g>
			<path class="st4" d="M906,3224.6c367.3,94.9,1820.6,94.9,2188,0c34-8.8,25.7-48.1-10.1-48.1H916.1
				C880.3,3176.5,872,3215.9,906,3224.6z"/>
		</g>
		<g>
			<path class="st4" d="M1008.8,3171.3c41.3-8.1,82.6-10.2,123.9-11.1c41.3-1.1,82.6-0.5,123.9,0.1c41.3,0.5,82.6,0.6,123.9,0.5
				h123.9h495.6h495.6h247.8l61.9,0c20.6,0,41.3-0.7,61.9-1c41.3-0.2,82.6,0.3,123.9,11.5c2.9,0.8,4.6,3.8,3.8,6.7
				c-0.5,1.9-2,3.3-3.8,3.8c-41.3,11.3-82.6,11.7-123.9,11.5c-20.6-0.3-41.3-1.1-61.9-1l-61.9,0h-247.8h-495.6h-495.6h-123.9
				c-41.3-0.1-82.6,0-123.9,0.5c-41.3,0.6-82.6,1.2-123.9,0.1c-41.3-0.9-82.6-3-123.9-11.1c-2.9-0.6-4.8-3.4-4.2-6.3
				C1005,3173.3,1006.7,3171.7,1008.8,3171.3z"/>
		</g>
		<g>
			<g>
				<g>
					<path class="st5" d="M2510.8,3064.5l6.5-0.8c182-21.6,306.5-194.2,269.7-373.7l-68.4-333.2c-31.2-152-165-261.2-320.2-261.2
						h-397.8h11.3h-397.8c-155.2,0-289,109.1-320.2,261.2l-68.4,333.2c-36.8,179.5,87.7,352.1,269.7,373.7l6.5,0.8L2510.8,3064.5
						L2510.8,3064.5z"/>
				</g>
				<g>
					<path class="st6" d="M2510.9,3067H1501.8l-6.8-0.8c-87.4-10.4-167.1-57.3-218.6-128.7c-51.5-71.4-70.9-161.8-53.2-248
						l68.4-333.2c31.3-152.5,167-263.2,322.7-263.2h784.3c155.7,0,291.4,110.7,322.6,263.2l68.4,333.2c17.7,86.2-1.7,176.6-53.2,248
						c-51.5,71.4-131.2,118.3-218.6,128.7L2510.9,3067z M1614.1,2098.2c-153.3,0-286.9,109-317.7,259.2l-68.4,333.2
						c-17.4,84.9,1.7,173.8,52.4,244.1c50.7,70.3,129.1,116.4,215.2,126.7l6.5,0.8l1008.6,0l6.4-0.8c86-10.2,164.5-56.4,215.1-126.6
						c50.7-70.3,69.8-159.2,52.4-244.1l-68.4-333.2c-30.8-150.2-164.4-259.2-317.7-259.2L1614.1,2098.2L1614.1,2098.2z"/>
				</g>
			</g>
			<g class="st7">
				<path class="st6" d="M2517.3,3063.8l-6.5,0.8h-1009l-6.5-0.8c-116.4-13.8-209.3-89.5-251.6-189.2
					c46.2,41.5,105.3,69.8,172.1,77.8l6.5,0.8h1009l6.5-0.8c182-21.6,306.5-194.2,269.7-373.7l-68.3-333.2
					c-4.6-22.4-11.4-43.8-20.2-64.1c49.6,45.2,85.4,105.8,99.7,175.5L2787,2690C2823.8,2869.5,2699.2,3042.1,2517.3,3063.8z"/>
			</g>
			<g class="st8">
				<path class="st9" d="M2559.7,2138.2c-37.3-14.7-77.7-22.7-119.7-22.7h-784.3c-155.2,0-289,109.1-320.2,261.2l-68.4,333.2
					c-28.1,136.9,37.7,269.8,151.2,334.7c-138.5-53.9-224.2-201.8-192.8-354.6l68.4-333.2c31.2-152,165-261.2,320.2-261.2h784.3
					C2456.6,2095.7,2511.8,2111,2559.7,2138.2z"/>
			</g>
			<g>
				<path class="st4" d="M2510.8,3080.8h-1009c-0.6,0-1.3,0-1.9-0.1l-6.5-0.8c-91.2-10.8-174.4-59.8-228.2-134.3
					c-53.8-74.5-74-168.9-55.5-258.9l68.4-333.2c32.6-158.9,174-274.2,336.1-274.2h784.3c162.2,0,303.5,115.3,336.1,274.2
					l68.4,333.2c18.5,90-1.8,184.4-55.5,258.9s-136.9,123.5-228.2,134.3l-6.5,0.8C2512.1,3080.8,2511.4,3080.8,2510.8,3080.8z
					 M1502.7,3048.3h1007.1l5.6-0.7c82.2-9.8,157.2-53.9,205.6-121c48.4-67.1,66.7-152.2,50-233.3l-68.4-333.2
					c-29.5-143.8-157.5-248.2-304.3-248.2h-784.3c-146.8,0-274.8,104.4-304.3,248.2l-68.4,333.2c-16.6,81.1,1.6,166.1,50,233.3
					c48.5,67.1,123.4,111.3,205.6,121L1502.7,3048.3z"/>
			</g>
			<g>
				<g>
					<path class="st5" d="M2585.6,1849.6c-1,3.8-2,7.6-3,11.4c-0.8,2.9-1.6,5.7-2.4,8.5c-0.3,1.1-0.6,2.1-1,3.2
						c-0.7,2.3-1.4,4.7-2.1,6.9c-0.9,3-1.9,5.9-2.9,8.8c-0.4,1.3-0.9,2.6-1.3,3.9c-1.4,4.2-2.9,8.4-4.4,12.5
						c-1.6,4.6-3.4,9.1-5.2,13.5c-1.7,4.5-3.6,8.9-5.5,13.4c-1.8,4.4-3.8,8.8-5.8,13.2c-1.9,4.2-3.9,8.4-5.9,12.6
						c-0.3,0.5-0.5,1.1-0.8,1.6c-1.8,3.9-3.8,7.8-5.8,11.6c-0.1,0.1-0.1,0.2-0.2,0.3c-2.2,4.3-4.4,8.5-6.7,12.7
						c-2.7,5-5.5,9.9-8.4,14.8c-2,3.4-4,6.8-6,10.1c-0.1,0.1-0.2,0.2-0.2,0.3c-2.5,4.1-5,8.2-7.6,12.3c-4.3,6.8-8.8,13.5-13.4,20.2
						c-2,2.9-4.1,5.8-6.1,8.7c-1.7,2.4-3.5,4.8-5.3,7.3c-2.7,3.6-5.4,7.2-8.1,10.8c-2.7,3.5-5.3,6.8-8,10.2c-1.5,1.9-3,3.8-4.6,5.6
						c-1,1.2-2,2.4-2.9,3.6c-1.8,2.2-3.6,4.3-5.5,6.5c-5,5.9-10.1,11.7-15.3,17.4c-2.5,2.8-5.1,5.6-7.7,8.4c-1.9,2-3.8,4.1-5.7,6.1
						c-2.7,2.8-5.4,5.6-8.1,8.3c-3.9,4-7.9,7.9-11.9,11.8c-3.3,3.1-6.5,6.2-9.8,9.3c-0.5,0.5-1,1-1.5,1.4c-3.4,3.2-6.8,6.3-10.2,9.4
						c-6.3,5.7-12.8,11.2-19.4,16.7c-1.6,1.4-3.3,2.7-4.9,4.1c-3.3,2.7-6.7,5.4-10.1,8.1c-11.8,9.4-23.9,18.4-36.3,27.2
						c-0.2,0.2-0.5,0.3-0.7,0.5c-48.2,33.9-100.6,59.2-155.1,75.7c-18.9,5.7-38,10.5-57.3,14.2c-85.5,16.3-174.1,12-258-12.7
						c-56.4-16.6-110.7-42.5-160.5-77.6c-3.9-2.8-7.8-5.6-11.7-8.4c-0.4-0.3-0.8-0.6-1.2-0.9c-3.8-2.9-7.7-5.7-11.5-8.6
						c-4-3-7.9-6.1-11.9-9.3h-0.1c-3.9-3.1-7.8-6.3-11.6-9.4c-3.9-3.2-7.7-6.5-11.5-9.7c-3.8-3.3-7.5-6.5-11.2-9.8
						c-3.7-3.4-7.4-6.7-11.1-10.1c-3.6-3.4-7.2-6.8-10.8-10.2c-3.6-3.4-7.1-6.9-10.6-10.4c-3.5-3.5-6.9-7-10.4-10.6
						c-3.4-3.6-6.8-7.3-10.2-11c-3.3-3.6-6.5-7.2-9.7-10.8c-2.5-2.8-5-5.7-7.4-8.6c-7.1-8.4-14-17-20.8-25.7
						c-2.7-3.6-5.5-7.2-8.1-10.8c-0.4-0.4-0.7-0.9-1-1.4c-1.8-2.4-3.6-4.9-5.4-7.4c-4-5.6-7.9-11.3-11.7-17
						c-2.1-3.1-4.2-6.3-6.2-9.5c-3.1-4.8-6.1-9.7-9.1-14.6c-2.1-3.5-4.2-7-6.2-10.5c-2.8-4.9-5.6-10-8.4-15c-2-3.8-4-7.6-6-11.4
						c-2-3.9-4-7.8-5.8-11.7c-0.3-0.5-0.6-1.1-0.8-1.6c-4.1-8.4-8-16.9-11.6-25.5c-0.2-0.4-0.4-0.7-0.5-1.1
						c-1.8-4.2-3.5-8.5-5.2-12.7c-1.8-4.4-3.5-8.9-5.2-13.5c-1.7-4.5-3.3-9.1-4.8-13.6c-1.1-3.4-2.3-6.8-3.4-10.2
						c-0.9-2.7-1.7-5.4-2.5-8.1c-0.4-1.2-0.8-2.4-1.1-3.6c-0.8-2.7-1.6-5.3-2.3-7.9c-1.1-3.9-2.1-7.8-3.1-11.8
						c-40.6-286.3,219.8-603.8,479.9-740c66.2-34.7,145.3-34.7,211.5,0c5.9,3,11.7,6.3,17.5,9.7l0.1,0.1
						C2377.4,1265.4,2625.2,1569.7,2585.6,1849.6z"/>
				</g>
				<g>
					<g class="st10">
						<path class="st4" d="M2100,2312c7.4-1.9,14.7-3.9,22-6.2c54.4-16.5,106.9-41.8,155.1-75.7c0.2-0.2,0.5-0.3,0.7-0.5
							c12.4-8.7,24.5-17.8,36.3-27.2c3.4-2.7,6.8-5.4,10.1-8.1c1.7-1.4,3.3-2.8,4.9-4.1c6.6-5.5,13-11,19.4-16.7
							c3.5-3.1,6.9-6.2,10.2-9.4c0.5-0.4,1-0.9,1.5-1.4c3.3-3,6.6-6.1,9.8-9.3c4-3.9,8-7.9,11.9-11.8c2.8-2.7,5.4-5.5,8.1-8.3
							c1.9-2,3.8-4.1,5.7-6.1c2.6-2.8,5.2-5.5,7.7-8.4c5.2-5.7,10.3-11.6,15.3-17.4c1.8-2.2,3.6-4.3,5.5-6.5c1-1.2,2-2.4,2.9-3.6
							c1.5-1.8,3-3.7,4.6-5.6c2.7-3.4,5.4-6.8,8-10.2c2.7-3.6,5.4-7.2,8.1-10.8c1.8-2.4,3.5-4.8,5.3-7.3c2.1-2.9,4.1-5.7,6.1-8.7
							c4.6-6.7,9.1-13.4,13.4-20.2c2.6-4.1,5.1-8.1,7.6-12.3c0-0.1,0.1-0.2,0.2-0.3c2-3.4,4-6.7,6-10.1c2.9-4.9,5.6-9.8,8.4-14.8
							c2.3-4.2,4.5-8.4,6.7-12.7c0.1-0.1,0.1-0.2,0.2-0.3c2-3.9,4-7.7,5.8-11.6c0.3-0.5,0.5-1.1,0.8-1.6c2-4.2,4-8.4,5.9-12.6
							c2-4.3,4-8.8,5.8-13.2c1.9-4.4,3.7-8.9,5.5-13.4c1.8-4.4,3.5-8.9,5.2-13.5c1.6-4.1,3-8.3,4.4-12.5c0.4-1.2,0.9-2.6,1.3-3.9
							c1-2.9,2-5.9,2.9-8.8c0.7-2.3,1.5-4.6,2.1-6.9c0.4-1.1,0.7-2.1,1-3.2c0.8-2.8,1.6-5.6,2.4-8.5c1-3.7,2.1-7.6,3-11.4
							c39.2-276.4-202.1-576.8-453-724.8c176.5,160.5,310,385.4,280.1,596.4c-1,3.8-2,7.6-3,11.4c-0.8,2.9-1.6,5.7-2.4,8.5
							c-0.3,1.1-0.6,2.1-1,3.2c-0.7,2.3-1.4,4.7-2.1,6.9c-0.9,3-1.9,5.9-2.9,8.8c-0.4,1.3-0.9,2.6-1.3,3.9
							c-1.4,4.2-2.9,8.4-4.4,12.5c-1.6,4.6-3.4,9.1-5.2,13.5c-1.7,4.5-3.6,8.9-5.5,13.4c-1.8,4.4-3.8,8.8-5.8,13.2
							c-1.9,4.2-3.9,8.4-5.9,12.6c-0.3,0.5-0.5,1.1-0.8,1.6c-1.8,3.9-3.8,7.8-5.8,11.6c-0.1,0.1-0.1,0.2-0.2,0.3
							c-2.2,4.3-4.4,8.5-6.7,12.7c-2.7,5-5.5,9.9-8.4,14.8c-2,3.4-4,6.8-6,10.1c-0.1,0.1-0.2,0.2-0.2,0.3c-2.5,4.1-5,8.2-7.6,12.3
							c-4.3,6.8-8.8,13.5-13.4,20.2c-2,2.9-4.1,5.8-6.1,8.7c-1.7,2.4-3.5,4.8-5.3,7.3c-2.7,3.6-5.4,7.2-8.1,10.8
							c-2.7,3.5-5.3,6.8-8,10.2c-1.5,1.9-3,3.8-4.6,5.6c-1,1.2-2,2.4-2.9,3.6c-1.8,2.2-3.6,4.3-5.5,6.5c-5,5.9-10.1,11.7-15.3,17.4
							c-2.5,2.8-5.1,5.6-7.7,8.4c-1.9,2-3.8,4.1-5.7,6.1c-2.7,2.8-5.4,5.6-8.1,8.3c-3.9,4-7.9,7.9-11.9,11.8
							c-3.3,3.1-6.5,6.2-9.8,9.3c-0.5,0.5-1,1-1.5,1.4c-3.4,3.2-6.8,6.3-10.2,9.4c-6.3,5.7-12.8,11.2-19.4,16.7
							c-1.6,1.4-3.3,2.7-4.9,4.1c-3.3,2.7-6.7,5.4-10.1,8.1c-11.8,9.4-23.9,18.4-36.3,27.2c-0.2,0.2-0.5,0.3-0.7,0.5
							c-48.2,33.9-100.6,59.2-155.1,75.7c-18.9,5.7-38,10.5-57.3,14.2c-32.1,6.1-64.6,9.3-97.1,9.6c32.5-0.3,65-3.5,97.1-9.6
							c0.9-0.2,1.8-0.4,2.8-0.6c-11.7,3-23.5,5.7-35.3,8c-70.7,13.5-143.6,12.8-214.2-1.8c-0.8-0.6-1.6-1.3-2.5-1.9
							c3.9,3.1,7.8,6.1,11.7,9.1c3.8,2.9,7.6,5.7,11.5,8.6c0.4,0.3,0.8,0.5,1.2,0.9c3.9,2.8,7.8,5.6,11.7,8.4
							c49.8,35.1,104.1,61,160.5,77.6c83.9,24.7,172.5,29,258,12.7c10.1-1.9,20.1-4.2,30.1-6.6
							C2118.3,2308.1,2109.2,2310.2,2100,2312z"/>
					</g>
				</g>
				<g class="st8">
					<path class="st9" d="M2216.3,1183.4c-20-13.6-40.2-26.2-60.5-37.8l-0.1-0.1c-5.9-3.4-11.7-6.6-17.5-9.7
						c-66.2-34.7-145.3-34.7-211.5,0c-260.1,136.2-520.5,453.7-479.9,740c1,4,2.1,7.9,3.1,11.8c0.7,2.7,1.5,5.3,2.3,7.9
						c0.3,1.2,0.7,2.4,1.1,3.6c0.8,2.7,1.6,5.4,2.5,8.1c1.1,3.4,2.2,6.8,3.4,10.2c1.5,4.6,3.1,9.1,4.8,13.6
						c1.6,4.6,3.4,9.1,5.2,13.5c1.7,4.3,3.4,8.5,5.2,12.7c0.1,0.4,0.3,0.7,0.5,1.1c3.6,8.6,7.4,17.1,11.6,25.5
						c0.2,0.5,0.5,1.1,0.8,1.6c1.8,3.9,3.8,7.8,5.8,11.7c2,3.8,4,7.6,6,11.4c2.8,5,5.5,10.1,8.4,15c2.1,3.5,4.2,7,6.2,10.5
						c3,4.9,6,9.8,9.1,14.6c2,3.2,4.1,6.4,6.2,9.5c3.8,5.7,7.7,11.4,11.7,17c1.7,2.5,3.5,5,5.4,7.4c0.3,0.4,0.7,0.9,1,1.4
						c2.6,3.6,5.4,7.2,8.1,10.8c6.7,8.7,13.7,17.3,20.8,25.7c2.4,2.9,4.9,5.7,7.4,8.6c3.2,3.7,6.4,7.3,9.7,10.8
						c3.4,3.7,6.8,7.3,10.2,11c3.4,3.6,6.9,7.1,10.4,10.6c3.5,3.5,7,7,10.6,10.4c3.6,3.5,7.2,6.9,10.8,10.2
						c3.6,3.4,7.3,6.7,11.1,10.1c3.7,3.3,7.4,6.6,11.2,9.8s7.6,6.5,11.5,9.7c3.8,3.1,7.7,6.3,11.6,9.4h0.1c4,3.1,7.9,6.2,11.9,9.3
						c3.5,2.7,7.1,5.3,10.7,8c-4.5-2.9-8.9-6-13.4-9.1c-3.9-2.8-7.8-5.6-11.7-8.4c-0.4-0.3-0.8-0.6-1.2-0.9
						c-3.8-2.9-7.7-5.7-11.5-8.6c-4-3-7.9-6.1-11.9-9.3h-0.1c-3.9-3.1-7.8-6.3-11.6-9.4c-3.9-3.2-7.7-6.5-11.5-9.7
						c-3.8-3.3-7.5-6.5-11.2-9.8c-3.7-3.4-7.4-6.7-11.1-10.1c-3.6-3.4-7.2-6.8-10.8-10.2c-3.6-3.4-7.1-6.9-10.6-10.4
						c-3.5-3.5-6.9-7-10.4-10.6c-3.4-3.6-6.8-7.3-10.2-11c-3.3-3.6-6.5-7.2-9.7-10.8c-2.5-2.8-5-5.7-7.4-8.6
						c-7.1-8.4-14-17-20.8-25.7c-2.7-3.6-5.5-7.2-8.1-10.8c-0.4-0.4-0.7-0.9-1-1.4c-1.8-2.4-3.6-4.9-5.4-7.4
						c-4-5.6-7.9-11.3-11.7-17c-2.1-3.1-4.2-6.3-6.2-9.5c-3.1-4.8-6.1-9.7-9.1-14.6c-2.1-3.5-4.2-7-6.2-10.5c-2.8-4.9-5.6-10-8.4-15
						c-2-3.8-4-7.6-6-11.4c-2-3.9-4-7.8-5.8-11.7c-0.3-0.5-0.6-1.1-0.8-1.6c-4.1-8.4-8-16.9-11.6-25.5c-0.2-0.4-0.4-0.7-0.5-1.1
						c-1.8-4.2-3.5-8.5-5.2-12.7c-1.8-4.4-3.5-8.9-5.2-13.5c-1.7-4.5-3.3-9.1-4.8-13.6c-1.1-3.4-2.3-6.8-3.4-10.2
						c-0.9-2.7-1.7-5.4-2.5-8.1c-0.4-1.2-0.8-2.4-1.1-3.6c-0.8-2.7-1.6-5.3-2.3-7.9c-1.1-3.9-2.1-7.8-3.1-11.8
						c-40.6-286.3,219.8-603.9,479.9-740c66.2-34.7,145.3-34.7,211.5,0c5.9,3,11.7,6.3,17.5,9.7l0.1,0.1
						C2158.1,1143.4,2187.5,1162.5,2216.3,1183.4z"/>
				</g>
				<g>
					<path class="st4" d="M1999.9,2338.4c-114,0-228-34.3-325.2-102.9c-4-2.8-7.9-5.7-11.9-8.5c-0.2-0.1-0.4-0.3-0.6-0.5
						c-0.3-0.2-0.5-0.4-0.8-0.6c-4.1-3.1-7.9-5.9-11.6-8.7c-3.8-2.9-7.6-5.9-11.4-8.9c-0.3-0.2-0.6-0.4-0.9-0.7
						c-3.8-3.1-7.6-6.1-11.3-9.2c-4.4-3.6-8.3-6.9-12.1-10.2c-3.9-3.3-7.7-6.7-11.5-10.1l-0.5-0.5c-3.7-3.3-7.3-6.5-10.8-9.9
						c-3.6-3.4-7.3-6.9-11-10.4c-3.6-3.4-7.3-7-10.8-10.7c-3.7-3.7-7.1-7.2-10.5-10.8c-3.5-3.7-7-7.4-10.4-11.1
						c-3.4-3.8-6.7-7.5-10-11.2c-2.5-2.8-5-5.8-7.5-8.7c-7.4-8.8-14.6-17.6-21.2-26.3l-1.8-2.4c-2.1-2.8-4.2-5.6-6.3-8.4
						c-0.4-0.5-0.7-0.9-1.1-1.4c-2-2.7-3.9-5.3-5.8-8c-4.4-6.1-8.3-11.8-11.9-17.4c-2.1-3.2-4.4-6.5-6.4-9.9
						c-3.1-4.8-6.2-9.8-9.3-14.8l-1.9-3.2c-1.5-2.5-3-5-4.4-7.5c-2.8-4.9-5.5-9.8-8.1-14.6l-0.4-0.8c-2.2-4.1-4.2-7.9-6.2-11.8
						c-2-3.8-3.9-7.7-5.8-11.6c-0.4-0.8-0.9-1.6-1.2-2.5c-4.4-9.1-8.1-17.3-11.4-25.2c-0.3-0.6-0.7-1.4-1-2.3
						c-1.8-4.2-3.5-8.4-5.1-12.6c-1.8-4.5-3.6-9.2-5.3-14c-1.7-4.5-3.4-9.2-4.9-13.9c-1.1-3.4-2.3-6.9-3.4-10.4
						c-0.9-2.8-1.7-5.6-2.6-8.4c-0.4-1.2-0.8-2.6-1.2-4c-0.7-2.4-1.6-5.2-2.3-8.1c-1.1-3.8-2.1-7.8-3.2-11.8
						c-0.2-0.6-0.3-1.2-0.4-1.8c-24.6-173.4,57.1-333.8,130-437.9c92.1-131.5,222.7-247.7,358.5-318.8c70.9-37.2,155.6-37.2,226.6,0
						c135.8,71.1,266.4,187.3,358.5,318.8c72.9,104.1,154.5,264.5,130,437.9c-0.1,0.6-0.2,1.2-0.4,1.8c-1,3.9-2.1,7.8-3.1,11.6
						l-2.8,9.7c-0.2,0.8-0.5,1.7-0.8,2.5c-0.5,1.7-1,3.4-1.6,5.1l-0.6,1.8c-0.9,2.9-1.8,5.7-2.8,8.5l-0.2,0.6
						c-0.5,1.4-0.9,2.8-1.4,4.1c-1.4,4.2-3,8.6-4.6,13c-1.6,4.4-3.4,9.1-5.3,13.8c-1.7,4.4-3.6,9.1-5.6,13.7
						c-1.9,4.5-3.9,9.1-6,13.6c-1.9,4.2-3.9,8.5-6,12.8l-0.9,1.9c-1.8,3.7-3.8,7.8-5.9,11.8c-2.3,4.6-4.6,8.9-6.9,13.2
						c-2.8,5.2-5.7,10.3-8.7,15.3c-1.9,3.3-4,6.8-6,10.2c0,0,0,0.1-0.1,0.1c0,0.1-0.1,0.2-0.1,0.2c-2.6,4.2-5.2,8.4-7.9,12.6
						c-4.8,7.5-9.3,14.2-13.7,20.7c-2,3-4.2,5.9-6.3,8.9c-1.8,2.5-3.5,4.9-5.4,7.4c-2.7,3.7-5.5,7.4-8.2,11
						c-2.8,3.6-5.5,7.1-8.3,10.5c-1.6,2-3.2,4-4.7,5.9l-8.6,10.3c-5.1,6-10.4,12-15.6,17.8c-2.4,2.7-5,5.5-7.7,8.3l-6,6.3
						c-3,3.1-5.7,5.9-8.6,8.7c-3.8,3.8-7.9,7.9-12,11.9c-3.3,3.2-6.6,6.3-9.9,9.4c-0.6,0.6-1.2,1.2-1.9,1.7
						c-3.4,3.2-6.8,6.3-10.3,9.4c-6.7,6-13.4,11.7-19.7,17l-4.9,4.1c-3.5,2.9-7,5.7-10.4,8.4c-12,9.5-24.4,18.8-37,27.7
						c-0.1,0.1-0.4,0.3-0.6,0.4c0,0-0.1,0.1-0.1,0.1C2227.3,2304.2,2113.6,2338.4,1999.9,2338.4z M1682.4,2200.9
						c3.7,2.7,7.5,5.4,11.2,8c183,129.1,429,129.3,612.2,0.5v0c0.3-0.2,0.5-0.4,0.7-0.5c12.1-8.5,24-17.5,35.5-26.6
						c3.3-2.7,6.6-5.3,9.9-8l4.8-4c6.1-5.1,12.5-10.6,19-16.4c3.3-3,6.6-5.9,9.8-9c0.3-0.3,0.6-0.5,0.9-0.8l0.3-0.3
						c0.2-0.2,0.3-0.3,0.5-0.5c3.2-2.9,6.4-5.9,9.5-9c3.9-3.8,7.8-7.7,11.6-11.5c2.8-2.8,5.3-5.4,7.9-8l5.7-6.1c2.6-2.8,5-5.3,7.3-8
						c5.2-5.7,10.2-11.5,15.1-17.2l8.2-9.8c1.5-1.9,3-3.7,4.5-5.5c2.6-3.3,5.2-6.6,7.8-10c2.6-3.4,5.3-7,7.9-10.5
						c1.7-2.4,3.4-4.7,5.1-7.1c2-2.8,4-5.6,6-8.4c4.3-6.2,8.6-12.6,13.1-19.7c2.5-3.9,5-7.9,7.4-11.9c0-0.1,0.1-0.1,0.1-0.2l0,0
						c2-3.3,3.9-6.6,5.8-9.9c2.9-4.9,5.6-9.7,8.2-14.5c2.2-4.1,4.3-8.1,6.4-12.3c0-0.1,0.2-0.4,0.3-0.5c1.9-3.7,3.8-7.3,5.5-11l1-2
						c1.8-3.8,3.7-7.8,5.5-11.9c2-4.3,3.9-8.6,5.7-12.8c1.9-4.3,3.6-8.6,5.3-12.9c1.8-4.5,3.5-8.8,5-13.1c1.6-4.2,3-8.2,4.3-12.2
						l1.5-4.5c0.9-2.6,1.7-5.2,2.6-7.9l0.6-1.9c0.5-1.5,1-3,1.4-4.6c0.1-0.3,0.2-0.7,0.3-1c0.2-0.5,0.3-0.9,0.4-1.3l2.7-9.4
						c0.9-3.3,1.8-6.7,2.7-10.1c17.7-126.9-26.5-273.8-124.5-413.8c-89.2-127.4-215.6-239.9-346.9-308.6
						c-61.5-32.2-134.9-32.2-196.4,0c-131.3,68.7-257.8,181.2-346.9,308.6c-98,140-142.2,286.9-124.5,413.8
						c0.9,3.6,1.9,7.1,2.8,10.6c0.7,2.7,1.4,5.1,2.2,7.5c0.4,1.4,0.7,2.5,1,3.5c0.9,2.8,1.6,5.5,2.5,8.1c1.1,3.3,2.2,6.7,3.3,9.9
						c1.5,4.4,3,8.8,4.7,13.1c1.6,4.6,3.3,8.9,5,13.1c1.7,4.3,3.4,8.4,5.1,12.5c0,0.1,0.1,0.2,0.1,0.2c0.2,0.3,0.3,0.6,0.4,0.9
						c3.2,7.7,6.9,15.7,11.2,24.7c0.1,0.2,0.2,0.4,0.3,0.7c0.2,0.4,0.4,0.7,0.6,1.1c1.8,3.7,3.6,7.4,5.5,11.1
						c2,3.8,3.9,7.6,5.9,11.3l0.3,0.6c2.6,4.7,5.2,9.4,7.8,14c1.3,2.3,2.8,4.7,4.2,7.1l1.9,3.2c2.8,4.7,5.8,9.4,8.8,14.1
						c2,3.2,4,6.2,6,9.2c3.5,5.3,7.2,10.7,11.5,16.7c1.7,2.5,3.4,4.8,5.1,7c0.1,0.1,0.4,0.6,0.5,0.7l-0.2-0.2c0.4,0.4,0.7,0.8,1,1.3
						c2,2.7,4,5.4,6.1,8.1l1.8,2.3c6.3,8.1,13.1,16.6,20.2,25c2.4,2.8,4.8,5.6,7.2,8.3c3.2,3.7,6.3,7.2,9.5,10.7
						c3.3,3.5,6.7,7.1,10.1,10.8c3.2,3.4,6.5,6.7,9.9,10.1c3.6,3.6,7,7,10.4,10.3c3.6,3.5,7.1,6.8,10.6,10.1
						c3.5,3.3,6.9,6.3,10.4,9.5l0.5,0.5c3.6,3.2,7.2,6.4,10.9,9.6c3.7,3.2,7.4,6.4,11.2,9.5c3.8,3.1,7.2,5.9,10.7,8.7
						c0.2,0.2,0.5,0.4,0.7,0.6c3.9,3.1,7.8,6.1,11.7,9.1c3.5,2.7,7.2,5.4,10.9,8.2C1681.2,2200,1681.8,2200.4,1682.4,2200.9z
						 M1661.9,2226.2C1661.9,2226.2,1661.9,2226.2,1661.9,2226.2C1661.9,2226.2,1661.9,2226.2,1661.9,2226.2z M2386.7,2143.8
						c0,0-0.1,0.1-0.1,0.1C2386.6,2143.9,2386.7,2143.9,2386.7,2143.8z M1457.5,1926.7C1457.5,1926.7,1457.5,1926.7,1457.5,1926.7
						C1457.5,1926.7,1457.5,1926.7,1457.5,1926.7z M1456.5,1924.2C1456.5,1924.2,1456.5,1924.2,1456.5,1924.2
						C1456.5,1924.2,1456.5,1924.2,1456.5,1924.2z M2585.6,1849.6L2585.6,1849.6L2585.6,1849.6z"/>
				</g>
				<g>
					<g>
						<g>
							<g>
								<path class="st11" d="M2455.6,1931.8c-1,3-2.1,6.1-3.2,9.3c-30.2,77.2-89.3,118.4-125.1,71.8l21.4-104.9l14.5-71.3
									C2419.1,1798.5,2493.6,1815.6,2455.6,1931.8z"/>
							</g>
							<g>
								<path class="st6" d="M2363.1,2034.5c-14.2,0-27-7-37.4-20.4l-0.5-0.7l36.2-177.8l0.6-0.4c30.5-20.8,64.8-24.4,85.4-9
									c13.4,10.1,32.5,37.2,9.9,106.3l0,0c-1,3.1-2.1,6.2-3.2,9.4c-20.2,51.6-53.4,87.8-84.7,92.3
									C2367.4,2034.3,2365.3,2034.5,2363.1,2034.5z M2329.4,2012.4c10.9,13.8,24.5,19.9,39.6,17.8c29.9-4.3,62-39.5,81.6-89.8
									c1.1-3.1,2.2-6.2,3.2-9.2l0,0c16.2-49.5,13.1-85.7-8.6-102c-19.1-14.3-51.3-10.8-80.2,8.7L2329.4,2012.4z"/>
							</g>
						</g>
						<g class="st7">
							<path class="st6" d="M2455.6,1931.8c-1,3-2.1,6.1-3.2,9.3c-30.2,77.2-89.3,118.4-125.1,71.8l21.4-104.9c5-0.4,8-0.6,8-0.6
								c21.7,67.9,53.3,74,94.6,18.1C2451.3,1925.5,2452.9,1927.8,2455.6,1931.8z"/>
						</g>
						<g>
							<path class="st4" d="M2363.2,2045.6c-17.6,0-33.8-8.6-46.2-24.7c-2.3-3-3.2-6.9-2.4-10.6l35.9-176.2c0.7-3.3,2.6-6.3,5.4-8.2
								c34.8-23.8,74.6-27.1,99-8.2c16.4,12.7,39.4,46.1,9.8,127.8c-22,56.4-57.8,94.4-93.6,99.5
								C2368.5,2045.4,2365.8,2045.6,2363.2,2045.6z M2341.4,2009.3c7.7,8,16.3,11.3,26.1,9.9c25.6-3.7,54.9-36.9,72.8-82.8
								c17.4-48,16.9-83.8-1.4-98c-14.3-11.1-40.1-8.4-64,6.3L2341.4,2009.3z"/>
						</g>
						<g>
							<g>
								<path class="st11" d="M1544.4,1931.8c1,3,2.1,6.1,3.2,9.3c30.2,77.2,89.3,118.4,125.1,71.8l-21.4-104.9l-14.5-71.3
									C1580.9,1798.5,1506.4,1815.6,1544.4,1931.8z"/>
							</g>
							<g>
								<path class="st6" d="M1636.9,2035.2c-2.1,0-4.3-0.2-6.5-0.5c-31.6-4.5-65-40.9-85.3-92.7c-1.2-3.3-2.3-6.4-3.3-9.5v0
									c-22.7-69.5-3.3-97,10.2-107.2c20.8-15.6,55.5-12,86.3,9l0.9,0.6l36.4,178.5l-0.8,1
									C1664.3,2028.2,1651.3,2035.2,1636.9,2035.2z M1546.9,1930.9c1,3,2.1,6.1,3.2,9.2c19.5,50,51.3,85,81,89.2
									c14.9,2.1,27.9-3.7,38.7-17.2l-35.4-173.9c-28.6-19.2-60.3-22.6-79.1-8.5C1533.8,1845.9,1530.9,1881.8,1546.9,1930.9
									L1546.9,1930.9z"/>
							</g>
						</g>
						<g class="st8">
							<path class="st9" d="M1624.4,2031.3c-27.6-9.2-56.1-42.6-74.2-88.9c-1.1-3.2-2.2-6.3-3.2-9.3
								c-37.9-116.1,36.5-133.3,92.4-95.1l0.3,1.3c-50.5-19.1-101.5,7.4-68.7,107.6c1,3,2.1,6.1,3.2,9.3
								C1587,1989.1,1605.1,2015.5,1624.4,2031.3z"/>
						</g>
						<g>
							<path class="st4" d="M1636.8,2045.6c-2.6,0-5.3-0.2-7.9-0.6c-35.7-5.1-71.5-43.1-93.4-99.2c-29.7-82-6.7-115.5,9.7-128.1
								c24.4-18.9,64.2-15.6,99,8.2c2.8,1.9,4.8,4.8,5.4,8.2l35.9,176.2c0.8,3.7-0.1,7.6-2.4,10.6
								C1670.6,2037,1654.4,2045.6,1636.8,2045.6z M1583.8,1831.5c-8.9,0-16.7,2.2-22.6,6.8c-18.3,14.2-18.7,50-1.2,98.3
								c17.8,45.6,47.1,78.9,72.7,82.5c9.8,1.4,18.4-1.8,26.1-9.9l-33.5-164.6C1611.1,1836,1596.4,1831.5,1583.8,1831.5z"/>
						</g>
						<g>
							<g>
								<path class="st11" d="M2355.3,1910.6v60.3c0,103.7-49.6,202.1-135.1,260.8c-1.2,0.8-2.4,1.6-3.6,2.4
									c-130.4,87.4-301.1,87.4-431.5,0c-1.2-0.8-2.4-1.7-3.6-2.5c-85.5-58.7-135.2-157.1-135.2-260.8v-60.3c0,0,0.2-3.9,0.7-10.8
									c3.2-55,17.8-302,20.1-308.3C1744.7,1382.6,2520.7,1433.8,2355.3,1910.6z"/>
							</g>
							<g>
								<path class="st6" d="M2000.8,2302.8c-75.6,0-151.2-22.1-217.2-66.3c-1.1-0.8-2.2-1.5-3.3-2.3
									c-85.7-58.8-136.7-157.2-136.7-263.3v-60.3c0-0.2,0.2-4,0.7-11c5.3-90.8,17.9-302.7,20.3-309.1
									c20.4-54.8,89.4-95.5,189.5-111.5c96.6-15.4,209.1-5,300.9,28c91.7,32.9,295,138.2,203.1,404v59.8
									c0,106.1-51,204.4-136.3,263.1l-1.4,0.9c-0.7,0.5-1.5,1-2.2,1.5C2152.1,2280.7,2076.5,2302.8,2000.8,2302.8z M1945.6,1477.5
									c-31,0-61.6,2.3-90.7,6.9c-98.1,15.7-165.6,55.1-185.3,108c-1.9,6.9-11.9,170-20,307.5c-0.4,7-0.7,10.8-0.7,10.8l0,60.1
									c0,104.4,50.1,201,134,258.6c1.5,1,2.6,1.7,3.6,2.5c130.1,87.2,298.3,87.2,428.5-0.1c0.7-0.5,1.5-1,2.2-1.5l1.4-0.9
									c83.9-57.6,133.9-154.3,133.9-258.6l0.1-61.2c90.7-261.5-109.4-365.2-199.6-397.6
									C2089.8,1489.4,2016.5,1477.5,1945.6,1477.5z"/>
							</g>
						</g>
						<g class="st7">
							<path class="st6" d="M2355.3,1910.6v60.3c0,103.7-49.6,202.1-135.1,260.8c-1.2,0.8-2.4,1.6-3.6,2.4
								c-130.4,87.4-301.1,87.4-431.5,0c-1.2-0.8-2.4-1.7-3.6-2.5c-2.7-1.9-5.4-3.8-8-5.7c122.7,59.7,269.8,50.8,385.2-26.6
								c1.2-0.8,2.4-1.6,3.6-2.4c85.5-58.7,135.1-157.1,135.1-260.8l5.2-76c56.1-161.8-1.3-258.9-97.9-329.1
								C2336,1595.8,2421.9,1718.8,2355.3,1910.6z"/>
						</g>
						<g class="st7">
							<path class="st6" d="M2355.3,1910.6v24.5c-39-57.4-46.5-214.2-46.5-214.2c-34.1,37-225.5,79.7-359.8,8.3
								c-7.2-3.8-15.2,3.8-11.6,11.2c1.6,3.3,2.3,4.4,2.3,4.4c-17.7,10.9-100.9,0.3-146-26c-12.6-7.3-28.6,0.6-30.8,15
								c-10.1,64.6-42.3,109.5-111,176.7c-1.7-3.6-3.3-7.2-4.9-10.8c3.2-55,17.8-302,20.1-308.3
								C1744.7,1382.6,2520.7,1433.8,2355.3,1910.6z"/>
						</g>
						<g class="st8">
							<path class="st9" d="M2147.9,2270.8c-117.9,48.3-254.4,36.2-362.9-36.5c-1.2-0.8-2.4-1.7-3.6-2.5
								c-85.5-58.7-135.2-157.1-135.2-260.8v-60.3c0,0,18.1-312,20.8-319.1c16.3-43.9,63.4-76.3,126.2-95.7
								c-47.2,19.7-81.9,48.2-95.4,84.6c-2.7,7.1-20.8,319.1-20.8,319.1v60.3c0,103.8,49.6,202.1,135.2,260.9
								c1.2,0.8,2.6,1.4,3.7,2.4C1900.6,2299.8,2037.6,2305.5,2147.9,2270.8z"/>
						</g>
						<g>
							<path class="st4" d="M2000.8,2313.2c-77.6,0-155.3-22.7-223-68.1c-1.2-0.8-2.5-1.7-3.8-2.5
								c-88.2-60.5-140.9-162.1-140.9-271.6v-60.3c0-0.3,0-0.5,0-0.8c18.3-313.8,20.8-320.7,21.6-322.9l0,0
								c47.8-128.5,316.9-156.7,503.7-89.6c89,32,156.4,82.6,194.8,146.6c45.3,75.2,50.3,165.7,15,268.9v58.1
								c0,109.5-52.6,211.1-140.8,271.6l-3.7,2.5C2156.1,2290.5,2078.5,2313.2,2000.8,2313.2z M1659.3,1911v59.9
								c0,100.9,48.4,194.4,129.5,250.1c1.2,0.8,2.3,1.6,3.5,2.4c126.7,84.9,290.3,84.9,417,0l3.5-2.4
								c81.1-55.7,129.5-149.2,129.5-250.1v-60.3c0-1.5,0.2-2.9,0.7-4.3c87.7-252.8-106-353.1-193.3-384.4
								c-189.3-68-430.2-30.3-470,73.2C1677.3,1611.9,1666.3,1792,1659.3,1911z M1679.3,1596C1679.3,1596,1679.3,1596,1679.3,1596
								C1679.3,1596,1679.3,1596,1679.3,1596z M1679.4,1595.8c0,0.1-0.1,0.2-0.1,0.2C1679.3,1595.9,1679.4,1595.9,1679.4,1595.8z
								 M1667.1,1591.5L1667.1,1591.5L1667.1,1591.5z"/>
						</g>
						<g>
							<g>
								<path class="st12" d="M2351.3,1463.6c97.9,125.1,85.7,342.8,3.3,456.8c-63.1-34.8-67.3-199.4-67.3-199.4
									c-149.3,40.6-300.4,15.8-437.4-102.2c-2.9,46.4,35.9,89.4,35.9,89.4c-17.6-0.5-33.4-3.1-47.6-7.4
									c-49.6-14.8-79.1-50.7-97.1-95.8c-17.4,156.6-18.5,191.4-94.8,305.7c-76.1-163.2-90.2-364.4,36.8-424.6
									c-177-60.9-111.7-184.2,40.6-74.7c-74.7-107.3,19.6-148.7,39.2-30.5c110.1-201.1,593.9-130.5,659.5,97.9l-70.8-15.2
									C2351.3,1463.6,2351.3,1463.6,2351.3,1463.6z"/>
							</g>
							<g>
								<path class="st6" d="M2355.3,1923.9l-2.1-1.2c-59.4-32.8-67.6-173.7-68.6-198.3c-158.6,42.2-304,8.5-432.3-100
									c0.4,42.6,35,81.4,35.4,81.8l4.3,4.7l-6.3-0.2c-17.3-0.5-33.5-3-48.3-7.5c-42.9-12.8-73.9-41.6-94.8-87.9l-1,8.6
									c-15.5,140.3-19.6,177.9-93.1,288l-2.7,4l-2-4.4c-76.7-164.3-89.4-361.4,32.3-425.3c-71.5-25.9-99.6-60.9-101.9-85.4
									c-1.2-12.8,4.3-23.4,15.5-29.8c21-12,64.1-9.9,124.1,29.9c-25.1-41.1-24.4-70.9-15.3-84.5c5.3-8,13.7-11.4,22.8-9.5
									c15.3,3.3,34.1,22.4,42.9,65.9c60.6-100.6,206.7-122.9,325-109.7c141,15.7,299.5,88.1,335.8,214.6l1.2,4.3l-68.3-14.6
									c95,128.5,78.5,344.1-1.1,454.2L2355.3,1923.9z M2289.9,1717.4l0.1,3.5c0,1.6,4.8,159.8,63.8,195.9
									c78.5-110.9,93.3-326.5-4.6-451.6l-3.4-4.4l6.6,0.2l66,14.1c-38-121.4-192.3-191.1-329.9-206.4
									c-119-13.2-266.5,9.6-323.3,113.4l-3.8,6.9l-1.3-7.7c-7.6-46.1-26.3-65.8-40-68.8c-7-1.5-13,1-17.1,7.2
									c-9,13.5-8.4,45.2,22.9,90.1l9,13l-12.8-9.2c-63.9-46-109.8-49-129.7-37.6c-9.2,5.3-13.8,14-12.8,24.6
									c2.1,22.4,30.7,57.6,104.3,82.9l6.3,2.2l-6,2.8c-123.6,58.6-112.4,253-37.5,416.6c70.2-105.8,74.4-144,89.6-281.5l3.3-29.6
									l4,10c20.1,50.2,51.3,81.1,95.4,94.3c12.6,3.8,26.3,6.1,40.8,7c-10-12.6-35-48.2-32.6-86.6l0.3-5.4l4.1,3.6
									c128.8,110.9,275.1,145.1,435,101.6L2289.9,1717.4z"/>
							</g>
						</g>
						<g class="st7">
							<path class="st13" d="M1722.9,1577.7c6.5,12.5,12.4,26.6,16.3,43.4c-15.8,143.1-19.4,179.3-93,289.6
								c-8.6-18.5-16.4-37.4-23.3-56.6c60.4-93.7,67.5-146.6,81.4-272.9C1705.5,1571.4,1718.4,1569,1722.9,1577.7z"/>
						</g>
						<g class="st8">
							<path class="st9" d="M1694.9,1392.8c-95.8-40.6-130.5,29.6-37.2,83.5C1523,1417.5,1571.1,1321.9,1694.9,1392.8z"/>
						</g>
						<g class="st8">
							<path class="st9" d="M1680,1487.6c0.1,0,0.2,0.1,0.3,0.1c12.1,5.3,14.6,21.2,4.5,29.6c-86.7,71.9-83.4,233.6-26.2,374.6
								c-3.8,6-7.9,12.3-12.3,18.8C1570.8,1748.8,1556.3,1549.5,1680,1487.6z"/>
						</g>
						<g class="st8">
							<path class="st9" d="M1717.7,1409.6l-0.3-0.2c-50.6-77.8-4.6-122.7,26.2-86.8c-17,2.5-27,28.7-8.2,70.3
								C1740.3,1404,1728.3,1415.4,1717.7,1409.6z"/>
						</g>
						<g class="st8">
							<path class="st9" d="M2326.2,1361.3c-83.4-38.5-195-64.2-296.3-64.7c-15.6,30-68.3,28.5-90.4,7.2
								c-57,10.2-105.2,31.8-135.4,67.8c-8.6,10.3-25.5,9.6-32.2-2c-0.4-0.6-0.7-1.3-1-2C1865.3,1247.2,2183.8,1237.3,2326.2,1361.3
								z"/>
						</g>
						<g>
							<path class="st4" d="M2354.5,1933.5c-2.1,0-4.3-0.5-6.3-1.6c-57.6-31.8-70.4-149-73.3-194.2c-148.6,36-285.6,6.5-407.9-87.9
								c8.8,27.7,28.1,49.5,28.4,49.8c3.5,3.9,4.3,9.5,2.1,14.2c-2.1,4.6-6.8,7.6-11.8,7.6c-0.1,0-0.3,0-0.4,0
								c-59.9-1.8-105.5-26-136.1-72.1c-13.8,123.1-21.6,163.1-92.1,268.7c-2.6,3.9-7.1,6.1-11.8,5.8c-4.7-0.4-8.8-3.2-10.8-7.5
								c-74.8-160.3-89.3-351.6,18.6-427.7c-61.7-26.8-86.8-61.2-89.2-86.4c-1.6-16.8,5.9-31.3,20.6-39.7
								c19.8-11.3,56.1-12.2,104.8,12.6c-10.7-29.2-7.9-51.2,0.5-63.9c7.7-11.5,20.2-16.7,33.6-13.9c19.2,4.1,35.1,22.8,44.9,51.7
								c69-88.6,208.1-108.3,321.9-95.7c144.4,16,306.9,90.9,344.6,222c1.3,4.4,0.1,9.2-3,12.5c-3.1,3.4-7.8,4.8-12.3,3.9l-38.8-8.3
								c35.3,58,53.9,132.3,52.9,213.1c-1.2,88.7-26.1,173.2-68.5,231.8C2362.6,1931.6,2358.6,1933.5,2354.5,1933.5z M2287.3,1707.9
								c2.8,0,5.5,0.9,7.8,2.6c3.2,2.4,5.2,6.1,5.3,10.1c1.1,40.6,12.4,145.9,51,181.4c71.1-110.2,82.4-312-10.3-430.4
								c-3.4-4.3-3.7-10.3-0.8-15c2.9-4.7,8.4-7,13.8-5.8l48.2,10.3c-45.2-106.4-187.3-167.9-314.8-182
								c-145.4-16.2-268.3,26.3-313.1,108.1c-2.7,4.9-8.2,7.5-13.6,6.6c-5.5-0.9-9.8-5.2-10.7-10.7c-7.3-43.9-24.1-58.7-32-60.4
								c-1.9-0.4-4.2-0.4-6.3,2.8c-5.4,8.1-7.5,34.9,22.8,78.4c3.6,5.2,3,12.3-1.6,16.8c-4.5,4.5-11.6,5-16.8,1.3
								c-56.1-40.3-99.9-47.6-118.5-37c-5.8,3.3-8.2,8.1-7.6,14.6c2,20.9,32.9,51.9,97.4,74.1c5,1.7,8.5,6.3,8.8,11.6
								c0.3,5.3-2.6,10.2-7.4,12.5c-68.3,32.4-85,106.1-87.1,162.3c-2.4,66.6,14.6,146.9,46.9,223.3c58.8-91.7,63-129.5,77.5-261
								l2.1-18.9c0.7-5.9,5.3-10.7,11.2-11.5c5.9-0.8,11.7,2.5,13.9,8.1c21,52.6,55.5,82.9,105,92.1c-11.2-18.5-23.2-45.5-21.4-74.3
								c0.3-4.9,3.4-9.3,8-11.2c4.6-1.9,9.8-1.1,13.6,2.1c126,108.6,269.2,142,425.5,99.5C2285,1708.1,2286.1,1707.9,2287.3,1707.9z
								"/>
						</g>
						<g>
							<path class="st4" d="M2287.2,1734c-5.8,0-11-3.8-12.6-9.7c-1.9-7,2.3-14.1,9.2-16c16.2-4.4,32.6-9.6,48.7-15.6
								c6.8-2.5,14.3,0.9,16.8,7.7s-1,14.3-7.7,16.8c-16.9,6.2-34,11.7-51,16.3C2289.5,1733.9,2288.4,1734,2287.2,1734z"/>
						</g>
						<g class="st7">
							<path class="st4" d="M2354.5,1920.4c-63.1-34.8-67.3-199.4-67.3-199.4c-149.3,40.6-300.4,15.8-437.4-102.2
								c-2.9,46.4,35.9,89.4,35.9,89.4c-17.6-0.5-33.4-3.1-47.6-7.4c-71.4-117.7-41-145.5,61.7-109.3
								c285.1,92,492.6,106.4,451.4-128C2449.2,1588.7,2437,1806.3,2354.5,1920.4z"/>
						</g>
						<g class="st14">
							<path class="st13" d="M2282.1,1572.4c0,19.8-38.7,35.8-86.5,35.8c-47.8,0-86.5-16-86.5-35.8s38.7-20.3,86.5-20.3
								C2243.4,1552.1,2282.1,1552.6,2282.1,1572.4z"/>
						</g>
						<g>
							<g>
								<path class="st4" d="M2071.1,2181.3c-17.7,1.4-42.5,1.3-71-5.2c-37.1-8.5-64.6-24.2-81.3-35.6
									c11.3,16.1,30.3,37.2,56.4,43.5c9.6,2.3,23.1,3.3,26.1,3.6c11,0.9,24.4,1.2,39.5-0.6
									C2052.3,2185.8,2062.4,2183.6,2071.1,2181.3z"/>
							</g>
						</g>
						<g>
							<path class="st4" d="M1747.2,1878.1c20.3,2,36.8,2.6,48,2.8c20.3,0.4,26.8-0.5,41.5,1.4c16.5,2.2,28.3,3.9,40.8,11.7
								c12,7.5,21.8,18.3,26.4,31.4c-13.1-4.5-24.3-8.1-35.4-10.4c-11-2.4-21.5-3.5-32.1-3.7c-7.6-0.1-15.2,0.4-22.9,1.5
								c-4.9,0.7-8.2,1.5-9,1.6C1796.4,1916.1,1780.7,1910,1747.2,1878.1z"/>
						</g>
						<g>
							<path class="st4" d="M2196.7,1914.5c-0.8-0.2-4.1-0.9-9-1.6c-7.7-1.1-15.3-1.6-22.9-1.5c-10.6,0.1-21.1,1.3-32.1,3.7
								c-11,2.3-22.2,5.9-35.4,10.4c4.6-13.2,14.4-23.9,26.4-31.4c12.5-7.8,24.3-9.5,40.8-11.7c14.7-2,21.2-1.1,41.5-1.4
								c11.2-0.2,27.7-0.8,48-2.8C2220.4,1910,2204.7,1916.1,2196.7,1914.5z"/>
						</g>
						<g>
							<path class="st4" d="M1850.5,1969c22.3,0.3,39.9,17.3,44.2,36c6.4,27.7-16.4,59.2-44.9,59.2c-28.4,0-51.3-31.4-44.9-59.2
								C1809.4,1985.8,1827.7,1968.7,1850.5,1969z"/>
						</g>
						<g>
							<g>
								<ellipse class="st9" cx="1864.6" cy="2027.6" rx="13.6" ry="19.9"/>
							</g>
							<g>
								<path class="st6" d="M1864.6,2050.2c-9.1,0-16.3-9.9-16.3-22.6s7.1-22.6,16.3-22.6c9.1,0,16.3,9.9,16.3,22.6
									S1873.7,2050.2,1864.6,2050.2z M1864.6,2010.4c-5.9,0-10.8,7.9-10.8,17.2s5,17.2,10.8,17.2s10.8-7.9,10.8-17.2
									S1870.5,2010.4,1864.6,2010.4z"/>
							</g>
						</g>
						<g>
							<path class="st4" d="M2163.9,1970.1c20.4,1.6,36.8,17,41.1,34.9c6.5,27.5-16.1,59.2-44.9,59.2c-28.5,0-51.8-31.2-44.9-59.2
								C2120.3,1984.6,2140.8,1968.2,2163.9,1970.1z"/>
						</g>
						<g>
							<g>
								<ellipse class="st9" cx="2143.8" cy="2027.6" rx="13.6" ry="19.9"/>
							</g>
							<g>
								<path class="st6" d="M2143.8,2050.2c-9.1,0-16.3-9.9-16.3-22.6s7.1-22.6,16.3-22.6c9.1,0,16.3,9.9,16.3,22.6
									S2152.9,2050.2,2143.8,2050.2z M2143.8,2010.4c-5.9,0-10.9,7.9-10.9,17.2s5,17.2,10.9,17.2s10.8-7.9,10.8-17.2
									S2149.7,2010.4,2143.8,2010.4z"/>
							</g>
						</g>
					</g>
				</g>
			</g>
			<g>
				<g>
					<defs>
						<polygon id="SVGID_1_" points="1,-200 2,-200 1,-199 						"/>
					</defs>
					<defs>
						<polygon id="SVGID_00000116202400834300385330000008244025496896012726_" points="-1,-202 -2,-202 -1,-203 						"/>
					</defs>
					<clipPath id="SVGID_00000023976448831391335130000013137328285007580843_">
						<use xlink:href="#SVGID_1_"  style="overflow:visible;"/>
					</clipPath>
					
						<clipPath id="SVGID_00000033328619631538627760000002897472375643484840_" style="clip-path:url(#SVGID_00000023976448831391335130000013137328285007580843_);">
						<use xlink:href="#SVGID_00000116202400834300385330000008244025496896012726_"  style="overflow:visible;"/>
					</clipPath>
					<defs>
						<filter id="Adobe_OpacityMaskFilter" filterUnits="userSpaceOnUse" x="1134.3" y="1753.2" width="1753.1" height="1337.1">
							<feColorMatrix  type="matrix" values="1 0 0 0 0  0 1 0 0 0  0 0 1 0 0  0 0 0 1 0"/>
						</filter>
					</defs>
					
						<mask maskUnits="userSpaceOnUse" x="1134.3" y="1753.2" width="1753.1" height="1337.1" id="SVGID_00000127737915226957956250000016694987771060150180_">
						<g class="st16">
							<g>
								<defs>
									<polygon id="SVGID_00000140702647489099380780000001531647890515175300_" points="1,-200 2,-200 1,-199 									"/>
								</defs>
								<defs>
									<polygon id="SVGID_00000176042669804281343440000002380687127368710591_" points="-1,-202 -2,-202 -1,-203 									"/>
								</defs>
								
									<clipPath id="SVGID_00000103952084554845511120000007233788864717898124_" style="clip-path:url(#SVGID_00000033328619631538627760000002897472375643484840_);">
									<use xlink:href="#SVGID_00000140702647489099380780000001531647890515175300_"  style="overflow:visible;"/>
								</clipPath>
								
									<clipPath id="SVGID_00000124882326379004302320000011786221468496029851_" style="clip-path:url(#SVGID_00000103952084554845511120000007233788864717898124_);">
									<use xlink:href="#SVGID_00000176042669804281343440000002380687127368710591_"  style="overflow:visible;"/>
								</clipPath>
								
									<linearGradient id="SVGID_00000072280419687504014690000000744367052628869548_" gradientUnits="userSpaceOnUse" x1="2010.8618" y1="2240.6675" x2="2001.5934" y2="906.0858" gradientTransform="matrix(1 0 0 -1 0 4000)">
									<stop  offset="0" style="stop-color:#000000"/>
									<stop  offset="1" style="stop-color:#FFFFFF"/>
								</linearGradient>
								
									<polygon style="clip-path:url(#SVGID_00000124882326379004302320000011786221468496029851_);fill:url(#SVGID_00000072280419687504014690000000744367052628869548_);" points="
									2533.8,3090.4 1491.4,3090.4 1134.3,1753.2 2887.4,1768.5 								"/>
							</g>
						</g>
					</mask>
					
						<linearGradient id="SVGID_00000102524061584174319430000013084340355500150153_" gradientUnits="userSpaceOnUse" x1="2010.8618" y1="2240.6675" x2="2001.5934" y2="906.0858" gradientTransform="matrix(1 0 0 -1 0 4000)">
						<stop  offset="0" style="stop-color:#000000"/>
						<stop  offset="1" style="stop-color:#FFFFFF"/>
					</linearGradient>
					
						<polygon style="clip-path:url(#SVGID_00000033328619631538627760000002897472375643484840_);mask:url(#SVGID_00000127737915226957956250000016694987771060150180_);fill:url(#SVGID_00000102524061584174319430000013084340355500150153_);" points="
						2533.8,3090.4 1491.4,3090.4 1134.3,1753.2 2887.4,1768.5 					"/>
				</g>
			</g>
			
				<linearGradient id="SVGID_00000176762778614259005870000007839269019336326784_" gradientUnits="userSpaceOnUse" x1="2010.2439" y1="1532.6344" x2="2002.0568" y2="2367.7271">
				<stop  offset="4.825037e-02" style="stop-color:#CC3517;stop-opacity:0"/>
				<stop  offset="0.9994" style="stop-color:#F24E32"/>
			</linearGradient>
			<path style="opacity:0.5;fill:url(#SVGID_00000176762778614259005870000007839269019336326784_);enable-background:new    ;" d="
				M2533.8,3090.4l-1042.4,0c-119.4-553.6-238.9-1107.1-358.3-1660.7c585.4,5.2,1170.8,10.3,1756.1,15.5
				C2770.8,1993.6,2652.3,2542,2533.8,3090.4z"/>
			<g>
				<g>
					<g>
						<path class="st22" d="M2656.1,3058.1c-7,34.4-25.6,64-51.2,85c-25.7,21-58.4,33.4-93.5,33.4h-997.4
							c-70.3,0-130.8-49.5-144.8-118.4H2656.1z"/>
					</g>
					<g>
						<path class="st6" d="M2511.3,3179.2h-997.4c-71.3,0-133.3-50.7-147.4-120.6l-0.7-3.3h1293.6l-0.7,3.2
							c-6.9,33.9-25.4,64.6-52.2,86.6C2579.7,3167.2,2545.9,3179.2,2511.3,3179.2z M1372.4,3060.8c14.9,65.6,73.8,113,141.4,113
							h997.4c33.4,0,66-11.6,91.8-32.7c25-20.4,42.5-48.8,49.6-80.2H1372.4z"/>
					</g>
				</g>
				<g>
					<path class="st4" d="M2511.3,3192.8h-997.4c-77.7,0-145.3-55.3-160.7-131.4c-1-4.8,0.3-9.7,3.3-13.5c3.1-3.8,7.7-6,12.6-6h1287
						c4.9,0,9.5,2.2,12.6,6s4.3,8.7,3.4,13.5C2656.6,3137.5,2589,3192.8,2511.3,3192.8z M1390.6,3074.4
						c18.8,50.7,67.8,85.8,123.3,85.8h997.4c55.4,0,104.4-35.1,123.3-85.8H1390.6z"/>
				</g>
				<g class="st7">
					<path class="st6" d="M2656.1,3058.1c-7,34.4-25.6,64-51.2,85c-25.7,21-58.4,33.4-93.5,33.4h-617
						c101.4-4.8,191.3-32.8,268.6-86.1c0,0,5.3-13,17.1-32.2L2656.1,3058.1L2656.1,3058.1z"/>
				</g>
				<g>
					<g>
						<path class="st22" d="M2655.7,2432.7l-52.1,593.7c-3.2,36.2-33.5,64-69.9,64H1491.4c-36.3,0-66.7-27.8-69.9-64l-52-593.7
							c-5.1-58.3,40.8-108.5,99.3-108.5h1087.4c19.1,0,36.9,5.4,52.1,14.6C2639.5,2357.9,2659.1,2393.5,2655.7,2432.7z"/>
					</g>
					<g>
						<path class="st6" d="M2533.8,3093.1H1491.4c-38,0-69.2-28.6-72.6-66.5l-52-593.7c-2.5-28.5,7.1-57,26.5-78.2
							c19.4-21.1,46.9-33.3,75.5-33.3h1087.4c18.9,0,37.4,5.2,53.5,15c33.4,20.5,52,57.5,48.6,96.4v0l-52.1,593.7
							C2603,3064.5,2571.8,3093.1,2533.8,3093.1z M1468.9,2326.9c-27.1,0-53.2,11.5-71.5,31.5c-18.3,20-27.5,47-25.1,74l52,593.7
							c3.1,35.1,32,61.5,67.2,61.5h1042.3c35.2,0,64.1-26.5,67.2-61.5l52.1-593.7c3.3-36.9-14.4-71.9-46-91.3
							c-15.2-9.3-32.7-14.2-50.6-14.2L1468.9,2326.9L1468.9,2326.9z"/>
					</g>
				</g>
				<g class="st23">
					<path class="st9" d="M2639.1,2368.2c-12.7-5.9-26.9-9.3-42-9.3H1509.6c-58.5,0-104.5,50.2-99.3,108.5l52,593.7
						c0.8,9.3,3.4,17.9,7.4,25.8c-26.1-8.4-45.7-31.9-48.2-60.6l-52-593.7c-5.1-58.3,40.8-108.5,99.3-108.5h1087.4
						C2591,2324.2,2621.2,2341.8,2639.1,2368.2z"/>
				</g>
				<g>
					<path class="st4" d="M2533.8,3106.6H1491.4c-45.1,0-82.1-33.9-86.1-78.9l-52.1-593.7c-2.8-32.3,8.1-64.6,30-88.5
						c21.9-23.9,53.1-37.6,85.5-37.6h1087.4c32.4,0,63.6,13.7,85.5,37.6c21.9,23.9,32.9,56.2,30,88.5l-52.1,593.7
						C2615.9,3072.7,2578.9,3106.6,2533.8,3106.6z M1468.9,2340.5c-23.7,0-45.6,9.6-61.6,27.1c-16,17.5-23.7,40.1-21.6,63.7
						l52.1,593.7c2.5,28,25.5,49.2,53.7,49.2h1042.3c28.1,0,51.2-21.1,53.7-49.2l52.1-593.7c2.1-23.6-5.6-46.2-21.6-63.7
						c-16-17.5-37.9-27.1-61.6-27.1H1468.9z"/>
				</g>
				<g class="st7">
					<path class="st6" d="M2655.7,2432.7l-52.1,593.7c-3.2,36.2-33.5,64-69.9,64h-940.2c578.6-45.5,936.5-279.3,1014.7-751.6l0.2,0
						C2639.5,2357.9,2659.1,2393.5,2655.7,2432.7z"/>
				</g>
				<g>
					<g>
						<path class="st24" d="M2102.8,2838.5l-11.9,9.6l-1.4,30.3c-0.4,8.1-7.7,14.5-16.2,14.3l-0.1,0c-8.6-0.2-15.3-7-15.1-15.1
							l0.4-12.8c0.1-2.5-2-4.6-4.6-4.7l0,0c-2.6-0.1-4.8,1.9-4.9,4.4l-0.4,12.8c-0.2,8.1-7.3,14.5-15.9,14.3h0
							c-8.6-0.2-15.4-6.9-15.3-15.1l0.1-10.7c0-3.7-3-6.7-6.9-6.8l0,0c-3.8-0.1-7,2.8-7,6.4l-0.1,10.7c0,8.1-7,14.5-15.6,14.3l0,0
							c-8.5-0.2-15.5-6.9-15.6-15.1l-0.1-12.8c0-2.5-2.2-4.6-4.8-4.6l0,0c-2.6-0.1-4.7,1.9-4.7,4.4l0.2,12.8
							c0.1,8.1-6.7,14.5-15.2,14.3l-0.1,0c-8.5-0.2-15.6-6.9-15.8-15.1l-0.9-30.2l-11.6-10.1c-30.2-26.2-49-64.1-51.3-104.4
							c-4.6-83.3,60.1-154.8,145-153.5c85.4,1.3,149.8,75.6,143.5,159.5C2153.8,2776.3,2133.9,2813.6,2102.8,2838.5L2102.8,2838.5z"
							/>
					</g>
					<g>
						<path class="st4" d="M2010.9,2576.1c0.8,0,1.6,0,2.3,0c85.4,1.3,149.8,75.6,143.5,159.5c-3,40.7-22.9,78-54,102.9l-11.9,9.6
							l-1.4,30.3c-0.4,8-7.4,14.3-15.8,14.3c-0.1,0-0.3,0-0.4,0l-0.1,0c-8.6-0.2-15.3-7-15.1-15.1l0.4-12.8c0.1-2.5-2-4.6-4.6-4.7h0
							c0,0-0.1,0-0.1,0c-2.6,0-4.7,2-4.8,4.4l-0.4,12.8c-0.2,8-7.1,14.3-15.5,14.3c-0.1,0-0.3,0-0.4,0c-8.6-0.2-15.4-7-15.3-15.1
							l0.1-10.7c0-3.6-3-6.7-6.9-6.8c-0.1,0-0.1,0-0.2,0c-3.8,0-6.8,2.9-6.8,6.4l-0.1,10.7c0,8-6.8,14.3-15.1,14.3
							c-0.1,0-0.3,0-0.4,0c-8.5-0.2-15.5-6.9-15.6-15.1l-0.1-12.8c0-2.5-2.2-4.6-4.8-4.6c0,0-0.1,0-0.1,0c-2.6,0-4.6,2-4.5,4.4
							l0.2,12.8c0.1,8-6.5,14.3-14.8,14.3c-0.1,0-0.3,0-0.4,0l-0.1,0c-8.5-0.2-15.6-6.9-15.8-15.1l-0.9-30.2l-11.6-10.1
							c-30.2-26.2-49-64.1-51.3-104.4C1863.7,2647.1,1927.2,2576.1,2010.9,2576.1 M2010.9,2549.8L2010.9,2549.8
							c-46.7,0-90.1,18.6-122.1,52.5c-32.4,34.2-49.5,81.2-46.8,128.8c2.6,47.1,24.6,91.8,60.3,122.8l2.9,2.5l0.5,18.6
							c0.6,22.2,18.8,40,41.4,40.6c0.4,0,0.8,0,1.2,0c6.7,0,13.2-1.6,19-4.5c5.9,3.4,12.8,5.3,20.1,5.5c0.4,0,0.7,0,1.1,0
							c7.8,0,15.1-2.1,21.3-5.8c6.4,4.2,14,6.8,22.2,7c0.4,0,0.8,0,1.1,0c7,0,13.5-1.6,19.3-4.5c6,3.5,12.9,5.4,20,5.6
							c0.4,0,0.8,0,1.2,0c22.6,0,41-17.3,42.1-39.4l0.9-18.4l2.7-2.2c37-29.6,60.2-73.9,63.8-121.4c3.6-48.2-13-96.3-45.6-131.9
							c-32.2-35.3-76.2-55.1-123.8-55.9C2012.8,2549.8,2011.9,2549.8,2010.9,2549.8L2010.9,2549.8z"/>
					</g>
					<g>
						<g>
							<path class="st25" d="M1955.8,2695.2c-22.6-0.1-40,18.3-38.8,40.9c1.1,22.1,19.7,39.9,41.5,40c21.9,0.2,39.4-17.4,39-39.5
								C1997.1,2714,1978.4,2695.4,1955.8,2695.2L1955.8,2695.2z"/>
						</g>
						<g>
							<path class="st25" d="M2068.5,2694.1c-22.8-0.1-41.3,18.4-41.4,41.1c-0.1,22.2,17.7,40,39.7,40.2
								c22.1,0.2,40.6-17.4,41.5-39.7C2109.1,2713,2091.3,2694.2,2068.5,2694.1L2068.5,2694.1z"/>
						</g>
					</g>
				</g>
			</g>
		</g>
	</g>
</g>
</svg>
