<?xml version="1.0" encoding="utf-8"?>
<!-- Generator: Adobe Illustrator 27.5.0, SVG Export Plug-In . SVG Version: 6.00 Build 0)  -->
<svg version="1.1" id="Layer_1" xmlns="http://www.w3.org/2000/svg" xmlns:xlink="http://www.w3.org/1999/xlink" x="0px" y="0px"
	 viewBox="0 0 4000 4000" style="enable-background:new 0 0 4000 4000;" xml:space="preserve">
<g>
	<g>
		<rect style="fill:none;" width="4000" height="4000"/>
	</g>
	<g>
		<g>
			<g>
				<path style="fill:#37DBFF;" d="M3489.938,2226.133c0-810.679-657.185-1467.861-1467.864-1467.861
					S554.21,1415.454,554.21,2226.133c0,409.985,168.151,780.64,439.166,1046.958h2057.396
					C3321.787,3006.772,3489.938,2636.118,3489.938,2226.133z"/>
			</g>
		</g>
		<g>
			<g>
				<g>
					<g>
						<path style="fill:#F748E1;" d="M2405.464,2607.277l-1.881,30.33v0.096l-29.751,475.874l-5.593,1.977l-80.14,28.064h-94.268
							c-58.297-12.779-121.174-52.8-182.027-119.342c-0.771-0.868-1.591-1.737-2.411-2.652c-4.581-4.918-7.667-7.667-7.667-7.667
							l-152.228-17.744c-8.679-1.012-17.455,0.627-25.219,4.629l-137.569,71.75v78.838l26.762,81.924l12.633,38.624h-579.448
							c-55.163-15.816-94.172-48.171-119.776-94.22c-27.485-49.473-34.091-107.673-22.084-162.981
							c13.019-60.081,36.212-125.128,61.624-185.739l0.048,0.048c11.09-9.885,47.498-82.937,125.758-102.851
							c32.837-8.39,75.074,7.474,122.715,17.359c19.046,3.954,37.177,5.931,54.343,6.027
							c96.969,0.53,162.643-59.888,183.329-171.467c93.497,111.771,175.421,25.46,198.084-25.46
							c2.266-5.063,3.954-9.789,4.966-13.935c1.35-5.352,1.64-9.692,0.772-12.633l3.616,0.771l143.645,31.729
							c24.736,8.92,48.557,20.348,70.641,34.621c41.854,27.196,79.465,60.563,111.482,99.139l4.774,5.738l136.99,164.958
							l167.031-240.227L2405.464,2607.277z"/>
						<path style="fill:#390075;" d="M1729.304,3274.294l-583.286-0.093c-53.809-15.425-94.573-47.495-121.162-95.317
							c-26.919-48.457-34.849-106.909-22.324-164.6c11.563-53.35,32.339-115.981,61.751-186.147l1.335-3.184l0.823,0.825
							c2.002-2.305,4.722-6.099,7.974-10.63c17.471-24.351,53.821-75.02,117.244-91.162c25.195-6.431,54.853,0.859,89.199,9.297
							c11.157,2.739,22.693,5.576,34.558,8.037c18.645,3.872,36.775,5.884,53.882,5.981c0.413,0.005,0.837,0.005,1.248,0.005
							c95.689,0,159.509-60.171,179.79-169.58l0.899-4.839l3.159,3.774c33.489,40.034,68.132,57.871,102.944,52.993
							c41.448-5.796,76.352-44.448,91.245-77.905c2.229-4.985,3.855-9.541,4.829-13.54c1.592-6.309,1.314-9.692,0.801-11.426
							l-1.104-3.74l7.429,1.587l143.66,31.729c26.084,9.39,50.012,21.113,71.399,34.937c42.258,27.461,79.941,60.972,112.009,99.609
							l139.817,168.35l180.867-260.093l-2.39,38.589l-29.846,477.5l-7.039,2.49l-80.913,28.198h-94.27
							c-60.61-13.237-123.975-54.746-183.738-120.103l-2.429-2.671c-3.337-3.584-5.893-6.011-6.951-6.992l-151.482-17.656
							c-8.201-0.981-16.46,0.557-23.889,4.385l-136.311,71.094v77.061L1729.304,3274.294z M1146.984,3269.656h575.923
							l-38.516-118.228v-80.244l138.816-72.397c8.257-4.258,17.451-5.928,26.56-4.878l152.954,17.832l0.547,0.483
							c0.129,0.117,3.218,2.881,7.822,7.817l2.441,2.69c59.097,64.619,121.621,105.649,180.793,118.623l93.379-0.054l83.909-29.399
							l31.025-496.514l-174.89,251.514l-143.711-173.032c-31.77-38.281-69.104-71.479-110.962-98.682
							c-21.089-13.628-44.697-25.195-70.166-34.38l-143.684-31.719c0.127,2.832-0.31,6.255-1.313,10.234
							c-1.038,4.258-2.754,9.077-5.098,14.316c-15.393,34.585-51.638,74.565-94.836,80.605
							c-35.388,4.946-70.379-12.173-103.999-50.918c-21.694,108.833-86.665,168.613-183.425,168.613c-0.427,0-0.854,0-1.282,0
							c-17.417-0.103-35.854-2.144-54.8-6.079c-11.946-2.48-23.525-5.327-34.722-8.076c-33.74-8.301-62.891-15.469-86.948-9.307
							c-61.787,15.723-97.471,65.469-114.619,89.37c-4.329,6.035-7.505,10.459-9.885,12.705
							c-29.167,69.653-49.768,131.792-61.235,184.717c-12.285,56.587-4.526,113.892,21.846,161.357
							C1054.829,3223.25,1094.55,3254.543,1146.984,3269.656z"/>
					</g>
					<g>
						
							<rect x="2167.863" y="2891.983" transform="matrix(0.5706 -0.8212 0.8212 0.5706 -1429.6813 3054.1973)" style="fill:#390075;" width="76.046" height="4.638"/>
					</g>
				</g>
				<g style="opacity:0.25;">
					<path style="fill:#390075;" d="M1726.106,3271.977h-579.448c-55.163-15.816-94.172-48.171-119.776-94.22
						c-27.485-49.473-34.091-107.673-22.084-162.981c13.019-60.081,36.212-125.128,61.624-185.739l0.048,0.048
						c11.09-9.885,49.955-64.854,128.215-84.769c-47.158,118.281-79.803,229.523-86.602,328.275
						c11.91,95.088,283.576,136.123,567.153,72.811l7.667,53.668l30.571,34.283L1726.106,3271.977z"/>
				</g>
				<g>
					<path style="fill:#390075;" d="M3425.148,3277.49c-56.417,8.56-112.833,10.61-169.25,11.663
						c-56.417,1.182-112.834,0.554-169.25-0.09c-56.417-0.5-112.834-0.63-169.252-0.549h-169.25h-677.003h-677.003h-338.502
						l-84.625,0.032l-42.313,0.396l-42.312,0.686c-56.417,0.195-112.834-0.303-169.25-12.136c-3.044-0.64-4.995-3.625-4.357-6.67
						c0.474-2.253,2.239-3.909,4.357-4.355c56.416-11.836,112.833-12.332,169.25-12.136l42.312,0.686l42.313,0.396l84.625,0.032
						h338.502h677.003h677.003h169.25c56.417,0.081,112.834-0.049,169.252-0.552c56.416-0.645,112.833-1.272,169.25-0.088
						c56.417,1.052,112.833,3.103,169.25,11.663c3.044,0.461,5.138,3.306,4.675,6.35
						C3429.448,3275.286,3427.496,3277.131,3425.148,3277.49z"/>
				</g>
				<g>
					<g>
						<g>
							<path style="fill:#FFBF93;" d="M2456.609,2384.115c0,0-21.719,40.529-4.029,84.438c17.691,43.91,116.007,0,116.007,0"/>
						</g>
						<g>
							<path style="fill:#390075;" d="M2490.637,2490.403c-8.218,0-15.955-1.079-22.554-3.745
								c-8.486-3.428-14.426-9.229-17.654-17.241c-17.888-44.404,3.228-84.702,4.136-86.396l4.087,2.188
								c-0.212,0.396-20.981,40.137-3.921,82.48c2.737,6.792,7.813,11.729,15.088,14.668c32.256,13.032,97.17-15.63,97.822-15.923
								l1.89,4.233C2567.326,2471.653,2524.865,2490.398,2490.637,2490.403z"/>
						</g>
					</g>
					<g>
						<path style="fill:#4089FF;" d="M2695.096,2473.742l-83.429,4.253c-46.112,2.351-85.398-33.125-87.748-79.236l-9.821-192.647
							c-0.452-8.865,6.369-16.418,15.234-16.871l218.31-11.129c8.865-0.452,16.418,6.368,16.87,15.234l9.821,192.647
							C2776.683,2432.106,2741.208,2471.392,2695.096,2473.742z"/>
					</g>
					<g style="opacity:0.25;">
						<path style="fill:#390075;" d="M2758.271,2439.66c-14.356,19.562-37.053,32.741-63.154,34.072l-83.455,4.254
							c-46.086,2.349-85.408-33.113-87.76-79.247l-9.82-192.626c-0.452-8.861,6.406-16.405,15.267-16.856l41.078-2.094
							l9.085,178.227c2.352,46.135,41.626,81.599,87.76,79.247l83.407-4.252C2753.231,2440.255,2755.779,2440.029,2758.271,2439.66z
							"/>
					</g>
					<g style="opacity:0.55;">
						<path style="fill:#FFFFFF;" d="M2764.496,2193.348l9.819,192.626c2.352,46.134-33.113,85.408-79.198,87.758l-35.299,1.799
							c46.134-2.352,81.598-41.626,79.247-87.76l-9.82-192.626c-0.452-8.861-7.993-15.671-16.854-15.219l35.251-1.797
							C2756.503,2177.677,2764.044,2184.487,2764.496,2193.348z"/>
					</g>
					<g>
						<path style="fill:#390075;" d="M2607.355,2494.983c-53.083,0-97.559-41.763-100.293-95.366l-9.819-192.646
							c-0.923-18.14,13.083-33.657,31.226-34.585l218.313-11.128c18.137-0.903,33.66,13.096,34.585,31.23l9.822,192.646
							c1.367,26.807-7.788,52.534-25.774,72.456c-17.988,19.922-42.656,31.641-69.458,33.008l-83.43,4.253
							C2610.798,2494.939,2609.067,2494.983,2607.355,2494.983z M2530.993,2206.052l9.78,191.846
							c1.873,36.748,33.33,65.146,70.034,63.242l83.43-4.253l0,0c17.8-0.908,34.18-8.691,46.125-21.919
							c11.943-13.228,18.022-30.317,17.114-48.115l-9.78-191.846L2530.993,2206.052z"/>
					</g>
					<g>
						<g>
							<path style="fill:#FFBF93;" d="M2530.159,2359.479c-7.377,0.723-17.998,5.413-17.998,5.413v32.548l-50.956-13.32
								C2490.667,2265.308,2601.475,2226.829,2530.159,2359.479z"/>
						</g>
						<g>
							<path style="fill:#390075;" d="M2514.479,2400.442l-56.074-14.658l0.549-2.222c15.977-64.419,55.493-104.922,77.876-109.395
								c8.552-1.689,13.149,1.709,15.496,4.878c8.857,11.963,1.709,40.918-20.127,81.533l-0.583,1.089l-1.23,0.122
								c-5.405,0.527-12.859,3.394-15.906,4.639V2400.442z M2464.018,2382.458l45.823,11.978v-31.055l1.384-0.61
								c0.422-0.19,9.944-4.365,17.458-5.444c29.47-55.186,22.71-71.748,19.917-75.522c-2.251-3.037-5.901-4.063-10.862-3.091
								C2516.816,2282.893,2479.86,2321.199,2464.018,2382.458z"/>
						</g>
					</g>
					<g>
						<path style="fill:#390075;" d="M2461.218,2398.582c-1.155,0-2.327-0.137-3.496-0.43c-7.754-1.924-12.48-9.766-10.557-17.52
							c16.331-65.835,58.135-112.729,87.502-118.423c11.414-2.192,21.487,1.377,27.61,9.844
							c12.52,17.314,4.731,51.367-23.149,101.206c-3.896,6.982-12.712,9.468-19.688,5.566c-6.973-3.901-9.463-12.715-5.562-19.688
							c24.866-44.453,25.796-62.91,25.203-68.423c-12.72,3.013-48.723,35.952-63.835,96.88
							C2473.613,2394.182,2467.709,2398.582,2461.218,2398.582z"/>
					</g>
					<g>
						<path style="fill:#390075;" d="M2517.165,2437.927l-50.225-21.099c-24.011-10.073-40.386-33.398-41.709-59.409l-2.798-54.897
							c-0.93-18.218,5.291-35.698,17.512-49.224c12.214-13.511,28.96-21.465,47.156-22.393l28.171-1.436l2.456,48.154l-28.171,1.436
							c-5.339,0.273-10.254,2.607-13.835,6.572c-3.584,3.96-5.405,9.087-5.134,14.429l2.8,54.902
							c0.388,7.622,5.186,14.453,12.219,17.407l50.234,21.104L2517.165,2437.927z"/>
					</g>
					<g>
						<path style="fill:#390075;" d="M2490.524,2504.866c-9.978,0-19.556-1.343-27.893-4.712
							c-12.122-4.897-21.011-13.643-25.706-25.293c-20.405-50.654,3.767-96.782,4.807-98.721
							c4.402-8.208,14.631-11.309,22.847-6.899c8.193,4.39,11.289,14.57,6.941,22.773c-0.303,0.591-17.617,34.663-3.286,70.229
							c0.896,2.227,2.434,4.756,7.039,6.616c20.342,8.203,67.012-7.041,86.431-15.718c8.508-3.794,18.489,0.01,22.292,8.525
							c3.801,8.511-0.017,18.491-8.528,22.295C2569.621,2486.575,2527.331,2504.866,2490.524,2504.866z"/>
					</g>
				</g>
				<g>
					<path style="fill:#FCBBA0;" d="M1756.436,2454.616v80.574c-21.94,53.185-47.014,85.733-75.27,97.499
						c-8.728,3.616-17.745,5.256-27.051,4.918c-28.642-1.061-60.129-20.83-94.461-59.502l-6.799-192.298
						c24.35,24.785,49.473,44.41,75.559,57.574c28.883,14.707,58.924,21.506,90.459,18.805
						C1731.169,2461.126,1743.706,2458.618,1756.436,2454.616z"/>
					<path style="fill:#390075;" d="M1656.455,2639.968c-0.806,0-1.614-0.015-2.422-0.044
						c-29.229-1.084-61.563-21.367-96.113-60.283l-0.554-0.625l-7.036-199.087l4.18,4.253c24.963,25.41,50.178,44.629,74.951,57.129
						c29.233,14.888,59.243,21.138,89.216,18.564c12.168-1.05,24.639-3.564,37.063-7.471l3.015-0.947l-0.176,84.614
						c-22.107,53.594-47.852,86.821-76.521,98.755C1673.816,2638.245,1665.217,2639.968,1656.455,2639.968z M1561.941,2577.185
						c33.464,37.524,64.504,57.075,92.261,58.11c8.906,0.283,17.698-1.274,26.077-4.751c27.417-11.411,52.258-43.647,73.838-95.815
						v-76.978c-11.748,3.481-23.523,5.752-35.042,6.743c-30.862,2.646-61.707-3.77-91.712-19.048
						c-23.83-12.026-48.027-30.117-71.982-53.818L1561.941,2577.185z"/>
				</g>
				<g style="opacity:0.55;">
					<path style="fill:#FFFFFF;" d="M1320.469,2843.558L1320.469,2843.558c-23.495,12.605-41.766,33.126-51.569,57.922
						l-41.16,104.108l-20.239-0.607l0,0c21.175,24.103,49.443,40.876,80.746,47.911l5.479,1.231l392.985,44.603v-26.135
						l-386.736-57.814l-15.645-8.728L1320.469,2843.558z"/>
				</g>
				<g>
					<path style="fill:#390075;" d="M1552.614,2595.002c-9.321,0-16.877-7.529-16.877-16.851v-0.049c0-1.04,0.098-2.075,0.288-3.096
						c9.868-52.871,8.941-116.45-2.751-189.019l-1.799-3.105c-4.646-8.081-1.858-18.398,6.223-23.042
						c8.076-4.648,18.396-1.855,23.04,6.226l3.325,5.737c1.008,1.753,1.692,3.672,2.021,5.664
						c12.776,77.578,13.845,146.016,3.179,203.428C1567.932,2588.894,1560.983,2595.002,1552.614,2595.002z"/>
				</g>
				<g>
					<path style="fill:#390075;" d="M1194.972,3001.079c21.132-2.952,41.987-3.56,62.753-3.394
						c20.767,0.154,41.4,1.443,61.959,3.354c41.112,3.882,82.252,7.527,123.293,12.024c20.538,2.092,41.061,4.316,61.558,6.765
						c20.509,2.344,41.013,4.722,61.483,7.395c40.969,5.1,81.875,10.737,122.665,17.371l0.753,0.122
						c8.279,1.348,14.159,8.516,14.152,16.641v11.235c0,9.319-7.556,16.875-16.876,16.875c-9.321,0-16.877-7.556-16.877-16.875
						v-11.235l14.905,16.76c-41.215-3.013-82.312-7.024-123.346-11.57c-20.532-2.151-41.029-4.595-61.522-7.078
						c-20.505-2.373-40.984-4.973-61.447-7.703c-40.963-5.151-81.826-11.152-122.717-16.919
						c-20.443-2.91-40.812-6.445-61.046-11.116c-20.237-4.656-40.382-10.088-60.253-17.864c-1.282-0.503-1.914-1.948-1.412-3.23
						C1193.335,3001.772,1194.111,3001.204,1194.972,3001.079z"/>
				</g>
				<g>
					<path style="fill:#390075;" d="M1326.526,2830.635c-4.796,30.244-10.172,60.33-15.548,90.415l-8.413,45.032
						c-2.946,14.973-4.938,30.208-10.544,44.446c-3.434,8.723-13.289,13.008-22.012,9.575c-7.573-2.983-11.797-10.813-10.532-18.533
						c2.469-15.103,8.553-29.209,13.683-43.582l15.813-42.993c10.775-28.601,21.55-57.2,32.905-85.64
						c0.497-1.245,1.908-1.851,3.152-1.353C1326.102,2828.43,1326.7,2829.541,1326.526,2830.635z"/>
				</g>
				<g>
					<g>
						<path style="fill:#FFBF93;" d="M2029.886,3145.402h-343.175v-72.811l137.569-71.75c7.763-4.002,16.539-5.641,25.219-4.629
							l152.228,17.744c0,0,3.086,2.749,7.667,7.667c0.82,0.916,1.64,1.784,2.411,2.652
							C2030.465,3045.347,2065.375,3095.544,2029.886,3145.402z"/>
					</g>
					<g>
						<path style="fill:#390075;" d="M2031.083,3147.722h-346.692v-76.538l138.816-72.397c8.257-4.258,17.451-5.928,26.56-4.878
							l152.954,17.832l0.547,0.488c0.129,0.112,3.218,2.876,7.822,7.813l2.441,2.69c17.761,20.054,55.076,72.271,18.245,124.014
							L2031.083,3147.722z M1689.03,3143.083h339.653c33.75-48.721-1.709-98.179-18.616-117.271l-2.405-2.646
							c-3.337-3.584-5.893-6.011-6.951-6.992l-151.482-17.656c-8.201-0.981-16.46,0.557-23.889,4.385l-136.311,71.094V3143.083z"/>
					</g>
				</g>
				<g style="opacity:0.55;">
					<path style="fill:#FFFFFF;" d="M2044.159,3111.745c-6.703-21.167-19.915-38.672-29.124-49.135
						c-0.772-0.868-1.591-1.737-2.411-2.652c-4.581-4.918-7.667-7.667-7.667-7.667l-152.228-17.745
						c-8.679-1.012-17.455,0.627-25.219,4.629l-137.569,71.75v34.476h-3.231v-72.811l137.569-71.75
						c7.763-4.002,16.539-5.641,25.219-4.629l152.228,17.744c0,0,3.086,2.749,7.667,7.667c0.82,0.916,1.64,1.784,2.411,2.652
						C2026.221,3040.574,2050.379,3074.231,2044.159,3111.745z"/>
				</g>
				<g style="opacity:0.55;">
					<path style="fill:#FFFFFF;" d="M2403.584,2637.607v0.096l-23.193,71.123l-122.283,185.499l-3.95,4.037
						c-16.439,16.802-40.604,23.538-63.364,17.661l0,0l15.093-31.873l-129.065-145.594c-26.842-30.28-56.814-57.633-89.414-81.604
						l0,0c-56.923-41.855-121.091-72.83-189.271-91.365l-47.437-12.896l-0.096-0.048c0,0,1.977-5.545,5.063-13.887
						c1.254-3.52,2.749-7.57,4.388-11.862l143.645,31.729c24.736,8.92,48.557,20.348,70.641,34.621
						c41.854,27.196,79.465,60.563,111.482,99.139l4.774,5.738l136.99,164.958l167.031-240.227L2403.584,2637.607z"/>
				</g>
				<g style="opacity:0.55;">
					<path style="fill:#FFFFFF;" d="M1937.558,2738.432L1937.558,2738.432c0,26.061,3.161,52.026,9.413,77.326l9.997,40.453
						c6.252,25.3,9.413,51.265,9.413,77.326v80.404c0,0,49.405,1.882,53.844,0
						C2044.146,3003.803,1993.706,2796.152,1937.558,2738.432z"/>
				</g>
				<g>
					<path style="fill:#390075;" d="M2029.887,3162.278h-343.176c-9.321,0-16.878-7.554-16.878-16.875v-72.813
						c0-6.289,3.496-12.056,9.072-14.966l137.568-71.748c10.903-5.62,22.988-7.832,34.985-6.426l152.219,17.744
						c3.445,0.4,6.682,1.855,9.272,4.16c0.376,0.337,3.816,3.428,8.789,8.765l2.654,2.915
						c20.105,22.705,62.131,81.899,19.243,142.153C2040.471,3159.636,2035.349,3162.278,2029.887,3162.278z M1703.588,3128.528
						h317.007c20.176-36.792-4.258-73.677-21.426-93.066l-2.376-2.612c-0.974-1.04-1.877-1.978-2.678-2.788l-146.57-17.085
						c-5.327-0.625-10.693,0.371-15.53,2.866l-128.428,66.982V3128.528z"/>
				</g>
				<g>
					<path style="fill:#390075;" d="M1930.538,2724.788c9.977,9.165,19.352,18.953,28.092,29.343
						c4.414,5.156,8.634,10.503,12.78,15.916c3.973,5.532,8.063,11.023,11.842,16.75c7.502,11.462,14.419,23.45,20.588,35.894
						c5.963,12.554,11.284,25.52,15.419,38.989c4.109,13.455,7.701,27.222,9.46,41.36c0.597,3.508,1.012,7.043,1.309,10.596
						c0.308,3.547,0.773,7.095,0.939,10.649c0.178,7.058,0.425,14.429,0.38,20.847c-0.054,26.528-0.459,53.052-2.277,79.583
						c-0.637,9.319-8.71,16.36-18.031,15.72c-8.539-0.583-15.161-7.412-15.721-15.72c-1.82-26.558-2.228-53.12-2.284-79.68
						c0.087-6.853-0.127-12.751-0.217-18.962c-0.424-6.125-0.436-12.285-1.27-18.398l-1.057-9.189
						c-0.493-3.049-1.058-6.089-1.481-9.158c-0.94-6.121-2.235-12.212-3.602-18.296c-2.847-12.156-6.648-24.158-10.621-36.211
						c-4.38-11.907-8.654-24.021-14.041-35.774c-10.049-23.879-22.312-47.141-34.063-71.365c-0.602-1.213-0.105-2.683,1.108-3.286
						C1928.717,2723.936,1929.813,2724.136,1930.538,2724.788z"/>
				</g>
				<g>
					<g>
						<path style="fill:#390075;" d="M1726.105,3288.85h-579.448c-1.572,0-3.14-0.22-4.651-0.654
							c-57.649-16.528-101.345-50.923-129.875-102.236c-28.64-51.553-37.1-113.618-23.826-174.761
							c11.748-54.219,32.793-117.705,62.551-188.687c1.043-2.49,2.649-4.653,4.646-6.348c1.089-1.45,3.972-6.079,6.323-9.854
							c24.717-39.692,90.256-144.951,257.954-78.955c17.205,3.486,33.884,5.298,49.6,5.391c0.396,0,0.801,0,1.194,0
							c89.126,0,146.318-54.487,165.447-157.671c1.199-6.465,6.04-11.646,12.41-13.271c6.362-1.641,13.101,0.586,17.258,5.679
							c38.018,46.572,75.086,62.666,110.173,47.808c40.742-17.251,65.813-70.098,63.811-87.202
							c-0.635-5.425,1.394-10.82,5.444-14.482c4.053-3.662,9.622-5.146,14.956-3.96l147.261,32.5
							c0.708,0.156,1.406,0.356,2.087,0.605c26.838,9.678,51.76,21.899,74.077,36.318c43.518,28.281,82.302,62.769,115.308,102.539
							l127.588,153.623l165.215-237.588c4.319-6.221,12.241-8.804,19.404-6.304c7.148,2.49,11.768,9.434,11.294,16.987
							l-31.631,506.304c-0.422,6.768-4.858,12.627-11.262,14.873l-85.732,30.044c-1.794,0.63-3.679,0.947-5.581,0.947h-94.27
							c-1.216,0-2.427-0.132-3.616-0.391c-63.062-13.828-129.063-56.86-190.864-124.438l-2.556-2.817
							c-0.974-1.04-1.877-1.978-2.678-2.788l-146.57-17.085c-5.327-0.625-10.691,0.371-15.532,2.866l-128.425,66.982v65.918
							l38.56,117.988c1.68,5.142,0.793,10.776-2.38,15.151C1736.594,3286.262,1731.513,3288.85,1726.105,3288.85z M1149.072,3255.1
							h553.762l-32.166-98.428c-0.552-1.694-0.835-3.462-0.835-5.244v-78.838c0-6.289,3.499-12.056,9.072-14.966l137.568-71.748
							c10.903-5.62,22.988-7.832,34.985-6.426l152.219,17.744c3.445,0.4,6.682,1.855,9.272,4.16
							c0.376,0.337,3.816,3.428,8.789,8.765l2.654,2.915c56.35,61.621,115.588,100.952,171.304,113.711h89.531l72.458-25.396
							l27.168-434.878l-143.416,206.24c-3.008,4.331-7.869,7.002-13.135,7.227c-5.212,0.234-10.334-2.021-13.704-6.079
							l-141.755-170.684c-30.845-37.158-67.078-69.38-107.705-95.781c-19.851-12.827-42.117-23.774-66.157-32.524l-127.82-28.213
							c-8.415,34.565-39.109,81.494-82.144,99.717c-30.447,12.881-75.776,15.991-127.275-33.34
							c-28.237,98.071-96.56,153.467-191.228,153.467c-0.442,0-0.881,0-1.326-0.005c-18.384-0.103-37.788-2.251-57.681-6.382
							c-0.957-0.2-1.897-0.479-2.807-0.845c-142.522-56.694-193.655,25.415-218.225,64.883c-3.877,6.226-6.77,10.874-9.734,14.375
							c-28.303,67.876-48.303,128.364-59.453,179.824c-11.536,53.135-4.309,106.831,20.344,151.206
							C1065.632,3212.722,1100.791,3240.72,1149.072,3255.1z"/>
					</g>
					<g>
						<path style="fill:#390075;" d="M2241.443,2872.71l-55.276,54.189c-0.968,0.95-2.522,0.933-3.47-0.034
							c-0.725-0.74-0.884-1.826-0.49-2.717l31.519-70.701c3.864-8.665,14.02-12.559,22.686-8.694
							c8.666,3.862,12.56,14.019,8.696,22.686C2244.209,2869.453,2242.924,2871.25,2241.443,2872.71z"/>
					</g>
				</g>
				<g style="opacity:0.55;">
					<path style="fill:#FFFFFF;" d="M1756.436,2454.616v80.574c-21.94,53.185-47.014,85.733-75.27,97.499
						c39.154-36.308,37.707-88.096,37.707-88.096v-82.406C1731.169,2461.126,1743.706,2458.618,1756.436,2454.616z"/>
					<path style="fill:#390075;" d="M1670.068,2639.822l9.521-8.833c37.888-35.137,36.98-85.825,36.968-86.333l-0.003-84.6
						l2.119-0.181c12.17-1.05,24.641-3.564,37.065-7.471l3.015-0.947l-0.176,84.614c-22.107,53.594-47.852,86.821-76.521,98.755
						L1670.068,2639.822z M1721.193,2464.299v80.293c0.012,0.42,0.835,43.833-28.45,79.214
						c22.517-15.063,43.113-44.932,61.372-89.077v-76.978C1743.088,2461.023,1732.036,2463.22,1721.193,2464.299z"/>
				</g>
				<g>
					<path style="fill:#390075;" d="M1552.614,2595.002c-9.321,0-16.877-7.529-16.877-16.851v-0.049
						c0-9.321,7.556-16.875,16.877-16.875s16.877,7.554,16.877,16.875S1561.936,2595.002,1552.614,2595.002z"/>
				</g>
				<g style="opacity:0.25;">
					<path style="fill:#390075;" d="M2368.24,3115.555l-80.14,28.064h-94.268c-58.297-12.779-121.174-52.8-182.027-119.342
						c-0.771-0.868-1.591-1.737-2.411-2.652l-5.834-146.152c81.876,138.1,169.924,254.742,347.756,59.695
						C2351.314,2935.167,2360.573,3033.004,2368.24,3115.555z"/>
				</g>
				<g>
					<path style="fill:#390075;" d="M1756.435,2543c-9.321,0-16.877-7.554-16.877-16.875v-75.898
						c0-9.321,7.556-16.875,16.877-16.875s16.877,7.554,16.877,16.875v75.898C1773.313,2535.447,1765.756,2543,1756.435,2543z"/>
				</g>
				<g>
					<g>
						<path style="fill:#FFFFFF;" d="M3390.964,2505.599c-0.068,4.283-0.612,8.635-1.632,13.054l-145.366,621.989
							c-2.788,12.511-8.975,23.525-17.474,32.093c0,0-0.068,0.067-0.204,0.204c-0.884,0.884-1.768,1.7-2.652,2.516
							c-11.831,10.743-27.537,17.134-44.398,17.134H2344.57c-3.944,0-7.751-0.34-11.49-0.952
							c-16.862-2.924-31.344-12.17-41.135-25.021c-4.623-5.915-8.159-12.646-10.539-19.853c-3.536-10.879-4.352-22.845-1.632-35.016
							l136.392-582.349c6.187-26.381,21.281-48.886,41.679-64.525c0.068,0,0.068,0,0.068,0c2.244-1.767,4.624-3.4,7.003-4.963
							c18.018-11.83,39.503-18.562,62.28-18.562h800.875C3364.107,2441.347,3391.779,2471.195,3390.964,2505.599z"/>
					</g>
					<g>
						<path style="fill:#DBE3EE;" d="M3343.369,2504.443c0,1.292-0.136,2.38-0.408,3.468l-145.366,621.921
							c-0.884,3.875-2.516,7.003-4.896,9.383l-1.02,0.952c-1.428,1.224-2.924,2.312-4.556,3.06
							c-2.448,1.156-5.099,1.768-7.887,1.768H2344.57c-1.224,0-2.448-0.136-3.74-0.34c-4.147-0.68-8.227-3.196-11.014-6.867
							c-1.564-2.04-2.516-3.876-3.196-5.983c-1.02-2.991-1.156-6.323-0.408-9.655l136.324-581.874
							c3.196-13.938,10.947-26.449,21.825-35.627l2.991-2.38c1.156-0.952,2.448-1.767,3.74-2.584
							c1.836-1.156,3.672-2.312,5.575-3.263c9.315-4.895,19.786-7.479,30.528-7.479h800.875c5.303,0,8.839,2.448,10.879,4.555
							C3340.649,2495.264,3343.505,2499.004,3343.369,2504.443z"/>
					</g>
					<g>
						<path style="fill:#DBE3EE;" d="M3119.812,3192.588l-16.522,25.973c-21.146,33.248-57.793,53.442-97.161,53.442H1789.553
							c-46.982,0-89.205-28.557-106.747-72.139l-5.439-13.395c-7.615-18.969,6.323-39.707,26.789-39.707h577.251
							c8.567,26.177,33.112,45.826,63.164,45.826H3119.812z"/>
					</g>
					<g>
						<line style="fill:#DBE3EE;" x1="2281.473" y1="3146.762" x2="2281.405" y2="3146.762"/>
						<polygon style="fill:#390075;" points="2281.474,3149.08 2281.406,3149.08 2281.406,3144.441 						"/>
					</g>
					<g>
						<path style="fill:#390075;" d="M3179.238,3209.285H2344.57c-36.047,0-67.808-23.042-79.028-57.334
							c-4.6-14.155-5.31-29.307-2.061-43.843l136.431-582.52c13.877-59.424,66.221-100.938,127.283-100.938h800.876
							c24.441,0,47.17,10.991,62.366,30.151c15.203,19.17,20.725,43.828,15.151,67.651l-145.369,621.987
							C3251.896,3181.936,3217.822,3209.285,3179.238,3209.285z M2527.194,2458.04c-45.469,0-84.441,30.903-94.775,75.151
							l-136.394,582.363c-1.936,8.667-1.526,17.485,1.257,26.045c6.709,20.503,25.715,34.297,47.288,34.297h834.668
							c23.062,0,43.43-16.348,48.43-38.872l145.41-622.168v-0.005c3.24-13.838,0.032-28.164-8.801-39.302
							c-8.823-11.128-22.019-17.51-36.206-17.51H2527.194z"/>
					</g>
					<g style="opacity:0.25;">
						<path style="fill:#390075;" d="M2358.44,3192.588l-16.522,25.973c-21.146,33.248-57.793,53.442-97.16,53.442h-455.205
							c-46.982,0-89.205-28.557-106.747-72.139l-5.439-13.395c-0.204-0.612-0.476-1.156-0.612-1.768h636.403
							c9.247,5.032,19.922,7.887,31.412,7.887H2358.44z"/>
					</g>
					<g>
						<path style="fill:#390075;" d="M3006.13,3288.699H1789.553c-54.058,0-102.039-32.427-122.234-82.607l-5.42-13.345
							c-5.679-14.141-3.975-30.059,4.529-42.637c8.486-12.549,22.59-20.044,37.727-20.044h564.126
							c13.555,0,25.972,7.471,32.405,19.492c8.689,16.25,25.505,26.338,43.884,26.338h775.242c6.091,0,11.699,3.32,14.631,8.662
							c2.932,5.337,2.722,11.851-0.547,16.992l-16.614,26.118C3092.973,3265.881,3051.42,3288.699,3006.13,3288.699z
							 M1704.155,3163.455c-5.82,0-8.982,3.745-10.071,5.356c-1.096,1.626-3.416,5.991-1.228,11.436l5.415,13.335
							c15.1,37.52,50.923,61.729,91.282,61.729H3006.13c33.813,0,64.834-17.031,82.983-45.562l0.295-0.464H2344.57
							c-30.72,0-58.816-16.851-73.323-43.979c-0.613-1.143-1.748-1.851-2.966-1.851H1704.155z"/>
					</g>
					<g>
						<path style="fill:#390075;" d="M2244.729,3288.674c-9.219,0-16.692-7.476-16.692-16.694s7.473-16.694,16.692-16.694
							c33.87,0,64.929-17.07,83.083-45.659l16.516-26.016c4.941-7.778,15.259-10.083,23.04-5.142
							c7.783,4.941,10.085,15.259,5.144,23.042l-16.516,26.011C2331.684,3265.813,2290.087,3288.674,2244.729,3288.674z"/>
					</g>
					<g>
						
							<ellipse transform="matrix(0.4459 -0.8951 0.8951 0.4459 -918.3833 4136.4751)" style="fill:#390075;" cx="2881.628" cy="2809.969" rx="86.123" ry="59.402"/>
					</g>
					<g style="opacity:0.25;">
						<path style="fill:#390075;" d="M3187.124,3143.226c-2.448,1.156-5.099,1.768-7.887,1.768H2344.57
							c-1.224,0-2.448-0.136-3.74-0.34c-4.147-0.68-8.227-3.196-11.014-6.867c-1.564-2.04-2.516-3.876-3.196-5.983
							c-1.02-2.991-1.156-6.323-0.408-9.655l136.324-581.874c3.196-13.938,10.947-26.449,21.825-35.627l2.991-2.38
							c1.156-0.952,2.448-1.767,3.74-2.584c1.836-1.156,3.672-2.312,5.575-3.263c95.257,108.583,193.641,211.658,295.356,309.091
							c-3.332,14.958-4.079,29.984-2.04,44.059c4.012,28.285,18.97,50.79,41.135,61.805c9.723,4.895,20.33,7.343,31.48,7.343
							c13.598,0,27.265-3.603,40.183-10.334C2994.911,2991.128,3089.692,3069.455,3187.124,3143.226z"/>
					</g>
				</g>
				<g>
					<path style="fill:#390075;" d="M1749.159,2339.043c-4.63,9.456-12.71,17.026-22.983,21.643
						c-10.231,4.595-22.887,5.596-34.31,2.178c-11.516-3.254-21.139-10.784-27.511-19.634c-6.368-8.926-9.906-19.26-9.469-29.868
						c0.074-1.792,1.587-3.186,3.379-3.11c0.67,0.027,1.284,0.256,1.786,0.625l0.093,0.068c8.164,5.977,14.762,11.211,21.298,15.3
						c6.497,4.077,12.573,7.109,18.719,8.933c6.147,1.824,12.467,2.712,19.872,2.495c7.435-0.132,15.637-1.626,25.586-3.206
						l0.143-0.022c1.758-0.281,3.408,0.918,3.688,2.676C1749.556,2337.803,1749.442,2338.467,1749.159,2339.043z"/>
				</g>
				<g style="opacity:0.25;">
					<path style="fill:#262F6A;" d="M1657.49,2631.966c0,0-1.254,2.266-3.375,5.642c-28.642-1.061-60.129-20.83-94.461-59.502
						l-6.799-192.298c24.35,24.785,49.473,44.41,75.559,57.574c0.193,0.868,0.193,1.302,0.193,1.302v148.129
						C1628.125,2612.919,1640.132,2624.347,1657.49,2631.966z"/>
					<path style="fill:#390075;" d="M1655.368,2639.978l-1.338-0.054c-29.224-1.084-61.56-21.367-96.111-60.283l-0.554-0.625
						l-7.036-199.087l4.18,4.253c24.963,25.41,50.178,44.629,74.951,57.129l0.981,0.498l0.237,1.069
						c0.229,1.035,0.249,1.646,0.249,1.807v148.125c-0.405,16.875,8.33,28.623,27.495,37.031l2.324,1.021l-1.228,2.227
						c0,0-1.277,2.31-3.44,5.752L1655.368,2639.978z M1561.941,2577.185c32.93,36.924,63.511,56.445,90.925,58.047
						c0.517-0.845,0.967-1.587,1.34-2.217c-19.209-9.106-28.347-22.3-27.915-40.259l-0.002-147.856
						c-23.486-12.026-47.314-29.932-70.908-53.271L1561.941,2577.185z"/>
				</g>
				<g style="opacity:0.25;">
					<polygon style="fill:#390075;" points="1315.096,2863.08 1382.127,3038.033 1276.457,3003.475 					"/>
				</g>
				<g style="opacity:0.25;">
					<path style="fill:#262F6A;" d="M1640.903,2637.029c0,0-45.278,123.31-200.203,112.109
						c55.447-49.907,105.93-101.123,118.951-162.227L1640.903,2637.029z"/>
					<path style="fill:#390075;" d="M1460.066,2752.166c-6.321,0-12.813-0.229-19.531-0.713l-5.432-0.396l4.048-3.643
						c52.546-47.295,104.958-98.687,118.235-160.986l0.686-3.218l85.662,52.842l-0.654,1.777
						C1642.641,2639.021,1599.389,2752.166,1460.066,2752.166z M1446.345,2747.166c137.095,7.197,185.43-94.517,191.672-109.194
						l-76.814-47.378C1546.955,2651.174,1497.17,2701.179,1446.345,2747.166z"/>
				</g>
				<g style="opacity:0.25;">
					<path style="fill:#390075;" d="M3550.14,3314.186c0,53.391-660.604,96.759-1475.503,96.759s-1475.503-43.368-1475.503-96.759
						c0-15.138,53.006-29.457,147.49-42.209h2656.072C3497.18,3284.729,3550.14,3299.047,3550.14,3314.186z"/>
				</g>
				<g>
					<g>
						<path style="fill:#AC3D50;" d="M1313.86,2005.64l0.001,0.05c1.531,1.213,3.013,2.527,4.446,3.843
							c10.079,9.208,18.16,20.566,23.08,33.601c226.052,49.303,625.484-108.017,611.497-414.458c0,0,129.788,40.199,176.797,340.832
							c177.785-159.409,73.813-580.404-291.419-528.115c0,0-0.05,0.001-0.1,0.002
							C1831.114,1441.568,1360.44,1455.114,1313.86,2005.64z"/>
						<path style="fill:#390075;" d="M1429.741,2054.368c-31.108,0-61.035-2.905-88.848-8.97l-1.23-0.269l-0.444-1.177
							c-4.653-12.329-12.217-23.335-22.476-32.71c-1.396-1.284-2.837-2.559-4.321-3.735l-0.823-0.65l-0.061-1.206l0.012-0.205
							c24.182-285.806,164.59-424.387,278.12-490.315c124.414-72.251,243.43-75.933,248.435-76.052
							c155.532-22.288,284.927,42.417,345.891,173.071c59.431,127.366,37.239,278.381-52.766,359.082l-3.179,2.852l-0.659-4.219
							c-42.112-269.309-152.014-328.989-172.046-337.727c3.779,107.144-42.8,204.732-134.866,282.407
							C1717.98,2001.023,1563.046,2054.368,1429.741,2054.368z M1343.098,2041.13c145.649,31.221,349.324-24.604,474.392-130.127
							c91.948-77.576,137.966-175.166,133.079-282.222l-0.149-3.296l3.152,0.976c5.33,1.65,130.503,43.643,177.727,338.428
							c85.869-80.054,106.379-226.729,48.499-350.779c-60.056-128.704-187.622-192.415-341.206-170.422
							c-5.33,0.144-123.193,3.792-246.592,75.452c-112.42,65.283-251.426,202.51-275.73,485.52c1.233,1.016,2.439,2.09,3.608,3.169
							C1330.346,2017.395,1338.154,2028.591,1343.098,2041.13z"/>
					</g>
					<g style="opacity:0.55;">
						<path style="fill:#FFFFFF;" d="M1515.366,1570.182c95.637-78.019,305.349-140.615,459.451-92.106
							c39.873,12.532,77.691,37.17,110.104,69.892c-14.472,52.576,17.83,115.615,75.808,113.649
							c40.081,94.763,40.399,208.154-32.23,300.417c0.411,2.491,0.772,4.983,1.183,7.474
							c177.785-159.409,73.813-580.404-291.419-528.115c0,0-0.05,0.001-0.1,0.002
							C1833.913,1441.5,1661.909,1446.45,1515.366,1570.182z"/>
					</g>
					<g>
						<path style="fill:#AC3D50;" d="M1328.101,2805.839c3.289-0.53,6.577-1.061,9.864-1.641c0,0,468.354,155.338,481.11-323.881
							c-197.249,64.993-403.942-12.649-473.001-243.213c-74.135,92.05-180.384-2.298-174.744-160.504
							c3.222-60.605,34.462-88.179,69.665-92.791c6.815-122.369,31.741-218.019,67.735-292.63c0.048-0.101,0.096-0.152,0.144-0.254
							c156.422-323.409,522.048-251.003,529.288-249.529c0.05-0.001,0.1-0.002,0.1-0.002
							c-99.715-156.534-604.684-179.066-749.838,208.396l-0.05,0.001c-46.629,124.592-56.105,291.646-2.894,510.292
							c30.462,104.401,19.319,213.421-19.859,325.626C1006.011,2656.338,1149.32,2832.315,1328.101,2805.839z"/>
						<path style="fill:#390075;" d="M1499.17,2830.247c-84.436,0.005-154.336-21.436-161.367-23.667
							c-3.113,0.542-6.223,1.05-9.336,1.548l-0.027,0.005c-84.153,12.446-167.124-19.668-221.926-85.952
							c-55.444-67.061-71.55-155.747-43.079-237.236c41.941-120.122,48.425-226.177,19.819-324.214
							c-49.314-202.632-48.313-374.778,2.949-511.753l0.618-1.506c95-251.335,323.462-301.387,417.417-311.228
							c146.538-15.359,287.847,28.345,335.979,103.906l2.271,3.564l-4.79-0.046c-3.882-0.788-96.367-19.111-207.786,2.937
							c-101.045,20-238.403,78.796-318.95,245.33c-38.596,79.963-61.311,178.125-67.651,292.004l-0.107,1.924l-1.907,0.249
							c-40.21,5.264-64.868,38.291-67.651,90.61c-3.655,102.568,40.005,173.247,85.024,190.029
							c30.032,11.172,60.43,0.146,85.598-31.104l2.764-3.428l1.265,4.219c31.04,103.633,91.77,181.528,175.62,225.264
							c85.95,44.824,190.513,50.654,294.434,16.411l3.13-1.03l-0.088,3.296c-3.718,139.722-46.55,239.307-127.307,295.986
							C1634.648,2818.079,1562.783,2830.247,1499.17,2830.247z M1338.139,2801.814l0.557,0.181
							c2.114,0.708,212.729,68.848,352.742-29.438c78.848-55.347,120.969-152.573,125.225-289.019
							c-104.084,33.496-208.691,27.231-294.89-17.729c-83.867-43.74-144.885-121.113-176.663-223.916
							c-25.981,30.366-57.104,40.752-88.059,29.199c-55.186-20.571-91.387-100.581-88.037-194.575
							c4.014-75.464,48.677-91.426,69.775-94.732c6.521-113.691,29.346-211.789,67.854-291.614
							c81.523-168.508,220.291-227.91,322.368-248.115c98.594-19.512,182.583-7.642,204.292-3.911
							c-49.924-71.384-186.643-112.136-328.584-97.292c-93.284,9.773-320.378,59.517-414.124,309.751l-0.61,1.504
							c-50.381,135.847-51.138,306.553-2.251,507.427c28.855,98.896,22.349,205.874-19.924,326.938
							c-27.93,79.946-12.124,166.953,42.275,232.754c53.755,65.015,135.132,96.538,217.649,84.321
							c3.276-0.522,6.553-1.055,9.829-1.636L1338.139,2801.814z"/>
					</g>
					<g style="opacity:0.55;">
						<g>
							<path style="fill:#FFFFFF;" d="M1803.849,1431.547c-158.201-111.838-575.632-93.206-705.423,253.247l-0.05,0.001
								c-45.106,120.527-55.438,280.796-7.895,489.062c-1.526-6.274-3.178-12.535-5-18.776
								c-53.21-218.646-43.735-385.699,2.894-510.292l0.05-0.001c145.154-387.461,650.124-364.93,749.838-208.396
								c0,0-0.05,0.001-0.1,0.002C1836.883,1436.135,1824.375,1433.662,1803.849,1431.547z"/>
						</g>
						<g>
							<path style="fill:#FFFFFF;" d="M1091.132,2176.668c1.405,6.103,2.845,12.233,4.35,18.418
								c30.462,104.401,19.319,213.421-19.859,325.626c-13.896,39.775-16.756,79.837-10.72,117.561
								c-16.653-48.624-18.219-103.36,0.719-157.566C1102.108,2376.211,1114.237,2274.482,1091.132,2176.668z"/>
						</g>
					</g>
					<g>
						<path style="fill:#390075;" d="M1432.097,2067.351c-32.685,0-64.289-3.101-93.909-9.561
							c-4.963-1.084-9.041-4.604-10.837-9.355c-4.441-11.768-12.375-22.52-22.942-31.094c-3.308-2.686-5.317-6.65-5.53-10.903
							c-0.034-0.669-0.024-1.392,0.032-2.06c24.641-291.245,168.254-432.774,284.39-500.215
							c123.242-71.567,241.763-77.336,253.682-77.739c161.177-22.769,295.163,44.609,358.508,180.366
							c61.736,132.302,38.271,289.546-55.793,373.892c-4.094,3.667-9.863,4.805-15.051,2.959c-5.181-1.846-8.936-6.377-9.785-11.812
							c-33.608-214.934-110.383-292.432-146.753-317.764c-2.866,102.356-50.711,195.308-139.448,270.176
							C1722.822,2013.537,1568.193,2067.351,1432.097,2067.351z M1352.067,2030.017c141.704,27.564,336.677-26.987,457.244-128.708
							c61.938-52.258,134.526-141.858,128.589-271.948c-0.225-4.88,1.946-9.565,5.811-12.554c3.867-2.988,8.95-3.896,13.613-2.461
							c5.478,1.697,130.671,43.608,182.212,323.611c67.485-79.067,80.334-207.964,28.767-318.482
							c-27.642-59.236-114.937-193.721-327.915-163.23c-0.667,0.095-1.335,0.144-2.009,0.151
							c-9.695,0.303-122.026,5.198-240.01,73.713c-158.171,91.851-248.616,249.712-268.899,469.312
							C1338.964,2008.357,1346.63,2018.738,1352.067,2030.017z"/>
					</g>
					<g>
						<path style="fill:#390075;" d="M1509.604,2846.697c-84.014,0.005-155.41-21.411-172.817-27.075
							c-2.104,0.352-4.207,0.693-6.311,1.03c-0.059,0.01-0.117,0.015-0.178,0.024c-88.599,13.12-175.906-20.684-233.56-90.415
							c-58.298-70.513-75.225-163.784-45.278-249.497c41.04-117.544,47.458-221.064,19.619-316.479
							c-0.063-0.22-0.122-0.435-0.176-0.654c-52.488-215.649-48.535-397.302,11.755-539.917
							c50.088-118.484,139.375-207.883,258.21-258.538c206.692-88.105,443.901-35.701,510.046,68.159
							c2.942,4.619,3.132,10.474,0.498,15.276c-2.583,4.707-7.48,7.668-12.834,7.781c-1.142,0.051-2.31-0.063-3.445-0.303
							c-2.192-0.447-221.294-43.721-387.915,84.517c-115.435,88.838-179.778,238.237-191.245,444.041
							c-0.401,7.207-5.874,13.105-13.03,14.038c-34.057,4.463-54.17,32.412-56.633,78.711
							c-3.432,96.348,36.03,162.275,76.79,177.471c31.409,11.699,56.104-8.315,71.289-27.173c3.496-4.336,9.126-6.392,14.568-5.313
							c5.466,1.069,9.89,5.083,11.487,10.415c30.801,102.832,91.685,180.449,176.069,224.458
							c83.948,43.779,184.063,50.137,281.924,17.896c4.634-1.533,9.727-0.708,13.647,2.212c3.919,2.915,6.174,7.554,6.045,12.437
							c-3.804,142.886-48.181,244.663-131.897,302.505C1645.695,2834.133,1573.947,2846.697,1509.604,2846.697z M1337.961,2789.197
							c1.672,0,3.34,0.278,4.929,0.83c2.087,0.723,210.632,71.426,346.387-22.476c71.321-49.336,110.964-135.957,117.983-257.666
							c-99.026,27.485-199.341,18.452-284.622-26.025c-85.01-44.336-147.937-119.575-183.11-218.521
							c-26.372,22.29-57.051,28.779-86.909,17.637c-60.232-22.451-99.824-107.534-96.282-206.909
							c2.949-55.508,28.95-93.628,70.386-104.702c13.76-208.945,81.758-361.846,202.195-454.539
							c134.844-103.779,297.393-103.008,371.799-95.784c-82.288-72.095-278.555-100.522-448.083-28.267
							c-148.337,63.23-378.391,246.455-252.654,763.438c29.536,101.523,22.93,210.928-20.195,334.443
							c-26.453,75.718-11.47,158.14,40.076,220.488c50.886,61.538,127.876,91.372,205.947,79.868
							c3.184-0.513,6.365-1.025,9.548-1.592C1336.218,2789.27,1337.089,2789.197,1337.961,2789.197z M1328.1,2805.837h0.049H1328.1z
							"/>
					</g>
					<g style="opacity:0.55;">
						<path style="fill:#FFFFFF;" d="M1330.503,2029.644c10.08,9.258,5.964,0.455,10.884,13.49
							c226.052,49.303,625.484-108.017,611.497-414.458c-16.122,56.718-42.908,111.046-77.611,160.664
							c-52.091-13.034-103.198,42.888-79.128,92.422C1668.488,2004.582,1490.196,2073.615,1330.503,2029.644z"/>
					</g>
					<g>
						<path style="fill:#FE6DCB;" d="M1240.995,1983.809c25.13-3.315,52.349,5.174,72.864,21.831
							c46.58-550.526,517.254-564.072,524.303-564.244C1829.264,1439.562,1277.408,1330.337,1240.995,1983.809z"/>
						<path style="fill:#390075;" d="M1315.8,2010.203l-3.403-2.759c-20.371-16.548-46.951-24.522-71.099-21.333l-2.773,0.366
							l0.156-2.793c11.76-211.064,78.367-364.753,197.974-456.804c172.852-133.035,392.695-89.668,401.975-87.754l19.873,4.097
							l-20.286,0.491c-4.956,0.12-122.82,3.767-246.218,75.427c-112.578,65.374-251.817,202.881-275.83,486.697L1315.8,2010.203z
							 M1251.916,1980.784c20.796,0,42.354,7.271,60.002,20.415c25.203-282.949,164.783-420.466,277.752-486.067
							c96.106-55.811,188.987-70.706,228.586-74.651c-58.354-7.991-235.012-20.574-378.774,90.073
							c-117.969,90.789-183.909,242.407-196.016,450.64C1246.259,1980.92,1249.082,1980.784,1251.916,1980.784z"/>
					</g>
					<g style="opacity:0.55;">
						<path style="fill:#FFFFFF;" d="M1240.995,1983.809c25.13-3.315,52.349,5.174,72.864,21.831
							c46.58-550.526,517.254-564.072,524.303-564.244c-2.514-0.539-49.01-9.758-115.085-7.594
							c-141.569,34.521-396.864,151.904-430.513,549.848c-14.392-11.704-32.661-12.158-50.676-14.519
							C1241.363,1976.347,1241.414,1976.396,1240.995,1983.809z"/>
					</g>
					<g>
						<path style="fill:#390075;" d="M1313.862,2020.642c-3.389,0-6.738-1.143-9.46-3.354
							c-17.715-14.385-40.681-21.362-61.443-18.604c-4.441,0.596-8.889-0.835-12.163-3.872c-3.276-3.037-5.027-7.378-4.778-11.836
							c11.975-214.91,80.239-371.746,202.9-466.15c177.407-136.54,402.764-92.087,412.271-90.122
							c7.471,1.538,12.595,8.438,11.914,16.033c-0.681,7.598-6.953,13.472-14.578,13.657c-4.824,0.117-119.538,3.669-240.156,73.716
							c-159.958,92.888-250.652,253.306-269.561,476.797c-0.469,5.537-3.962,10.366-9.077,12.539
							C1317.841,2020.251,1315.844,2020.642,1313.862,2020.642z M1257.009,1968.24c15.054,0.752,30.271,4.78,44.287,11.675
							c30.388-274.78,169.165-410.225,282.004-475.752c44.329-25.742,88.054-42.974,126.421-54.502
							c-76.87,4.321-176.638,24.858-262.502,90.945C1334.877,1627.063,1270.925,1770.891,1257.009,1968.24z"/>
					</g>
					<g>
						
							<path style="fill:none;stroke:#390075;stroke-width:30.0041;stroke-linecap:round;stroke-linejoin:round;stroke-miterlimit:10;" d="
							M2129.688,1969.484"/>
					</g>
					<g style="opacity:0.3;">
						<path style="fill:#390075;" d="M1341.387,2043.134l56.186,6.631l-0.796,4.271l178.772-20.724
							c-84.842,5.779-127.935-32.114-140.753-101.658c-5.42-29.406-3.959-59.616,2.228-88.871
							c37.531-177.471,126.437-333.591,291.603-368.151c-293.713,55.894-365.202,284.939-418.692,528L1341.387,2043.134z"/>
					</g>
					<g style="opacity:0.3;">
						<path style="fill:#390075;" d="M1328.101,2805.839c3.289-0.53,6.577-1.061,9.864-1.641c0,0,473.176,164.982,485.932-314.237
							c-197.249,64.993-408.764-22.293-477.823-252.857c-74.135,92.05-180.384-2.298-174.744-160.504
							c3.222-60.605,34.462-88.179,69.665-92.791c6.815-122.369,31.741-218.019,67.735-292.63
							c-98.628,172.633-259.224,177.705-220.306-41.39l-0.05,0.001c-46.629,124.592-56.105,291.646-2.894,510.292
							c30.462,104.401,19.319,213.421-19.859,325.626C1006.011,2656.338,1149.32,2832.315,1328.101,2805.839z"/>
					</g>
					<g>
						<g>
							<path style="fill:#FFBF93;" d="M1315.514,2264.017c10.502-5.951,20.803-14.802,30.554-26.904
								c4.201,206.578,142.87,324.594,302.891,356.298c225.28,44.756,492.767-81.511,486.866-372.301l-6.151-251.634
								c-47.006-300.591-176.824-340.796-176.824-340.796c0.35,7.151,0.45,14.152,0.3,21.103v0.05
								c-4.85,292.49-391.003,441.46-611.783,393.303c-0.1-0.3-0.25-0.65-0.4-0.95c-5.601-14.502-15.252-26.854-27.104-36.505
								l-0.05-0.05c-20.503-16.652-47.707-25.154-72.86-21.853c-35.205,4.651-66.409,32.204-69.659,92.813
								C1166.444,2214.011,1245.954,2303.273,1315.514,2264.017z"/>
						</g>
						<g>
							<path style="fill:#390075;" d="M1738.596,2604.485c-30.061,0.005-60.293-2.881-90.088-8.799
								c-143.047-28.345-297.378-135.796-304.592-352.412c-8.521,9.688-17.669,17.329-27.258,22.759h-0.003
								c-23.655,13.354-49.875,12.681-73.826-1.875c-47.861-29.092-76.851-102.744-73.853-187.646
								c4.172-77.783,51.514-92.368,71.675-95.029c25.381-3.335,53.286,5.019,74.624,22.349
								c12.71,10.361,22.288,23.237,27.766,37.295c141.609,30.386,335.947-20.2,462.654-120.525
								c65.017-51.479,142.974-140.251,145.139-270.806c0.149-6.997,0.051-13.848-0.298-21.001l-0.164-3.306l3.164,0.979
								c1.311,0.405,131.738,44.087,178.428,342.651l6.177,251.934c2.415,118.926-40.562,218.862-124.28,289.019
								C1941.105,2571.042,1840.93,2604.485,1738.596,2604.485z M1348.256,2230.701l0.129,6.362
								c4.431,217.964,158.406,325.815,301.026,354.072c129.885,25.811,268.398-6.611,361.472-84.619
								c82.605-69.219,125.007-167.896,122.625-285.356l-6.15-251.626c-42.078-268.943-151.968-328.63-172.036-337.385
								c0.225,5.986,0.273,11.804,0.146,17.685c-1.736,104.812-52.532,199.685-146.894,274.402
								c-128.054,101.392-324.761,152.334-467.7,121.167l-1.287-0.283l-0.417-1.245c-0.068-0.2-0.169-0.434-0.271-0.635
								c-5.266-13.613-14.397-25.903-26.499-35.762c-20.413-16.582-46.995-24.575-71.142-21.396
								c-40.186,5.303-64.844,38.34-67.649,90.635c-3.34,94.629,33.569,160.342,71.629,183.477
								c22.781,13.853,46.687,14.473,69.136,1.807l0,0c10.583-5.996,20.64-14.858,29.893-26.343L1348.256,2230.701z"/>
						</g>
					</g>
					<g style="opacity:0.55;">
						<path style="fill:#FFFFFF;" d="M1721.269,2601.863c206.328,7.801,419.857-120.616,414.556-380.752l-6.151-251.634
							c-47.006-300.591-176.824-340.796-176.824-340.796c0.35,7.601,8.576,9.451,8.426,16.852
							c42.056,34.805,101.089,125.417,132.143,323.944l6.151,251.634C2104.521,2465.995,1915.595,2594.212,1721.269,2601.863z"/>
					</g>
					<g>
						<path style="fill:#390075;" d="M1738.728,2617.224c-103.193,0.005-199.792-32.188-272.998-91.172
							c-77.651-62.559-123.181-150.41-132.837-255.532c-24.819,18.052-52.917,22.646-80.293,12.446
							c-60.234-22.451-99.827-107.539-96.284-206.909c3.232-60.825,34.148-100.776,82.71-107.134
							c28.753-3.804,60.264,5.571,84.268,25.059c0.291,0.234,0.571,0.479,0.84,0.732c11.968,9.907,21.494,21.977,27.915,35.293
							c141.697,27.583,336.682-26.992,457.244-128.713c61.936-52.258,134.524-141.858,128.587-271.948
							c-0.225-4.88,1.946-9.565,5.81-12.554c3.865-2.986,8.936-3.904,13.613-2.461c5.664,1.755,139.277,46.492,187.18,352.844
							c0.1,0.649,0.159,1.299,0.176,1.953l6.145,251.611c2.434,119.868-40.042,221.484-122.83,293.916
							c-73.042,63.906-172.175,100.298-279.141,102.466C1745.463,2617.19,1742.084,2617.224,1738.728,2617.224z M1346.054,2222.087
							c1.619,0,3.252,0.264,4.844,0.806c5.967,2.036,10.024,7.588,10.154,13.896c4.993,246.001,204.268,353.887,387.17,350.337
							c182.949-3.716,377.576-119.741,372.583-365.718l-6.118-250.562c-33.689-214.18-110.288-291.504-146.602-316.797
							c-2.866,102.356-50.708,195.308-139.446,270.176c-131.257,110.742-337.532,166.914-490.469,133.555
							c-4.963-1.084-9.043-4.604-10.837-9.355c-4.448-11.772-12.383-22.525-22.947-31.099c-0.254-0.205-0.498-0.42-0.735-0.64
							c-17.622-13.994-40.254-20.742-60.715-18.017c-34.072,4.463-54.185,32.417-56.648,78.716
							c-3.433,96.348,36.03,162.275,76.792,177.466c31.394,11.714,56.099-8.315,71.287-27.168
							C1337.27,2224.08,1341.599,2222.087,1346.054,2222.087z"/>
					</g>
					<g>
						<g>
							<path style="fill:#390075;" d="M1937.862,2353.636c-73.016,14.289-146.643,3.582-220.88-32.122
								C1735.155,2485.309,1873.1,2466.933,1937.862,2353.636z"/>
						</g>
						<g>
							<path style="fill:#ED197C;" d="M1753.884,2415.837c14.396-16.479,78.387-7.725,83.758,22.532
								C1805.364,2445.612,1776.888,2439.985,1753.884,2415.837z"/>
							<path style="fill:#390075;" d="M1812.487,2443.669c-23.691,0-43.562-8.682-60.281-26.235l-1.46-1.528l1.392-1.592
								c9.309-10.659,34.226-10.874,52.954-5.669c19.805,5.508,32.5,16.196,34.832,29.321l0.388,2.183l-2.163,0.483
								C1829.13,2442.659,1820.585,2443.669,1812.487,2443.669z M1757.172,2415.891c20.461,20.479,45.916,27.251,77.676,20.713
								c-3.013-10.322-14.148-18.809-30.999-23.491C1785.412,2407.986,1765.319,2409.309,1757.172,2415.891z"/>
						</g>
						<g>
							<path style="fill:#FFFFFF;" d="M1740.411,2331.945c36.321,80.651,144.474,71.34,172.607,25.569
								C1913.017,2357.514,1816.372,2376.94,1740.411,2331.945z"/>
							<path style="fill:#390075;" d="M1836.835,2394.661c-2.624,0-5.266-0.083-7.922-0.254
								c-41.172-2.637-74.202-25.059-90.618-61.509l-3.008-6.68l6.304,3.735c74.294,44.009,170.015,25.483,170.969,25.288
								l5.217-1.05l-2.786,4.536C1901.469,2380.725,1870.7,2394.661,1836.835,2394.661z M1745.8,2337.649
								c16.572,30.898,46.58,49.771,83.408,52.129c32.344,2.075,63.723-9.727,78.777-29.077
								C1887.026,2363.84,1810.073,2372.156,1745.8,2337.649z"/>
						</g>
						<g>
							<path style="fill:#390075;" d="M1813.669,2454.094c-6.721,0-13.391-0.664-19.951-2.021
								c-48.674-10.093-81.172-57.173-89.16-129.18c-0.503-4.517,1.487-8.95,5.195-11.577c3.711-2.632,8.552-3.042,12.646-1.064
								c71.414,34.336,143.098,44.819,213.059,31.113c4.8-0.938,9.707,1.006,12.559,4.98c2.852,3.975,3.125,9.248,0.698,13.496
								C1915.261,2418.367,1863.005,2454.094,1813.669,2454.094z M1732.846,2342.351c9.834,48.398,32.825,78.369,65.947,85.239
								c37.122,7.69,81.091-15.347,113.132-57.368C1852.697,2376.702,1792.658,2367.366,1732.846,2342.351z"/>
						</g>
					</g>
					<g>
						<path style="fill:#390075;" d="M1962.667,2038.977c6.802-11.921,17.062-20.667,28.796-27.317
							c11.785-6.506,25.526-10.432,39.706-10.574c3.546,0.178,7.094-0.195,10.62,0.547c3.519,0.615,7.043,1.15,10.503,1.909
							c6.733,2.349,13.529,4.478,19.319,8.499c1.503,0.879,2.944,1.863,4.393,2.793l2.153,1.414l1.924,1.733
							c2.559,2.302,5.006,4.685,7.355,7.08c2.452,2.283,4.205,5.266,6.039,8.064c1.798,2.832,3.5,5.664,4.905,8.665
							c0.623,1.331,0.049,2.915-1.282,3.538c-0.591,0.276-1.232,0.317-1.816,0.161l-0.375-0.103
							c-6.486-1.743-11.697-4.478-17.268-6.184c-2.778-0.842-5.46-1.697-8.03-2.632c-2.5-1.113-5.328-1.267-7.847-2.021
							c-5.034-1.636-10.244-1.86-15.134-2.932c-5.088-0.134-9.989-0.906-15.067-0.542c-10.06,0.181-20.394,1.426-31.228,3.623
							c-10.825,2.183-22.12,5.139-34.463,8.12l-0.266,0.066c-1.429,0.344-2.866-0.535-3.212-1.963
							C1962.227,2040.237,1962.345,2039.546,1962.667,2038.977z"/>
					</g>
					<g>
						
							<ellipse transform="matrix(0.9981 -0.061 0.061 0.9981 -127.0435 127.3714)" style="fill:#390075;" cx="2023.907" cy="2145.739" rx="54.868" ry="74.15"/>
					</g>
					<g>
						
							<ellipse transform="matrix(0.9981 -0.061 0.061 0.9981 -125.5947 128.0327)" style="fill:#FFFFFF;" cx="2035.794" cy="2122.646" rx="19.242" ry="22.744"/>
						<path style="fill:#390075;" d="M2036.157,2147.883c-5.452,0-10.657-2.324-14.771-6.626c-4.297-4.492-6.887-10.63-7.293-17.285
							l0,0c-0.85-13.892,8.196-25.791,20.161-26.523c12.063-0.767,22.393,9.985,23.242,23.872
							c0.847,13.892-8.198,25.791-20.161,26.523C2036.941,2147.869,2036.547,2147.883,2036.157,2147.883z M2035.41,2102.415
							c-0.281,0-0.564,0.01-0.85,0.024c-9.214,0.566-16.157,10.088-15.476,21.23l0,0c0.334,5.474,2.437,10.493,5.918,14.131
							c3.374,3.525,7.644,5.278,12.026,5.054c9.214-0.566,16.157-10.088,15.478-21.23
							C2051.845,2110.833,2044.265,2102.415,2035.41,2102.415z"/>
					</g>
					<g>
						
							<ellipse transform="matrix(0.9999 -0.0129 0.0129 0.9999 -27.9166 22.8034)" style="fill:#390075;" cx="1747.418" cy="2167.73" rx="54.868" ry="74.15"/>
					</g>
					<g>
						<path style="fill:#390075;" d="M1804.578,2051.343c-12.34-2.534-23.168-5.107-33.391-6.458
							c-10.195-1.431-19.529-1.785-28.683-0.64c-4.584,0.574-9.146,1.57-13.707,3.125c-4.594,1.445-9.23,3.354-13.904,5.713
							c-9.414,4.629-18.922,10.842-29.553,17.515l-0.022,0.015c-1.256,0.789-2.913,0.408-3.7-0.847
							c-0.409-0.649-0.502-1.416-0.323-2.104c3.264-12.49,9.991-23.906,19.586-33.45c9.47-9.568,22.563-16.836,36.843-19.36
							c14.252-2.715,29.144-0.496,41.434,5.437c12.257,6.074,22.659,14.895,28.711,27.29c0.654,1.34,0.098,2.957-1.243,3.611
							c-0.557,0.273-1.162,0.337-1.727,0.22L1804.578,2051.343z"/>
					</g>
					<g>
						
							<ellipse transform="matrix(0.9981 -0.061 0.061 0.9981 -127.7267 111.2621)" style="fill:#FFFFFF;" cx="1759.834" cy="2149.199" rx="19.242" ry="22.744"/>
						<path style="fill:#390075;" d="M1760.195,2174.436c-5.452,0-10.657-2.324-14.768-6.626c-4.297-4.492-6.89-10.63-7.295-17.285
							l0,0c-0.847-13.892,8.198-25.791,20.161-26.523c12.044-0.713,22.393,9.98,23.242,23.872s-8.196,25.791-20.161,26.523
							C1760.979,2174.421,1760.585,2174.436,1760.195,2174.436z M1743.122,2150.222c0.334,5.474,2.437,10.493,5.918,14.131
							c3.372,3.525,7.642,5.249,12.026,5.054c9.216-0.566,16.16-10.088,15.479-21.23c-0.681-11.133-8.694-19.663-17.947-19.185
							C1749.387,2129.558,1742.443,2139.08,1743.122,2150.222L1743.122,2150.222z"/>
					</g>
					<g style="opacity:0.3;">
						<path style="fill:#390075;" d="M1180.328,2085.854c0,0,18.435,104.383,96.194,113.464
							c33.966,3.967,63.52-22.429,65.543-56.566c1.627-27.469-1.459-58.224-11.549-93.863l10.452-6.7c0.15,0.299,0.3,0.65,0.4,0.95
							c220.78,48.156,606.932-100.814,611.782-393.304c23.281,233.761-86.346,383.637-384.07,435.977
							c-85.204,14.979-139.551,100.051-116.826,183.523c39.523,145.173,120.352,264.171,295.169,330.778
							c0,0-44.207-3.001-98.464-6.7c-160.022-31.705-298.69-149.721-302.89-356.298c-9.751,12.101-20.053,20.953-30.555,26.903
							c-0.556-1.281-1.058-2.444-1.537-3.55c-1.442,1.785-2.01,2.911-1.13,2.911c5.001,0-45.006,11.63-45.006,11.63
							s-49.636-29.773-47.321-33.203C1222.834,2238.374,1147.823,2198.369,1180.328,2085.854z"/>
					</g>
				</g>
			</g>
		</g>
		<g style="opacity:0.5;">
			<path style="fill:#FFFFFF;" d="M2654.575,2043.255c-1.281,21.986-29.233,30.763-42.444,13.142
				c-13.04-17.394-23.744-44.087-22.742-84.648c2.459-99.595,82.996-61.715,31.354-208.034
				C2590.184,1677.131,2666.45,1635,2666.45,1635s-8.998,69.797,11.15,112.045c29.499,61.856,75.015,117.578,26.369,165.07
				C2667.05,1948.158,2656.847,2004.278,2654.575,2043.255z"/>
		</g>
	</g>
</g>
</svg>
