<?xml version="1.0" encoding="utf-8"?>
<!-- Generator: Adobe Illustrator 27.5.0, SVG Export Plug-In . SVG Version: 6.00 Build 0)  -->
<svg version="1.1" id="Layer_1" xmlns="http://www.w3.org/2000/svg" xmlns:xlink="http://www.w3.org/1999/xlink" x="0px" y="0px"
	 viewBox="0 0 4000 4000" style="enable-background:new 0 0 4000 4000;" xml:space="preserve">
<g>
	<rect style="fill:none;" width="4000" height="4000"/>
	<g>
		<g>
			<g>
				<path style="fill:#9D91FF;" d="M3309.539,2212.722c0-759.264-615.505-1374.769-1374.768-1374.769
					C1175.505,837.953,560,1453.458,560,2212.722c0,352.617,132.813,674.175,351.069,917.524h2047.4
					C3176.726,2886.897,3309.539,2565.339,3309.539,2212.722z"/>
			</g>
		</g>
		<g style="opacity:0.3;">
			<ellipse style="fill:#4D0D4F;" cx="2027.5" cy="3179.846" rx="1522.5" ry="80.154"/>
		</g>
		<g>
			<path style="fill:#D6671D;" d="M3142.434,3128.259H1205.172c-39.202,0-70.981-31.779-70.981-70.981v0
				c0-39.202,31.779-70.981,70.981-70.981h1937.261c39.202,0,70.981,31.779,70.981,70.981v0
				C3213.415,3096.48,3181.635,3128.259,3142.434,3128.259z"/>
		</g>
		<g>
			<rect x="1158.429" y="2456.537" style="fill:#474651;" width="1155.415" height="600.741"/>
		</g>
		<g>
			<path style="fill:#D6671D;" d="M2312.26,3128.259H1205.172c-39.202,0-70.981-31.779-70.981-70.981v0
				c0-39.202,31.779-70.981,70.981-70.981H2312.26c39.202,0,70.981,31.779,70.981,70.981v0
				C2383.241,3096.48,2351.462,3128.259,2312.26,3128.259z"/>
		</g>
		<g style="opacity:0.3;">
			<path style="fill:#4D0D4F;" d="M2312.26,3128.259H1205.172c-39.202,0-70.981-31.779-70.981-70.981v0
				c0-39.202,31.779-70.981,70.981-70.981H2312.26c39.202,0,70.981,31.779,70.981,70.981v0
				C2383.241,3096.48,2351.462,3128.259,2312.26,3128.259z"/>
		</g>
		<g style="opacity:0.33;">
			<path style="fill:#FFFFFF;" d="M3142.434,2986.297H1205.173c-33.164,0-60.933,22.775-68.728,53.515
				c10.034-5.428,21.519-8.515,33.728-8.515h1937.261c39.202,0,70.981,31.779,70.981,70.981l0,0c0,6.039-0.837,11.869-2.256,17.466
				c22.185-12.002,37.256-35.472,37.256-62.466l0,0C3213.416,3018.076,3181.636,2986.297,3142.434,2986.297z"/>
		</g>
		<g>
			<path style="fill:#4D0D4F;" d="M2312.262,3149.033h-1107.09c-50.596,0-91.755-41.159-91.755-91.755s41.16-91.755,91.755-91.755
				h1107.09c50.593,0,91.753,41.16,91.753,91.755S2362.855,3149.033,2312.262,3149.033z M1205.172,3007.07
				c-27.683,0-50.208,22.524-50.208,50.208c0,27.683,22.524,50.208,50.208,50.208h1107.09c27.683,0,50.205-22.524,50.205-50.208
				c0-27.683-22.522-50.208-50.205-50.208H1205.172z"/>
		</g>
		<g>
			<path style="fill:#62616D;" d="M1450.149,2634.787c-2.394-1.354-4.836-2.654-7.325-3.902
				c-4.29-20.539-16.341-42.183-38.559-64.594c-85.94-86.683-139.276-187.768-139.276-187.768
				c-83.1-25.969-402.603,93.595-492.628,341.163c-90.024,247.568,13.85,342.786,273.537,294.311
				C1305.585,2965.522,1603.358,2721.417,1450.149,2634.787z"/>
		</g>
		<g>
			<path style="fill:#62616D;" d="M1450.149,2634.787c-2.394-1.354-4.836-2.654-7.325-3.902
				c-4.29-20.539-16.341-42.183-38.559-64.594c-85.94-86.683-139.276-187.768-139.276-187.768
				c-83.1-25.969-402.603,93.595-492.628,341.163c-90.024,247.568,13.85,342.786,273.537,294.311
				C1305.585,2965.522,1603.358,2721.417,1450.149,2634.787z"/>
		</g>
		<g style="opacity:0.6;">
			<path style="fill:#FFFFFF;" d="M816.023,2759.779c71.562-196.792,256.475-330.327,411.734-395.271
				c-110.135-0.791-383.731,118.517-465.952,344.621c-47.648,131.031-40.948,219.358,14.391,266.317
				C771.724,2917.87,784.642,2846.079,816.023,2759.779z"/>
		</g>
		<g>
			<path style="fill:#4D0D4F;" d="M945.925,2677.209c44.055-23.354,90.483-41.094,137.959-55.906
				c47.505-14.701,96.357-25.722,146.316-31.791c49.89-5.936,101.038-8.423,152.905,0.153c25.828,4.422,51.98,11.852,76.533,25.134
				c12.498,6.646,24.91,15.884,35.164,28.238c4.976,6.313,9.575,13.243,12.764,20.99c3.196,7.674,5.503,15.825,6.372,23.956
				c1.848,16.292-0.637,31.935-5.078,45.769c-4.409,13.954-10.593,26.563-17.595,38.218c-14.055,23.319-31.069,43.345-49.104,61.843
				c-36.343,36.722-77.188,67.15-119.895,94.119c-42.813,26.837-87.813,49.92-134.607,69.06c-46.741,19.052-95.649,34.24-145.947,43
				c-24.814,4.501-50.007,7.838-75.562,9.669c-25.549,1.809-51.506,2.128-77.827-0.499c-26.25-2.747-53.123-8.118-78.958-19.814
				c-6.389-3.142-12.832-6.082-18.921-10.083c-6.274-3.537-12.056-8.093-17.873-12.53c-11.162-9.53-21.636-20.344-29.585-32.886
				c-7.93-12.423-14.473-25.796-18.44-39.532c-2.434-6.825-3.613-13.739-5.217-20.635c-1.211-6.881-2.131-13.79-2.815-20.643
				c-2.261-27.427,0.037-54.058,4.431-79.733c4.497-25.669,10.942-50.593,18.867-74.749c1.848-6.108,4.099-12.01,6.133-18.024
				l3.13-8.979l3.606-9.064c2.483-6.012,4.697-12.152,7.424-18.049l8.313-17.63c11.77-23.127,25.059-45.438,40.256-66.288
				c15.298-20.757,31.953-40.373,49.709-58.831c17.969-18.238,36.953-35.34,56.775-51.32c19.846-15.956,40.696-30.522,62.092-44.145
				c21.399-13.627,43.547-26.02,66.321-37.167c22.759-11.177,46.101-21.202,70.088-29.79c24.001-8.568,48.662-15.577,74.265-20.374
				c6.331-1.346,12.969-2.032,19.436-3.059c6.692-0.571,13.169-1.53,20.093-1.605c13.633-0.487,27.637-0.402,43.733,4.46
				c10.981,3.317,17.195,14.909,13.879,25.891c-3.301,10.925-14.788,17.131-25.718,13.931l-0.554-0.162
				c-7.527-2.206-18.491-2.646-29.275-1.865c-5.361,0.117-11.042,1.115-16.565,1.665c-5.627,1.046-11.216,1.683-16.87,3.024
				c-22.576,4.66-45.11,11.685-67.234,19.871c-44.226,16.578-87.002,38.132-126.719,64.056c-19.851,12.97-39.15,26.78-57.397,41.807
				c-18.22,15.048-35.561,31.052-51.868,47.972c-16.079,17.122-31.025,35.171-44.648,54.086
				c-13.474,19.02-25.383,38.984-35.764,59.65l-7.322,15.703c-2.41,5.246-4.309,10.695-6.501,16.026l-3.181,8.048l-2.888,8.418
				c-1.868,5.621-3.984,11.2-5.654,16.853c-7.295,22.51-13.013,45.287-16.89,67.979c-3.806,22.667-5.488,45.358-3.616,66.895
				c0.564,5.338,1.326,10.616,2.2,15.811c1.24,5.037,2.017,10.294,3.799,15.03c2.773,9.897,7.31,18.729,12.468,26.986
				c5.163,8.295,12.065,15.198,19.436,21.655c3.989,2.939,7.778,6.107,12.258,8.56c4.148,2.825,8.931,4.91,13.528,7.24
				c18.943,8.654,40.828,13.31,63.281,15.646c22.534,2.281,45.845,2.084,69.236,0.441c23.408-1.652,46.965-4.721,70.452-8.966
				c46.514-7.8,92.034-21.569,136.279-39.271c44.192-17.744,87.014-39.365,127.546-64.421
				c40.449-25.08,78.855-53.714,111.995-86.462c16.416-16.401,31.497-33.982,43.01-52.629c11.489-18.446,18.96-38.719,17.19-55.079
				c-0.874-8.142-3.826-15.289-9.072-21.961c-5.386-6.579-12.732-12.678-21.851-17.6c-18.577-10.352-40.139-17.017-62.566-21.1
				c-45.09-8.09-93.167-6.669-140.62-1.512c-95.291,10.714-190.205,32.596-286.46,53.127l-0.098,0.02
				c-1.985,0.424-3.938-0.843-4.36-2.828C943.701,2679.581,944.512,2677.959,945.925,2677.209z"/>
		</g>
		<g>
			<g>
				<path style="fill:#62616D;" d="M1967.785,2800.621c0,0-593.816-3.03-728.853-499.031s197.362-762.612,405.111-727.987
					c207.749,34.625,615.439,140.231,699.846,469.167C2428.296,2371.706,2407.954,2781.145,1967.785,2800.621z"/>
			</g>
			<g style="opacity:0.33;">
				<path style="fill:#FFFFFF;" d="M2343.889,2042.77c-84.407-328.936-492.097-434.542-699.846-469.167
					c-83.765-13.961-187.762,21.114-273.24,100.397c77.413-52.446,162.304-74.062,233.374-62.217
					c48.215,8.036,106.648,19.703,169.407,36.704c-12.833,6.385-21.24,15.286-22.941,26.078
					c-4.391,27.862,37.211,57.566,92.921,66.345c53.499,8.431,100.435-5.535,107.975-31.329
					c173.09,74.104,339.035,195.996,390.594,396.916c21.386,83.342,36.355,171.577,40.377,257.838
					C2386.768,2259.021,2370.602,2146.872,2343.889,2042.77z"/>
			</g>
			<g>
				<path style="fill:#4D0D4F;" d="M1967.782,2821.394c-0.034,0-0.068,0-0.103,0c-6.216-0.032-154.131-1.504-321.055-64.866
					c-222.798-84.57-370.706-239.997-427.739-449.482c-35.649-130.942-41.655-254.045-17.849-365.884
					c20.601-96.792,64.119-184.041,125.845-252.314c90.286-99.866,216.106-153.147,320.576-135.737
					c231.06,38.511,631.404,152.659,716.555,484.495c59.929,233.54,26.592,479.932-84.929,627.707
					c-74.463,98.67-181.917,152.639-310.745,156.074C1968.153,2821.392,1967.967,2821.394,1967.782,2821.394z M1606.505,1591.34
					c-83.418,0-177.673,46.697-248.804,125.371c-125.269,138.557-161.252,349.749-98.723,579.421
					c54.158,198.926,189.541,340.757,402.39,421.55c156.555,59.424,298.867,62.066,306.233,62.158
					c117.227-3.218,210.859-50.171,278.315-139.558c104.199-138.073,134.756-370.586,77.852-592.351
					c-79.302-309.031-462.048-416.99-683.142-453.835C1629.527,1592.246,1618.116,1591.34,1606.505,1591.34z"/>
			</g>
		</g>
		<g>
			<path style="fill:#FCD8C5;" d="M1788.252,2039.414c-108.309,40.592-184.884,136.98-199.126,251.766
				c-9.636,77.664-5.632,172.289,41.933,257.113c103.875,185.243,538.418,154.885,623.68,38.087
				c94.785-129.843,86.129-424.154-19.477-510.717C2154.217,2009.233,1967.134,1972.372,1788.252,2039.414z"/>
		</g>
		<g>
			<path style="fill:#FCD8C5;" d="M1788.252,2039.414c-108.309,40.592-184.884,136.98-199.126,251.766
				c-9.636,77.664-5.632,172.289,41.933,257.113c103.875,185.243,538.418,154.885,623.68,38.087
				c94.785-129.843,86.129-424.154-19.477-510.717C2154.217,2009.233,1967.134,1972.372,1788.252,2039.414z"/>
		</g>
		<defs>
			<filter id="Adobe_OpacityMaskFilter" filterUnits="userSpaceOnUse" x="1736.137" y="1875.84" width="1463.545" height="999.657">
				<feFlood  style="flood-color:white;flood-opacity:1" result="back"/>
				<feBlend  in="SourceGraphic" in2="back" mode="normal"/>
			</filter>
		</defs>
		<mask maskUnits="userSpaceOnUse" x="1736.137" y="1875.84" width="1463.545" height="999.657" id="SVGID_1_">
			<g style="filter:url(#Adobe_OpacityMaskFilter);">
				<defs>
					
						<filter id="Adobe_OpacityMaskFilter_00000125591162051705125550000016538106263747665798_" filterUnits="userSpaceOnUse" x="1736.137" y="1875.84" width="1463.545" height="999.657">
						<feFlood  style="flood-color:white;flood-opacity:1" result="back"/>
						<feBlend  in="SourceGraphic" in2="back" mode="normal"/>
					</filter>
				</defs>
				<mask maskUnits="userSpaceOnUse" x="1736.137" y="1875.84" width="1463.545" height="999.657" id="SVGID_1_">
					<g style="filter:url(#Adobe_OpacityMaskFilter_00000125591162051705125550000016538106263747665798_);">
					</g>
				</mask>
				
					<radialGradient id="SVGID_00000159471656157323547510000001028571325049397914_" cx="2552.0791" cy="2679.8674" r="721.6519" gradientUnits="userSpaceOnUse">
					<stop  offset="0" style="stop-color:#FFFFFF"/>
					<stop  offset="0.1504" style="stop-color:#FCFCFC"/>
					<stop  offset="0.2793" style="stop-color:#F1F1F1"/>
					<stop  offset="0.4003" style="stop-color:#DFDFDF"/>
					<stop  offset="0.5166" style="stop-color:#C6C6C6"/>
					<stop  offset="0.6294" style="stop-color:#A6A6A6"/>
					<stop  offset="0.7397" style="stop-color:#7F7F7F"/>
					<stop  offset="0.8479" style="stop-color:#505050"/>
					<stop  offset="0.9518" style="stop-color:#1B1B1B"/>
					<stop  offset="1" style="stop-color:#000000"/>
				</radialGradient>
				<path style="mask:url(#SVGID_1_);fill:url(#SVGID_00000159471656157323547510000001028571325049397914_);" d="
					M2580.211,2279.084h619.47c-132.958-240.42-389.073-403.244-683.256-403.244c-430.941,0-780.289,349.348-780.289,780.29
					c0,76.171,10.962,149.773,31.312,219.367h343.547L2580.211,2279.084z"/>
			</g>
		</mask>
		
			<radialGradient id="SVGID_00000150097110404350574220000014816535751460390071_" cx="2552.0791" cy="2679.8674" r="721.6519" gradientUnits="userSpaceOnUse">
			<stop  offset="0" style="stop-color:#0BA4C8"/>
			<stop  offset="0.1533" style="stop-color:#0EA5C9"/>
			<stop  offset="0.2847" style="stop-color:#19A9CB"/>
			<stop  offset="0.4081" style="stop-color:#2BB0CF"/>
			<stop  offset="0.5266" style="stop-color:#44B9D5"/>
			<stop  offset="0.6416" style="stop-color:#64C5DC"/>
			<stop  offset="0.754" style="stop-color:#8BD4E5"/>
			<stop  offset="0.8643" style="stop-color:#BAE5EF"/>
			<stop  offset="0.9703" style="stop-color:#EFF9FB"/>
			<stop  offset="1" style="stop-color:#FFFFFF"/>
		</radialGradient>
		<path style="fill:url(#SVGID_00000150097110404350574220000014816535751460390071_);" d="M2580.211,2279.084h619.47
			c-132.958-240.42-389.073-403.244-683.256-403.244c-430.941,0-780.289,349.348-780.289,780.29
			c0,76.171,10.962,149.773,31.312,219.367h343.547L2580.211,2279.084z"/>
		<defs>
			
				<filter id="Adobe_OpacityMaskFilter_00000078042716083586322370000013221861487648426675_" filterUnits="userSpaceOnUse" x="1210" y="1720" width="2230" height="1170">
				<feFlood  style="flood-color:white;flood-opacity:1" result="back"/>
				<feBlend  in="SourceGraphic" in2="back" mode="normal"/>
			</filter>
		</defs>
		
			<mask maskUnits="userSpaceOnUse" x="1210" y="1720" width="2230" height="1170" id="SVGID_00000176724669204285427870000018049404402495267476_">
			<g style="filter:url(#Adobe_OpacityMaskFilter_00000078042716083586322370000013221861487648426675_);">
				<defs>
					
						<filter id="Adobe_OpacityMaskFilter_00000005227899316318944770000005924757185385310350_" filterUnits="userSpaceOnUse" x="1210" y="1720" width="2230" height="1170">
						<feFlood  style="flood-color:white;flood-opacity:1" result="back"/>
						<feBlend  in="SourceGraphic" in2="back" mode="normal"/>
					</filter>
				</defs>
				
					<mask maskUnits="userSpaceOnUse" x="1210" y="1720" width="2230" height="1170" id="SVGID_00000176724669204285427870000018049404402495267476_">
					<g style="filter:url(#Adobe_OpacityMaskFilter_00000005227899316318944770000005924757185385310350_);">
					</g>
				</mask>
				
					<linearGradient id="SVGID_00000034069373271006336670000012679982200490931616_" gradientUnits="userSpaceOnUse" x1="2350.3779" y1="1893.6346" x2="2350.3779" y2="2995.5042" gradientTransform="matrix(1.0017 0.0109 0.0109 1.0676 -53.0426 -328.8742)">
					<stop  offset="0" style="stop-color:#000000"/>
					<stop  offset="0.0299" style="stop-color:#0B0B0B"/>
					<stop  offset="0.2424" style="stop-color:#545454"/>
					<stop  offset="0.4423" style="stop-color:#919191"/>
					<stop  offset="0.6235" style="stop-color:#C0C0C0"/>
					<stop  offset="0.7827" style="stop-color:#E3E3E3"/>
					<stop  offset="0.9135" style="stop-color:#F7F7F7"/>
					<stop  offset="1" style="stop-color:#FFFFFF"/>
				</linearGradient>
				
					<polygon style="mask:url(#SVGID_00000176724669204285427870000018049404402495267476_);fill:url(#SVGID_00000034069373271006336670000012679982200490931616_);" points="
					3440,2280 2470,1720 1210,1750 1735,2888.227 3070,2890 				"/>
			</g>
		</mask>
		
			<linearGradient id="SVGID_00000071557684319134486850000012465628228412054952_" gradientUnits="userSpaceOnUse" x1="2350.3779" y1="1893.6346" x2="2350.3779" y2="2995.5042" gradientTransform="matrix(1.0017 0.0109 0.0109 1.0676 -53.0426 -328.8742)">
			<stop  offset="0" style="stop-color:#FFFFFF"/>
			<stop  offset="0.0941" style="stop-color:#FFFCE5"/>
			<stop  offset="0.3308" style="stop-color:#FFF6A9"/>
			<stop  offset="0.5482" style="stop-color:#FFF17A"/>
			<stop  offset="0.7391" style="stop-color:#FFEE57"/>
			<stop  offset="0.8962" style="stop-color:#FFEC43"/>
			<stop  offset="1" style="stop-color:#FFEB3B"/>
		</linearGradient>
		<polygon style="opacity:0.7;fill:url(#SVGID_00000071557684319134486850000012465628228412054952_);" points="3440,2280 
			2470,1720 1210,1750 1735,2888.227 3070,2890 		"/>
		<g style="opacity:0.6;">
			<path style="fill:#FFFFFF;" d="M2235.262,2075.663c-55.995-45.897-162.615-77.656-282.168-70.808
				c92.398,5.413,171.576,33.428,217.178,70.808c105.607,86.562,114.262,380.874,19.476,510.717
				c-38.552,52.812-148.515,87.944-267.03,93.47c141.245,6.634,286.472-31.075,332.02-93.47
				C2349.524,2456.537,2340.868,2162.225,2235.262,2075.663z"/>
		</g>
		<g style="opacity:0.3;">
			<path style="fill:#4D0D4F;" d="M1769.223,2527.229c-39.557-64.426-42.886-136.296-34.873-195.284
				c11.844-87.183,75.527-160.392,165.6-191.223c148.764-50.92,304.349-22.923,371.749,27.532
				c13.352,9.995,24.812,23.677,34.417,39.972c-13.803-57.099-37.482-105.209-70.853-132.563
				c-81.045-66.43-268.129-103.292-447.011-36.25c-108.309,40.593-184.885,136.981-199.126,251.766
				c-9.636,77.664-5.632,172.289,41.933,257.113c103.875,185.243,538.417,154.885,623.68,38.087c1.435-1.965,2.843-3.972,4.23-6.011
				C2148.387,2647.812,1847.094,2654.059,1769.223,2527.229z"/>
		</g>
		<g>
			<path style="fill:#4D0D4F;" d="M2291.326,2577.291c104.006-63.953-178.776,171.826-308.231,171.826
				c-107.955,0-204.989-47.626-271.952-123.375C1711.144,2625.742,1968.248,2775.952,2291.326,2577.291z"/>
		</g>
		<g>
			<path style="fill:#4D0D4F;" d="M1954.249,2701.362c-14.009,0.003-27.822-0.405-41.348-1.213
				c-145.002-8.677-254.333-60.322-299.963-141.694c-42.332-75.493-57.28-166.277-44.431-269.834
				c15.176-122.29,96.582-225.234,212.454-268.66l0,0c186.812-70.02,380.281-31.833,467.471,39.636
				c53.882,44.165,88.452,139.294,92.478,254.468c3.958,113.242-21.982,219.621-69.39,284.563
				C2220.687,2668.26,2080.531,2701.36,1954.249,2701.362z M1986.185,2024.771c-61.406,0-127.136,10.295-190.645,34.097l0,0
				c-101.34,37.981-172.534,127.979-185.798,234.871c-11.736,94.573,1.533,176.799,39.436,244.395
				c38.574,68.792,135.603,112.727,266.204,120.54c140.151,8.413,281.848-28.748,322.578-84.541
				c41.477-56.819,65.015-155.916,61.426-258.614c-3.562-101.877-33.179-187.627-77.292-223.786
				C2173.121,2051.592,2085.289,2024.771,1986.185,2024.771z M1788.25,2039.414h0.049H1788.25z"/>
		</g>
		<g>
			<path style="fill:#4D0D4F;" d="M2076.854,2279.084h-19.909h-52.803h-341.92h-75.309v48.475h75.934
				c5.391,49.164,47.022,87.428,97.622,87.428h145.424c50.601,0,92.232-38.264,97.623-87.428h54.053
				c5.392,49.164,47.023,87.428,97.622,87.428h96.084c54.261,0,98.248-43.987,98.248-98.248v-37.655H2076.854z"/>
		</g>
		<g>
			<path style="fill:#4D0D4F;" d="M1912.107,2578.116c7.729-11.128,17.38-19.26,28.174-26.361
				c10.789-6.929,22.607-12.496,35.054-15.957c12.415-3.409,25.313-5.693,38.164-5.045c12.827,0.275,25.505,2.866,37.251,7.762
				c4.031,1.681,5.938,6.312,4.255,10.344c-1.04,2.496-3.213,4.178-5.671,4.697l-0.911,0.184
				c-5.928,1.208-11.599,1.396-17.212,2.036c-5.603,0.854-11.13,0.995-16.563,1.943l-8.145,0.965
				c-2.678,0.529-5.369,0.884-8.049,1.321c-2.71,0.253-5.342,0.902-8.003,1.409c-2.646,0.564-5.369,0.852-7.964,1.627
				c-10.605,2.315-20.959,5.708-31.265,9.632c-10.22,3.892-20.605,8.949-30.122,14.179l-0.752,0.414
				c-3.062,1.682-6.907,0.564-8.589-2.497C1910.564,2582.598,1910.786,2580.025,1912.107,2578.116z"/>
		</g>
		<g>
			<g style="opacity:0.33;">
				<polygon style="fill:#FFFFFF;" points="1918.769,2301.59 1822.685,2403.517 1872.458,2403.517 1968.542,2301.59 				"/>
			</g>
			<g style="opacity:0.33;">
				<polygon style="fill:#FFFFFF;" points="1859.583,2301.59 1757.656,2403.517 1785.788,2403.517 1887.715,2301.59 				"/>
			</g>
		</g>
		<g>
			<g style="opacity:0.33;">
				<polygon style="fill:#FFFFFF;" points="2283.079,2301.59 2186.996,2403.517 2236.768,2403.517 2332.852,2301.59 				"/>
			</g>
			<g style="opacity:0.33;">
				<polygon style="fill:#FFFFFF;" points="2223.893,2301.59 2121.966,2403.517 2150.098,2403.517 2252.025,2301.59 				"/>
			</g>
		</g>
		<g>
			<g>
				<path style="fill:#FCD8C5;" d="M1418.548,2655.197c0,0,90.012-83.111,281.321-36.362
					c191.309,46.75,237.835,164.907,195.745,218.142c-42.091,53.236-58.97-64.921-147.264-86.995
					c-88.293-22.073-35.058,91.569-187.624,100.643S1340.642,2717.522,1418.548,2655.197z"/>
			</g>
			<g>
				<path style="fill:#4D0D4F;" d="M1547.003,2871.812c-91.707,0.008-152.771-51.521-173.33-104.99
					c-18.481-48.069-6.436-96.853,31.426-127.466c9.473-8.372,106.074-88.018,299.702-40.701
					c163.074,39.849,207.571,122.393,219.133,156.033c12.175,35.423,7.793,70.112-12.024,95.176
					c-11.438,14.465-23.591,21.509-37.153,21.536c-0.027,0-0.054,0.003-0.081,0.003c-22.339,0-37.195-18.64-54.395-40.218
					c-19.507-24.473-41.616-52.207-76.97-61.047c-25.237-6.309-28.547-0.874-42.456,22.012
					c-17.815,29.314-44.734,73.613-138.896,79.214C1556.893,2871.665,1551.896,2871.812,1547.003,2871.812z M1587.633,2625.212
					c-103.14,0-152.463,42.976-155.09,45.34c-0.298,0.268-0.706,0.62-1.016,0.869c-23.953,19.163-31.082,49.25-19.072,80.491
					c16.226,42.2,68.027,82.698,147.039,77.976c72.427-4.309,89.421-32.273,105.854-59.316
					c14.751-24.272,33.088-54.485,88.042-40.742c48.999,12.249,78.12,48.782,99.382,75.457c7.07,8.87,16.519,20.725,21.636,24.004
					c1.011-0.806,2.661-2.354,4.91-5.198c10.869-13.745,12.81-34.121,5.325-55.898c-7.29-21.211-42.517-93.211-189.705-129.177
					C1654.222,2629.067,1618.512,2625.212,1587.633,2625.212z M1418.548,2655.198h0.049H1418.548z"/>
			</g>
			<g>
				<path style="fill:#FCD8C5;" d="M1730.605,2680.62c0,0,98.681,90.137,36.356,177.565c-62.325,87.427-264.88,89.159-243.24,33.759
					c21.641-55.4,68.384-29.431,72.712-79.637"/>
			</g>
			<g>
				<path style="fill:#4D0D4F;" d="M1593.197,2950.24c-27.046,0.002-50.854-4.368-66.936-13.066
					c-21.648-11.712-30.034-31.938-21.89-52.788c13.762-35.232,37.419-45.854,53.074-52.883
					c13.855-6.221,17.146-7.698,18.291-20.979c0.984-11.433,11.016-19.924,22.483-18.914c11.431,0.986,19.9,11.052,18.914,22.483
					c-3.242,37.612-26.03,47.844-42.668,55.315c-13.174,5.916-23.606,10.6-31.169,29.534c4.382,3.618,20.469,9.743,50.117,9.743
					c0.19,0,0.381,0,0.574-0.002c55.496-0.146,126.921-21.682,156.06-62.556c49.944-70.061-28.972-134.302-32.356-137.002
					c-8.95-7.144-10.454-20.2-3.335-29.17c7.119-8.975,20.127-10.505,29.124-3.408c39.502,31.187,98.782,111.802,40.4,193.699
					C1745.711,2923.784,1659.71,2950.237,1593.197,2950.24z"/>
			</g>
		</g>
		<g>
			<path style="fill:#4D0D4F;" d="M1559.549,2947.339c-11.433,0-20.723-9.241-20.771-20.686
				c-0.049-11.472,9.211-20.813,20.686-20.862c41.794-0.178,71.924-11.064,89.548-32.356c26.252-31.714,17.988-78.208,17.9-78.672
				c-2.09-11.25,5.303-22.112,16.541-24.248c11.252-2.129,22.083,5.18,24.263,16.409c0.518,2.658,12.195,65.632-26.406,112.651
				c-25.828,31.46-66.763,47.532-121.67,47.764C1559.61,2947.339,1559.579,2947.339,1559.549,2947.339z"/>
		</g>
		<g>
			<polygon style="fill:#AAAAAA;" points="2970.344,2875.498 2029.55,2875.498 2498.766,2279.084 3439.56,2279.084 			"/>
		</g>
		<g>
			<path style="fill:#4D0D4F;" d="M2970.343,2896.272h-940.793c-7.957,0-15.212-4.541-18.687-11.699
				c-3.477-7.156-2.561-15.667,2.358-21.921l469.216-596.411c3.94-5.008,9.958-7.93,16.328-7.93h940.793
				c7.957,0,15.212,4.541,18.687,11.699c3.477,7.156,2.561,15.669-2.358,21.919l-469.216,596.414
				C2982.73,2893.35,2976.712,2896.272,2970.343,2896.272z M2072.328,2854.724h887.925l436.528-554.866h-887.925L2072.328,2854.724z
				"/>
		</g>
		<g>
			<g>
				<polygon style="fill:#AAAAAA;" points="3051.789,2875.498 2110.996,2875.498 2580.212,2279.084 3521.005,2279.084 				"/>
			</g>
			<g style="opacity:0.33;">
				<path style="fill:#FFFFFF;" d="M2825.415,2507.323c2.915,7.853,4.585,16.31,4.585,25.177c0,40.04-32.458,72.5-72.5,72.5
					c-6.196,0-12.175-0.861-17.915-2.323c10.242,27.61,36.741,47.323,67.915,47.323c40.042,0,72.5-32.46,72.5-72.5
					C2880,2543.655,2856.775,2515.31,2825.415,2507.323z"/>
			</g>
			<g>
				<path style="fill:#4D0D4F;" d="M2840.415,2507.323c2.915,7.853,4.585,16.31,4.585,25.177c0,40.04-32.458,72.5-72.5,72.5
					c-6.196,0-12.175-0.861-17.915-2.323c10.242,27.61,36.741,47.323,67.915,47.323c40.042,0,72.5-32.46,72.5-72.5
					C2895,2543.655,2871.775,2515.31,2840.415,2507.323z"/>
			</g>
			<g style="opacity:0.33;">
				<path style="fill:#FFFFFF;" d="M2580.211,2279.084l787.333,36.136c25.68,1.179,39.279,30.896,23.384,51.1l-400.585,509.177
					h61.445l469.217-596.413H2580.211z"/>
			</g>
			<g>
				<path style="fill:#4D0D4F;" d="M2115.982,2892.998c-3.787,0-7.6-1.223-10.808-3.745c-7.595-5.977-8.909-16.98-2.935-24.575
					l469.216-596.414c5.979-7.598,16.975-8.909,24.575-2.935c7.595,5.977,8.909,16.98,2.935,24.575l-469.216,596.414
					C2126.295,2890.708,2121.166,2892.998,2115.982,2892.998z"/>
			</g>
			<g>
				<path style="fill:#4D0D4F;" d="M3051.788,2896.272h-934.824c-11.475,0-20.774-9.299-20.774-20.774s9.299-20.774,20.774-20.774
					h924.734l436.528-554.866h-884.119c-11.475,0-20.774-9.299-20.774-20.774c0-11.475,9.299-20.774,20.774-20.774h926.897
					c7.957,0,15.212,4.541,18.689,11.699c3.474,7.156,2.559,15.669-2.361,21.919l-469.216,596.414
					C3064.176,2893.35,3058.158,2896.272,3051.788,2896.272z"/>
			</g>
		</g>
		<g>
			<g style="opacity:0.3;">
				<path style="fill:#4D0D4F;" d="M2476.771,2594.171c33.958-141.31,106.269-243.804,178.533-315.086h-75.092h-81.445
					l-469.217,596.413h81.446h859.348h81.445l75.757-96.293C2872.504,2818.739,2422.029,2821.97,2476.771,2594.171z"/>
			</g>
			<g style="opacity:0.3;">
				<path style="fill:#4D0D4F;" d="M1730.605,2692.852c0,0,56.265,75.742-43.281,98.031c0,0-34.625,55.364-92.622,14.156
					c-57.997-41.207-204.474-122.932-35.151-199.361c0,0-78.519,6.613-113.184,31.085l-52.489-12.296
					c0,0-74.443,19.044-95.218,132.44s-452.043,262.302-552.361,162.746c0,0,54.424,208.009,437.563,52.496h239.376
					c0,0-51.857-71.116,47.247-96.652h408.141C1878.626,2875.497,1908.923,2738.729,1730.605,2692.852z"/>
			</g>
			<g style="opacity:0.3;">
				<path style="fill:#4D0D4F;" d="M947.217,2680.62c0,0,112.344-43.18,203.446-57.325
					C1150.663,2623.296,974.484,2547.635,947.217,2680.62z"/>
			</g>
			<g style="opacity:0.3;">
				<path style="fill:#4D0D4F;" d="M1207.607,2085.188c0,0,12.225,271.37,297.259,324.606c0,0-22.529-80.936-12.874-130.709
					c0,0,20.23,121.62,116.221,177.453c0,0,5.52,112.952,91.656,162.298c0,0-162.059-34.265-253.502,17.928
					C1446.367,2636.763,1226.488,2485.107,1207.607,2085.188z"/>
			</g>
			<g style="opacity:0.3;">
				<path style="fill:#4D0D4F;" d="M2362.036,2123.364c0,0-18.571,76.949-60.987,86.471c0,0,47.042,179.604-25.82,353.384
					l57.623-73.243C2332.852,2489.975,2409.015,2284.377,2362.036,2123.364z"/>
			</g>
			<g style="opacity:0.3;">
				<path style="fill:#4D0D4F;" d="M2217.37,2636.763c0,0-141.815,69.073-214.527,74.267c-72.712,5.194-137.655-24.67-137.655-24.67
					s80.091,96.516,13.438,189.138h150.924L2217.37,2636.763z"/>
			</g>
		</g>
		<g>
			<path style="fill:#AAAAAA;" d="M3042.887,2986.297H1459.665c-30.596,0-55.4-24.803-55.4-55.4v0c0-30.596,24.803-55.4,55.4-55.4
				h1583.222V2986.297z"/>
		</g>
		<g style="opacity:0.3;">
			<path style="fill:#4D0D4F;" d="M3042.887,2986.297H1459.665c-30.596,0-55.4-24.803-55.4-55.4v0c0-30.596,24.803-55.4,55.4-55.4
				h1583.222V2986.297z"/>
		</g>
		<g style="opacity:0.33;">
			<rect x="2994.845" y="2875.497" style="fill:#FFFFFF;" width="48.042" height="110.8"/>
		</g>
		<g>
			<path style="fill:#4D0D4F;" d="M3042.887,3007.07H1459.664c-42.002,0-76.172-34.17-76.172-76.172
				c0-42.004,34.17-76.175,76.172-76.175h1583.223c11.475,0,20.774,9.3,20.774,20.774v110.798
				C3063.661,2997.771,3054.361,3007.07,3042.887,3007.07z M1459.664,2896.272c-19.092,0-34.624,15.532-34.624,34.624
				s15.532,34.627,34.624,34.627h1562.449v-69.25H1459.664z"/>
		</g>
		<g>
			<path style="fill:#4D0D4F;" d="M2049.586,3007.07c-11.475,0-20.774-9.299-20.774-20.774v-110.798
				c0-11.475,9.299-20.774,20.774-20.774s20.774,9.3,20.774,20.774v110.798C2070.36,2997.771,2061.061,3007.07,2049.586,3007.07z"/>
		</g>
		<g>
			<path style="fill:#4D0D4F;" d="M1496.838,2279.302c0.349,29.152,3.586,58.674,8.584,87.493
				c5.027,28.878,12.285,57.276,21.914,84.634c9.719,27.31,21.951,53.568,37.275,77.518c7.573,12.036,16.216,23.238,25.293,33.911
				c9.192,10.596,19.326,20.18,29.875,29.115l0.366,0.31c7.373,6.244,8.286,17.281,2.043,24.652
				c-6.243,7.372-17.28,8.286-24.653,2.043c-0.295-0.251-0.615-0.543-0.891-0.81c-11.384-11.074-22.048-22.772-31.472-35.333
				c-9.302-12.625-17.915-25.675-25.232-39.347c-14.817-27.248-25.759-56.074-33.904-85.37
				c-8.044-29.341-13.423-59.172-16.477-89.123c-3.018-29.997-4.194-59.901-2.415-90.128c0.156-2.674,2.451-4.714,5.127-4.556
				c2.551,0.15,4.526,2.249,4.563,4.766L1496.838,2279.302z"/>
		</g>
		<g>
			<g style="opacity:0.3;">
				<path style="fill:#4D0D4F;" d="M1459.665,2875.497c-30.596,0-55.4,24.803-55.4,55.4c0,30.597,24.803,55.4,55.4,55.4h349.625
					c-16.631-35.557-30.661-72.566-41.841-110.8H1459.665z"/>
			</g>
		</g>
		<g>
			<path style="fill:#4D0D4F;" d="M695,3126.592c56.692-10.283,113.384-13.013,170.076-14.105
				c56.692-1.432,113.381-0.673,170.073,0.107l85.039,0.626l85.037,0.039H1375.3h680.298h680.3h340.149l85.037-0.021
				c28.347,0.015,56.692-0.903,85.037-1.324c28.347-0.432,56.692,0.235,85.039,1.913c28.345,1.979,56.692,5.276,85.037,12.766
				c3.682,0.973,5.879,4.746,4.905,8.428c-0.654,2.48-2.593,4.288-4.905,4.905c-28.345,7.49-56.692,10.787-85.037,12.766
				c-28.347,1.677-56.692,2.345-85.039,1.913c-28.345-0.421-56.689-1.34-85.037-1.324l-85.037-0.021h-340.149h-680.3H1375.3
				h-170.076l-85.037,0.038l-85.039,0.627c-56.692,0.78-113.381,1.538-170.073,0.106c-56.692-1.092-113.384-3.821-170.076-14.105
				c-3.682-0.668-6.125-4.194-5.456-7.876C690.061,3129.198,692.307,3127.087,695,3126.592z"/>
		</g>
		<g>
			<g>
				<path style="fill:#FF0000;" d="M2821.177,1221.258c-168.746,14.799-298.363,160.735-293.241,330.051
					c1.58,52.239,15.499,101.021,38.742,143.819c-2.78,50.975-22.616,148.709-33.77,200.597
					c-3.107,14.455,11.323,26.416,24.959,20.701l176.863-74.124c41.824,16.005,87.653,23.584,135.324,20.544
					c171.763-10.955,305.951-157.853,301.117-329.898C3165.962,1347.56,3006.056,1205.044,2821.177,1221.258z"/>
				<path style="fill:#4D0D4F;" d="M2550.755,1938.591c-8.933,0-17.744-3.083-24.89-9.016c-11.216-9.312-16.279-23.95-13.215-38.206
					c10.876-50.596,29.224-141.035,32.971-191.704c-23.904-45.891-36.819-95.559-38.398-147.729
					c-5.481-181.172,131.631-335.488,312.144-351.321l0,0c95.166-8.352,186.746,21.982,257.947,85.396
					c71.201,63.416,111.89,150.906,114.57,246.357c2.49,88.591-29.382,173.794-89.744,239.91
					c-60.347,66.099-142.3,105.605-230.767,111.248c-46.631,2.969-92.38-3.401-136.157-18.958l-169.338,70.972
					C2560.987,1937.588,2555.853,1938.591,2550.755,1938.591z M2822.989,1241.9c-158.655,13.916-279.158,149.548-274.341,308.782
					c1.443,47.664,13.635,92.937,36.24,134.558c1.831,3.374,2.69,7.188,2.48,11.018c-2.766,50.713-21.567,144.705-33.225,199.263
					l172.576-72.329c4.917-2.061,10.432-2.148,15.417-0.242c40.559,15.522,83.154,21.973,126.599,19.219
					c159.836-10.195,286.216-148.647,281.721-308.638c-2.358-83.916-38.123-160.83-100.708-216.57
					C2987.167,1261.221,2906.625,1234.563,2822.989,1241.9L2822.989,1241.9z"/>
			</g>
			<g style="opacity:0.5;">
				<path style="fill:#FFFFFF;" d="M2580.324,1884.548c11.323-54.948,25.403-129.888,27.768-173.234
					c0.209-3.831-0.65-7.645-2.48-11.017c-22.606-41.619-34.799-86.894-36.241-134.557
					c-4.818-159.236,115.688-294.867,274.339-308.785c69.163-6.022,136.14,11.175,192.646,48.785
					c-60.475-48.038-135.548-70.617-213.369-63.841c-158.651,13.918-279.157,149.549-274.339,308.785
					c1.441,47.663,13.635,92.938,36.241,134.557c1.83,3.373,2.689,7.186,2.48,11.017c-2.765,50.694-21.567,144.693-33.225,199.263
					L2580.324,1884.548z"/>
			</g>
			<g>
				<g>
					<line style="fill:#E74C3C;" x1="2736.046" y1="1840.849" x2="2677.569" y2="1793.906"/>
				</g>
				<g>
					<path style="fill:#650000;" d="M2725.579,1853.889l-48.01-59.982l68.945,33.903c8.491,4.175,11.99,14.443,7.815,22.934
						c-4.175,8.491-14.443,11.989-22.935,7.814C2729.084,1857.421,2727.095,1855.767,2725.579,1853.889z"/>
				</g>
			</g>
			<g style="opacity:0.3;">
				<path style="fill:#4D0D4F;" d="M3057.419,1303.51c0,0,210.038,457.09-344.575,521.901c0,0,225.518,138,408.897-115.948
					C3121.741,1709.462,3243.982,1443.709,3057.419,1303.51z"/>
			</g>
			<g style="opacity:0.3;">
				<polygon style="fill:#650000;" points="2687.481,1804.539 2529.639,1918.681 2728.069,1838.756 				"/>
			</g>
			<g>
				<g>
					<path style="fill-rule:evenodd;clip-rule:evenodd;fill:#FFFFFF;" d="M2949.339,1630.65l-13.058,10.478l-1.562,33.114
						c-0.42,8.912-8.381,15.886-17.778,15.641l-0.077-0.002c-9.392-0.245-16.771-7.613-16.486-16.52l0.449-14.008
						c0.088-2.736-2.174-5.018-5.051-5.09l0,0c-2.876-0.072-5.269,2.092-5.344,4.828l-0.386,14.005
						c-0.245,8.905-8.044,15.874-17.416,15.629l0,0c-9.367-0.245-16.866-7.606-16.755-16.505l0.147-11.705
						c0.05-3.996-3.314-7.332-7.515-7.437l0,0c-4.199-0.105-7.621,3.059-7.645,7.054l-0.069,11.701
						c-0.053,8.896-7.674,15.859-17.019,15.615l0,0c-9.339-0.244-16.971-7.598-17.051-16.489l-0.126-13.983
						c-0.025-2.731-2.364-5.008-5.225-5.08h0c-2.86-0.072-5.148,2.089-5.112,4.819l0.189,13.98
						c0.12,8.889-7.342,15.846-16.661,15.603l-0.077-0.002c-9.314-0.243-17.065-7.591-17.317-16.474l-0.939-33.004l-12.713-11.048
						c-33.016-28.673-53.649-70.096-56.088-114.298c-5.031-91.178,65.821-169.414,158.709-167.955
						c93.411,1.468,163.89,82.713,157.055,174.55C3005.107,1562.567,2983.345,1603.38,2949.339,1630.65L2949.339,1630.65z"/>
				</g>
				<g>
					<g>
						<path style="fill-rule:evenodd;clip-rule:evenodd;fill:#FF0000;" d="M2788.491,1473.852
							c-24.706-0.126-43.725,20.075-42.509,44.791c1.19,24.187,21.521,43.639,45.442,43.817
							c23.951,0.178,43.074-19.025,42.662-43.263C2833.667,1494.427,2813.229,1473.978,2788.491,1473.852L2788.491,1473.852z"/>
					</g>
					<g>
						<path style="fill-rule:evenodd;clip-rule:evenodd;fill:#FF0000;" d="M2911.813,1472.598
							c-24.904-0.126-45.176,20.148-45.292,44.954c-0.113,24.273,19.329,43.793,43.435,43.973
							c24.138,0.18,44.461-19.09,45.365-43.415C2956.245,1493.251,2936.751,1472.725,2911.813,1472.598L2911.813,1472.598z"/>
					</g>
				</g>
			</g>
		</g>
		<g>
			<path style="fill:#4D0D4F;" d="M3142.433,3149.033H1205.172c-50.596,0-91.755-41.159-91.755-91.755s41.16-91.755,91.755-91.755
				h1937.261c50.596,0,91.755,41.16,91.755,91.755S3193.028,3149.033,3142.433,3149.033z M1205.172,3007.07
				c-27.683,0-50.208,22.524-50.208,50.208c0,27.683,22.524,50.208,50.208,50.208h1937.261c27.683,0,50.208-22.524,50.208-50.208
				c0-27.683-22.524-50.208-50.208-50.208H1205.172z"/>
		</g>
	</g>
</g>
</svg>
