<?xml version="1.0" encoding="UTF-8" standalone="no"?>
<!-- Created with Inkscape (http://www.inkscape.org/) -->

<svg
   version="1.1"
   id="svg2"
   width="5333.3335"
   height="5333.3335"
   viewBox="0 0 5333.3335 5333.3335"
   sodipodi:docname="9700_4_04.eps"
   xmlns:inkscape="http://www.inkscape.org/namespaces/inkscape"
   xmlns:sodipodi="http://sodipodi.sourceforge.net/DTD/sodipodi-0.dtd"
   xmlns="http://www.w3.org/2000/svg"
   xmlns:svg="http://www.w3.org/2000/svg">
  <defs
     id="defs6" />
  <sodipodi:namedview
     id="namedview4"
     pagecolor="none"
     bordercolor="none"
     borderopacity="0.25"
     inkscape:showpageshadow="2"
     inkscape:pageopacity="0.0"
     inkscape:pagecheckerboard="0"
     inkscape:deskcolor="#d1d1d1" />
  <g
     id="g8"
     inkscape:groupmode="layer"
     inkscape:label="ink_ext_XXXXXX"
     transform="matrix(1.3333333,0,0,-1.3333333,0,5333.3333)">
    <g
       id="g10"
       transform="scale(0.1)">
      <path
         d="M 0,0 H 40000 V 40000 H 0 Z"
         style="fill:none;fill-opacity:1;fill-rule:nonzero;stroke:none"
         id="path12" />
      <path
         d="m 32500,21482.2 c 0,-28.4 0,-56.8 -0.5,-85.3 -2.8,-416.3 -25.6,-827.5 -68.5,-1233.2 -658.5,-6273.5 -5964.8,-11163 -12412.9,-11163 -6893.5,0 -12482,5588.1 -12482,12481.5 0,6893.4 5588.5,12481.9 12482,12481.9 5110.7,0 9504.1,-3071.8 11434.5,-7469.5 176,-400.5 331.1,-811.7 464.8,-1233.2 378.6,-1192.2 582.6,-2461.7 582.6,-3779.2"
         style="fill:#485068;fill-opacity:1;fill-rule:nonzero;stroke:none"
         id="path14" />
      <path
         d="M 30153,27302.7 H 13364.8 c -69,0 -125,56 -125,125 0,69.1 56,125 125,125 H 30153 c 69,0 125,-55.9 125,-125 0,-69 -56,-125 -125,-125"
         style="fill:#47ef92;fill-opacity:1;fill-rule:nonzero;stroke:none"
         id="path16" />
      <path
         d="M 11992.6,27302.7 H 9847.03 c -69.04,0 -125,56 -125,125 0,69.1 55.96,125 125,125 h 2145.57 c 69,0 125,-55.9 125,-125 0,-69 -56,-125 -125,-125"
         style="fill:#47ef92;fill-opacity:1;fill-rule:nonzero;stroke:none"
         id="path18" />
      <path
         d="m 30153,25842.3 h -1069.4 c -69,0 -125,56 -125,125 0,69.1 56,125 125,125 H 30153 c 69,0 125,-55.9 125,-125 0,-69 -56,-125 -125,-125"
         style="fill:#47ef92;fill-opacity:1;fill-rule:nonzero;stroke:none"
         id="path20" />
      <path
         d="m 27871.8,25842.3 h -15802 c -69.1,0 -125,56 -125,125 0,69.1 55.9,125 125,125 h 15802 c 69,0 125,-55.9 125,-125 0,-69 -56,-125 -125,-125"
         style="fill:#47ef92;fill-opacity:1;fill-rule:nonzero;stroke:none"
         id="path22" />
      <path
         d="m 10655.9,25842.3 h -808.87 c -69.04,0 -125,56 -125,125 0,69.1 55.96,125 125,125 h 808.87 c 69.1,0 125,-55.9 125,-125 0,-69 -55.9,-125 -125,-125"
         style="fill:#47ef92;fill-opacity:1;fill-rule:nonzero;stroke:none"
         id="path24" />
      <path
         d="m 30153,24381.9 h -1514.9 c -69,0 -125,56 -125,125 0,69.1 56,125 125,125 H 30153 c 69,0 125,-55.9 125,-125 0,-69 -56,-125 -125,-125"
         style="fill:#47ef92;fill-opacity:1;fill-rule:nonzero;stroke:none"
         id="path26" />
      <path
         d="M 27556.9,24381.9 H 9847.03 c -69.05,0 -125,56 -125,125 0,69.1 55.95,125 125,125 H 27556.9 c 69.1,0 125,-55.9 125,-125 0,-69 -55.9,-125 -125,-125"
         style="fill:#47ef92;fill-opacity:1;fill-rule:nonzero;stroke:none"
         id="path28" />
      <path
         d="M 30153,22921.5 H 11986.6 c -69,0 -125,56 -125,125 0,69.1 56,125 125,125 H 30153 c 69,0 125,-55.9 125,-125 0,-69 -56,-125 -125,-125"
         style="fill:#47ef92;fill-opacity:1;fill-rule:nonzero;stroke:none"
         id="path30" />
      <path
         d="M 10958.9,22921.5 H 9847.03 c -69.04,0 -125,56 -125,125 0,69.1 55.96,125 125,125 h 1111.87 c 69.1,0 125,-55.9 125,-125 0,-69 -55.9,-125 -125,-125"
         style="fill:#47ef92;fill-opacity:1;fill-rule:nonzero;stroke:none"
         id="path32" />
      <path
         d="m 30152.9,21461.1 h -1559.3 c -69.1,0 -125,56 -125,125 0,69.1 55.9,125 125,125 h 1559.3 c 69.1,0 125,-55.9 125,-125 0,-69 -55.9,-125 -125,-125"
         style="fill:#47ef92;fill-opacity:1;fill-rule:nonzero;stroke:none"
         id="path34" />
      <path
         d="M 27702.5,21461.1 H 9847.03 c -69.05,0 -125,56 -125,125 0,69.1 55.95,125 125,125 H 27702.5 c 69,0 125,-55.9 125,-125 0,-69 -56,-125 -125,-125"
         style="fill:#47ef92;fill-opacity:1;fill-rule:nonzero;stroke:none"
         id="path36" />
      <path
         d="M 30153,20000.7 H 11752 c -69.1,0 -125,56 -125,125 0,69.1 55.9,125 125,125 h 18401 c 69,0 125,-55.9 125,-125 0,-69 -56,-125 -125,-125"
         style="fill:#47ef92;fill-opacity:1;fill-rule:nonzero;stroke:none"
         id="path38" />
      <path
         d="m 10664.8,20000.7 h -817.77 c -69.04,0 -125,56 -125,125 0,69.1 55.96,125 125,125 h 817.77 c 69,0 125,-55.9 125,-125 0,-69 -56,-125 -125,-125"
         style="fill:#47ef92;fill-opacity:1;fill-rule:nonzero;stroke:none"
         id="path40" />
      <path
         d="m 30153,18540.3 h -445.6 c -69,0 -125,56 -125,125 0,69.1 56,125 125,125 h 445.6 c 69,0 125,-55.9 125,-125 0,-69 -56,-125 -125,-125"
         style="fill:#47ef92;fill-opacity:1;fill-rule:nonzero;stroke:none"
         id="path42" />
      <path
         d="M 28964.9,18540.3 H 12099.5 c -69,0 -125,56 -125,125 0,69.1 56,125 125,125 h 16865.4 c 69,0 125,-55.9 125,-125 0,-69 -56,-125 -125,-125"
         style="fill:#47ef92;fill-opacity:1;fill-rule:nonzero;stroke:none"
         id="path44" />
      <path
         d="M 11374.8,18540.3 H 9847.03 c -69.04,0 -125,56 -125,125 0,69.1 55.96,125 125,125 h 1527.77 c 69,0 125,-55.9 125,-125 0,-69 -56,-125 -125,-125"
         style="fill:#47ef92;fill-opacity:1;fill-rule:nonzero;stroke:none"
         id="path46" />
      <path
         d="M 30152.9,17079.9 H 12099.5 c -69,0 -125,56 -125,125 0,69.1 56,125 125,125 h 18053.4 c 69.1,0 125,-55.9 125,-125 0,-69 -55.9,-125 -125,-125"
         style="fill:#47ef92;fill-opacity:1;fill-rule:nonzero;stroke:none"
         id="path48" />
      <path
         d="m 10762.8,17079.9 h -915.77 c -69.04,0 -125,56 -125,125 0,69.1 55.96,125 125,125 h 915.77 c 69.1,0 125,-55.9 125,-125 0,-69 -55.9,-125 -125,-125"
         style="fill:#47ef92;fill-opacity:1;fill-rule:nonzero;stroke:none"
         id="path50" />
      <path
         d="m 30153,15619.5 h -1473.3 c -69,0 -125,56 -125,125 0,69.1 56,125 125,125 H 30153 c 69,0 125,-55.9 125,-125 0,-69 -56,-125 -125,-125"
         style="fill:#47ef92;fill-opacity:1;fill-rule:nonzero;stroke:none"
         id="path52" />
      <path
         d="M 27848,15619.5 H 9847.03 c -69.05,0 -125,56 -125,125 0,69.1 55.95,125 125,125 H 27848 c 69,0 125,-55.9 125,-125 0,-69 -56,-125 -125,-125"
         style="fill:#47ef92;fill-opacity:1;fill-rule:nonzero;stroke:none"
         id="path54" />
      <path
         d="m 25890.5,5650.5 c -153.5,-19.5 -321,-30.5 -503,-30.5 h -10775 c -182,0 -349.5,11 -503,30.5 -1034.5,134 -1739.5,1127 -1538.5,2151 662,3372.5 2367.5,5467.5 2987.5,6138 144.5,156 230,235 230,235 h 8423 c 0,0 85.5,-79 230,-235 620,-670.5 2325.5,-2765.5 2987.5,-6138 201,-1024 -504,-2017 -1538.5,-2151"
         style="fill:#ff67a0;fill-opacity:1;fill-rule:nonzero;stroke:none"
         id="path56" />
      <path
         d="m 23108.6,12905.4 h -342.2 c 858.1,367.5 1281.7,823 1455.9,1057.6 35.6,-36.8 79.5,-83.1 130.3,-138.7 -189.6,-228.7 -569.1,-594.8 -1244,-918.9 m -5875,0 h -342.2 c -571.7,274.6 -931.4,579.1 -1143.2,804.9 43.8,50.2 84.6,95.9 122.1,137.1 214.2,-249.8 630.2,-628 1363.3,-942"
         style="fill:#b54d91;fill-opacity:1;fill-rule:nonzero;stroke:none"
         id="path58" />
      <path
         d="m 26812.6,8100.4 c -38.7,54.3 -83.7,100.3 -131.9,144.6 -61.2,58.3 -129.9,105.5 -198.4,154.6 -130.4,80.8 -267.5,153.6 -410.2,208.2 l 200.2,1553.1 c 356.3,-971.1 503.6,-1822.8 540.3,-2060.5"
         style="fill:#b54d91;fill-opacity:1;fill-rule:nonzero;stroke:none"
         id="path60" />
      <path
         d="m 14279.2,5775.6 c -51.5,4.3 -102.1,9.7 -151.5,16.1 -181.6,23.5 -354.3,75.6 -513.7,153.5 -242.2,182.3 -435.1,423.3 -561.1,697.9 250.8,-206.5 560.2,-347.7 906.6,-392.6 87.2,-11.1 179,-19.4 275.4,-24.5 l 52.9,-411.2 c -3.5,-12.8 -6.4,-25.9 -8.6,-39.2 m 11441.6,0 c -0.1,0.4 -0.2,0.9 -0.3,1.3 -2.1,12.8 -4.9,25.5 -8.3,37.9 l 56.6,439.6 c 802.4,116.8 1401,751.9 1522,1512 86.3,-450.9 -18.4,-923.5 -287.9,-1297.6 -271.8,-377.5 -673.3,-618 -1130.6,-677.1 -49.4,-6.4 -100,-11.8 -151.5,-16.1"
         style="fill:#b54d91;fill-opacity:1;fill-rule:nonzero;stroke:none"
         id="path62" />
      <path
         d="m 13052.9,6643.1 c -111.3,91.5 -211,195.9 -297.2,310.4 -81.9,263.7 -98.9,546.2 -45.1,820.4 221.8,1130.4 564.5,2117.9 944,2954.7 l 49,-380.4 c -313.7,-757 -591.5,-1623.6 -782.5,-2596.9 -76.3,-389.1 -21.9,-773.6 131.8,-1108.2 m 2062.3,6262.3 h -206.7 c 299.5,417 561.9,724.7 739.1,918.7 28.9,-34.9 62.4,-73.1 100.6,-113.8 -172.9,-198.3 -391.8,-467.2 -633,-804.9"
         style="fill:#ffc2d9;fill-opacity:1;fill-rule:nonzero;stroke:none"
         id="path64" />
      <path
         d="m 15748.2,13710.3 c -38.2,40.7 -71.7,78.9 -100.6,113.8 50.7,55.6 94.5,101.9 130.2,138.7 25.3,-34.1 56,-72.9 92.5,-115.4 -37.5,-41.2 -78.3,-86.9 -122.1,-137.1"
         style="fill:#e1b8d3;fill-opacity:1;fill-rule:nonzero;stroke:none"
         id="path66" />
      <path
         d="m 13614,5945.2 c -242,118.2 -453,296 -616.9,523.6 -107,148.6 -188,312.6 -241.4,484.7 86.2,-114.5 185.9,-218.9 297.2,-310.4 126,-274.6 318.9,-515.6 561.1,-697.9"
         style="fill:#e1b8d3;fill-opacity:1;fill-rule:nonzero;stroke:none"
         id="path68" />
      <path
         d="m 13155.4,8051.1 c 44.8,76.7 101.8,136.8 163.9,193.9 61.1,58.3 129.9,105.5 198.3,154.6 141.5,87.7 290.9,165.9 446.8,221.7 l 117.1,42.8 c 39.4,12.5 79.1,23.4 118.7,35.1 79.6,22.4 159.3,45.9 240,60.6 80.6,16.1 161.2,34.5 242.1,48.8 l 243.6,34.3 c 81.4,12.9 162.9,17.3 244.3,23.9 81.5,5.9 163.1,13.6 244.6,17.9 l 244.5,3.7 c 27.8,-0.1 55.6,0.5 83.4,1.2 53.7,1.2 107.4,2.4 160.8,-1.3 162.2,-8.1 325,-11.5 486.5,-25.9 161.3,-15.8 322.4,-34 483,-53.7 77.9,-9.6 133.3,-80.5 123.7,-158.4 -9.1,-74.2 -73.8,-127.9 -147.2,-124.7 l -6.7,0.4 c -158.2,7.4 -315.9,16.4 -473.4,27.8 -78.7,7 -157.6,4.6 -236.3,8.6 l -236,8.1 c -100.3,1.9 -200.5,1.1 -300.6,0.3 -56.8,-0.5 -113.6,-1 -170.5,-0.9 l -234.4,-11.4 c -78.1,-4 -156.6,-5.8 -233.8,-15.9 -311.9,-22.6 -618.2,-78.7 -916.5,-157.1 -37.1,-10.4 -75.3,-18.2 -112.1,-29.4 l -109.6,-36 c -75,-20.8 -144.4,-52 -217.4,-78.6 -70.3,-30.6 -141,-62.1 -209,-98.7 -17.6,-8.5 -34.1,-18.2 -50.3,-28.5 l -50.2,-29.5 c -31.1,-21.5 -65.5,-43.2 -92.7,-66.5 l -2.6,-2.3 c -11.6,-9.9 -29.1,-8.6 -39.1,3 -7.9,9.2 -8.6,22.2 -2.9,32.1"
         style="fill:#0b126d;fill-opacity:1;fill-rule:nonzero;stroke:none"
         id="path70" />
      <path
         d="m 26800,8018.3 c -27.3,23.3 -61.6,45 -92.7,66.5 l -50.2,29.5 c -16.2,10.3 -32.7,20 -50.4,28.5 -67.9,36.7 -138.6,68.2 -208.9,98.7 -73,26.6 -142.5,57.8 -217.4,78.6 l -109.6,36 c -36.8,11.2 -75.1,19 -112.1,29.5 -298.3,78.3 -604.6,134.4 -916.5,157 -77.2,10.1 -155.8,11.9 -233.9,15.9 l -234.3,11.4 c -56.9,-0.1 -113.7,0.4 -170.5,0.9 -100.2,0.8 -200.3,1.6 -300.6,-0.3 l -236,-8.1 c -78.8,-3.9 -157.6,-1.5 -236.3,-8.6 -157.5,-11.4 -315.2,-20.4 -473.4,-27.8 l -6.2,-0.3 c -78.5,-3.7 -145,56.9 -148.7,135.3 -3.4,74.6 51.7,138.6 124.6,147.7 160.7,19.7 321.8,37.9 483.1,53.7 161.5,14.4 324.3,17.8 486.5,25.9 53.4,3.7 107.1,2.5 160.8,1.3 27.8,-0.7 55.6,-1.3 83.4,-1.2 l 244.4,-3.7 c 81.6,-4.3 163.1,-12 244.6,-17.9 81.5,-6.6 163,-11 244.3,-23.9 l 243.7,-34.3 c 80.9,-14.3 161.4,-32.7 242,-48.8 80.8,-14.7 160.5,-38.2 240.1,-60.6 39.5,-11.7 79.3,-22.6 118.7,-35.1 l 117.1,-42.7 c 155.9,-55.9 305.2,-134.1 446.7,-221.8 68.5,-49.1 137.2,-96.3 198.4,-154.6 62.1,-57.1 119,-117.2 163.9,-193.9 7.7,-13.2 3.2,-30.2 -10.1,-38 -10.4,-6.1 -23.1,-4.5 -31.9,2.9 l -2.6,2.3"
         style="fill:#0b126d;fill-opacity:1;fill-rule:nonzero;stroke:none"
         id="path72" />
      <path
         d="m 15846.2,14032.1 c -311.4,-308.2 -2395.8,-2487.7 -3135.6,-6258.2 -88.9,-453.2 15.5,-928.9 286.5,-1305.1 271.9,-377.5 673.4,-618 1130.6,-677.1 151.9,-19.7 315,-29.7 484.7,-29.7 h 10775.3 c 169.5,0 332.6,10 484.6,29.7 457.3,59.1 858.8,299.6 1130.6,677.1 271,376.2 375.4,851.9 286.5,1305.1 -740.9,3775.8 -2824.2,5950.7 -3135.5,6258.2 h -4146.2 c -2.6,0 -5.2,0.1 -7.7,0.2 -2.6,-0.1 -5.2,-0.2 -7.8,-0.2 h -4146 M 25387.7,5477.6 H 14612.4 c -181.9,0 -357.2,10.8 -521.2,32 -536,69.4 -1006.5,351 -1324.8,793 -316.8,439.8 -438.8,996 -334.8,1526.1 815.2,4154.6 3236.3,6427.6 3260.6,6450.1 26.3,24.2 60.7,37.7 96.4,37.7 h 4203.6 c 2.6,0 5.2,-0.1 7.8,-0.3 2.5,0.2 5.1,0.3 7.7,0.3 h 4203.7 c 35.7,0 70.2,-13.5 96.4,-37.7 24.3,-22.5 2445.4,-2295.5 3260.6,-6450.1 104,-530.1 -18,-1086.3 -334.8,-1526.1 -318.3,-442 -788.8,-723.6 -1324.8,-793 -164.1,-21.2 -339.4,-32 -521.1,-32"
         style="fill:#0b126d;fill-opacity:1;fill-rule:nonzero;stroke:none"
         id="path74" />
      <path
         d="m 16185.8,15050.4 c 0,0 -115.3,504.6 -115.3,1026.1 0,0 704.9,-567.5 1897.7,-490.5 0,0 -2475.1,519.1 -3016.3,3531.8 0,0 -132.5,-2549.7 1233.9,-4067.4"
         style="fill:#0b126d;fill-opacity:1;fill-rule:nonzero;stroke:none"
         id="path76" />
      <path
         d="m 23814.2,15050.4 c 0,0 115.3,504.6 115.3,1026.1 0,0 -704.8,-567.5 -1897.7,-490.5 0,0 2475.1,519.1 3016.3,3531.8 0,0 132.6,-2549.7 -1233.9,-4067.4"
         style="fill:#0b126d;fill-opacity:1;fill-rule:nonzero;stroke:none"
         id="path78" />
      <path
         d="m 24211.5,14174.5 c 0,0 -813,-1568.5 -4211.5,-1693.5 -3398.5,125 -4211.5,1693.5 -4211.5,1693.5 0,1033.5 903,1283 903,1283 0,161.5 21.5,300.5 58,420 199.5,652.5 843.5,720.5 843.5,720.5 h 4814 c 0,0 494,-52 750.5,-503 36.5,-64 68,-136.5 93,-217.5 36.5,-119.5 58,-258.5 58,-420 0,0 903,-249.5 903,-1283"
         style="fill:#ff67a0;fill-opacity:1;fill-rule:nonzero;stroke:none"
         id="path80" />
      <path
         d="m 22010.5,12905.4 h -711.6 c 869.3,325.3 1869.1,797.1 1951.6,1269.1 14.9,85.5 25.1,162.1 31.3,230.7 17.4,-0.4 36.7,-0.6 57.7,-0.6 156.7,0 412.1,12.9 714.9,77 18.4,-83.6 29.6,-174.8 31.6,-274.3 -88.4,-142.9 -604,-876.2 -2075.5,-1301.9 m 1277.8,1598.7 c 18.3,473.2 -179.4,490 -207.5,490 -2.2,0 -3.3,-0.1 -3.3,-0.1 0,0 2.9,8 6.8,23.2 68.4,268.4 -145.6,500.5 -394.8,500.5 -55.7,0 -113.1,-11.5 -169.5,-36.9 -402,-180.5 -829.8,-317.5 -1256.3,-409.7 -19.9,55.3 -38.2,109.5 -55.1,162.2 640.8,130.1 1305,361.4 1888.6,701.4 52.9,-127.1 86.2,-283.9 86.2,-477.3 0,-55.9 37.6,-105.1 91.3,-120.4 19.1,-5.4 285.3,-84.3 507.8,-326.5 -147.8,-182.1 -311.9,-351.9 -494.2,-506.4 m -4552.1,566.7 c -618.1,133.2 -1238.9,360.5 -1779.9,678.2 14.7,45.1 31.6,87.3 50.3,126.8 557.9,-308 1181.7,-520 1784.8,-642.5 -16.9,-52.8 -35.3,-107.1 -55.2,-162.5"
         style="fill:#b54d91;fill-opacity:1;fill-rule:nonzero;stroke:none"
         id="path82" />
      <path
         d="m 17968.2,13984.2 c 0,0 -1005.2,223.4 -1433.3,1142.9 84.7,59.9 164.7,102.2 227.4,130.8 119.1,-261 428.6,-747.1 1205.9,-1273.7"
         style="fill:#b54d91;fill-opacity:1;fill-rule:nonzero;stroke:none"
         id="path84" />
      <path
         d="m 15990.2,14100.3 c -37.5,48.1 -62.2,85.1 -76.3,107.4 2.1,99.4 13.3,190.4 31.6,273.9 35.5,-7.5 70.4,-14.3 104.5,-20.5 -32.5,-107.2 -54,-227 -59.8,-360.8 m 308.4,813.4 c -27.5,31.9 -54.6,64.3 -81.1,96.9 90.2,98.2 187.6,169.5 272.8,220 14.1,-35.4 28.9,-69.9 44.6,-103.5 -78.1,-55.2 -160.2,-125.4 -236.3,-213.4 m 463.7,344.2 c -13.6,29.7 -24.7,56.4 -33.7,80 52.1,16.2 88,64.6 88,119.5 0,133.1 16,248.9 43.4,349.6 31.8,-19.7 63.9,-39 96.3,-58 -2.3,-7.1 -4.6,-14.3 -6.8,-21.5 -36.5,-119.5 -58,-258.5 -58,-420 0,0 -51.2,-14.1 -129.2,-49.6"
         style="fill:#ffc2d9;fill-opacity:1;fill-rule:nonzero;stroke:none"
         id="path86" />
      <path
         d="m 16956.3,15749 c -32.4,19 -64.5,38.3 -96.3,58 12.4,45.4 27.1,87.7 43.7,127.2 34,-19.8 68.4,-39.3 102.9,-58.4 -18.7,-39.5 -35.6,-81.7 -50.3,-126.8"
         style="fill:#e1b8d3;fill-opacity:1;fill-rule:nonzero;stroke:none"
         id="path88" />
      <path
         d="m 16534.9,15127.1 c -15.7,33.6 -30.5,68.1 -44.6,103.5 124.8,74 223.4,103.1 234.6,106.3 1.2,0.3 2.5,0.7 3.7,1 9,-23.6 20.1,-50.3 33.7,-80 -62.7,-28.6 -142.7,-70.9 -227.4,-130.8"
         style="fill:#e1b8d3;fill-opacity:1;fill-rule:nonzero;stroke:none"
         id="path90" />
      <path
         d="m 23429.5,15426.3 c -9.1,-27.9 -16.7,-46.9 -25.8,-68.7 -8.4,-21.5 -18,-41.6 -27.3,-61.9 -18.8,-40.7 -38.9,-79.9 -60.2,-118.4 -21.4,-38.3 -43,-76.4 -66.8,-112.9 -22.5,-37.3 -47,-73.2 -72.1,-108.5 -99.6,-141.9 -212.5,-272 -333.1,-392.8 -63.1,-57.6 -123.1,-117.9 -190,-170.4 -33,-26.8 -64.8,-54.8 -98.6,-80.2 l -102.3,-75 -51.2,-37.2 -53.2,-34.2 -106.1,-68.2 c -71.9,-43.5 -146.1,-82.9 -218.7,-124.3 -5.9,-3.3 -13.4,-1.3 -16.7,4.6 -3.2,5.5 -1.6,12.3 3.4,16 l 0.7,0.5 c 67.3,49.2 135.7,96.1 201.4,146.6 l 96.2,78.4 47.9,39.2 45.7,41.8 90.8,83.6 c 29.8,28.3 57.5,58.9 86.2,88.1 58.5,57.4 109.3,121.9 163,183.1 101.4,127.7 193.4,261.7 270.2,402.7 19.5,35.1 38.2,70.4 54.8,106.7 17.9,35.7 33.4,72.2 48.6,108.7 15.1,36.4 29,73.3 41.2,110 6,18.4 12.4,36.7 17.1,54.8 5.2,17.4 10.4,38 12.7,50.2 12.8,67.9 78.4,112.7 146.3,99.9 68,-12.8 112.8,-78.3 99.9,-146.3 -0.9,-5 -2.1,-9.9 -3.6,-14.6 l -0.4,-1.3"
         style="fill:#0b126d;fill-opacity:1;fill-rule:nonzero;stroke:none"
         id="path92" />
      <path
         d="m 16812.6,15488.6 c 2.3,-12.2 7.6,-32.8 12.7,-50.2 4.8,-18.1 11.2,-36.4 17.2,-54.8 12.2,-36.7 26,-73.6 41.1,-110 15.3,-36.5 30.8,-73 48.7,-108.7 16.6,-36.3 35.3,-71.6 54.7,-106.7 76.9,-141 168.8,-275 270.3,-402.7 53.6,-61.2 104.5,-125.7 163,-183.1 28.7,-29.2 56.3,-59.8 86.1,-88.1 l 90.9,-83.6 45.6,-41.8 48,-39.2 96.2,-78.4 c 65.6,-50.5 134.1,-97.5 201.4,-146.6 l 0.7,-0.5 c 5.5,-4 6.7,-11.7 2.6,-17.1 -3.7,-5.2 -10.6,-6.5 -15.9,-3.5 -72.6,41.4 -146.8,80.8 -218.7,124.3 l -106.2,68.2 -53.2,34.2 -51.1,37.2 -102.4,75 c -33.8,25.4 -65.5,53.4 -98.5,80.2 -66.9,52.5 -126.9,112.8 -190.1,170.4 -120.5,120.8 -233.5,250.9 -333,392.8 -25.1,35.3 -49.6,71.2 -72.2,108.5 -23.7,36.5 -45.3,74.6 -66.7,112.9 -21.3,38.5 -41.4,77.7 -60.2,118.4 -9.4,20.3 -18.9,40.4 -27.4,61.9 -9,21.8 -16.7,40.8 -25.7,68.7 l -0.2,0.6 c -21.2,65.9 14.9,136.5 80.8,157.7 65.8,21.2 136.4,-14.9 157.6,-80.8 1.6,-4.8 3,-10.4 3.9,-15.2"
         style="fill:#0b126d;fill-opacity:1;fill-rule:nonzero;stroke:none"
         id="path94" />
      <path
         d="m 23433.4,15457.4 h 0.5 -0.5 m -7519.5,-1249.7 c 121.8,-193.6 1049,-1488.6 4086.1,-1601.4 3050.6,113.3 3965.4,1406.1 4086,1601 -18.3,894.6 -778.5,1120.4 -811.3,1129.7 -53.7,15.3 -91.3,64.5 -91.3,120.4 0,890.8 -706,1005.7 -783.5,1015.6 h -4799.5 c -75.5,-10.2 -783.8,-129.7 -783.8,-1015.6 0,-56.2 -37.5,-105.5 -91.7,-120.5 -32.4,-9.2 -792.4,-234.8 -811,-1129.2 M 20000,12356.2 c -1.5,0 -3.1,0.1 -4.6,0.1 -3431.9,126 -4283.2,1693.7 -4317.8,1760.4 -9.2,17.8 -14,37.5 -14,57.5 0,913.9 660.4,1270.4 905.1,1371.2 49.9,1063 1001.1,1175.9 1011,1176.9 4.3,0.5 8.7,0.7 13.1,0.7 h 4814.4 c 4.4,0 8.7,-0.2 13.1,-0.7 9.8,-1 961.2,-113.9 1011.1,-1176.9 244.6,-100.8 905,-457.3 905,-1371.2 0,-20 -4.8,-39.7 -14,-57.5 -34.6,-66.7 -885.9,-1634.4 -4317.8,-1760.4 -1.5,0 -3.1,-0.1 -4.6,-0.1"
         style="fill:#0b126d;fill-opacity:1;fill-rule:nonzero;stroke:none"
         id="path96" />
      <path
         d="m 20000,12481 c -1411.5,1149.5 -1370.5,2023 -1370.5,2023 117.5,233 207,463.5 275,672 0,0 0.5,1.5 1,4 2,4 3,8.5 4,12.5 15.5,46 29,90.5 41.5,134 0.5,2.5 1,5 2,7.5 118.5,404.5 150.5,693.5 150.5,693.5 h 1793 c 0,0 83,-748.5 474,-1523.5 0,0 41,-873.5 -1370.5,-2023"
         style="fill:#fdc7a3;fill-opacity:1;fill-rule:nonzero;stroke:none"
         id="path98" />
      <path
         d="m 20292.5,12905.4 h -585 c -339.5,325.5 -558.2,619.3 -698.9,863.1 469.7,-664.4 983.9,-711 983.9,-711 912.5,511 661.5,1829.5 661.5,1829.5 -74.1,-3.3 -146.2,-4.8 -216.1,-4.8 -710.7,-0.1 -1206,159.2 -1417.9,243.2 6.9,21 13.6,41.7 20,62.3 335.5,-55.1 660.6,-82.1 960,-82.1 299.4,0 624.5,27 960,82.1 68.8,-218.2 161.2,-462.7 284.6,-711.9 -8,-125.4 -91.8,-745.6 -952.1,-1570.4"
         style="fill:#b49093;fill-opacity:1;fill-rule:nonzero;stroke:none"
         id="path100" />
      <path
         d="m 18755.3,14475.7 c 8.6,-135.9 108.2,-877.4 1244.7,-1832.3 1134.7,953.3 1235.8,1694.1 1244.6,1832.4 -301.3,608.7 -418.4,1189.6 -456.6,1426.9 h -1576 c -38.2,-237.3 -155.3,-818.3 -456.7,-1427 M 20000,12356.2 c -28,0 -55.9,9.4 -79,28.1 -1443.6,1175.8 -1418,2087.3 -1416.2,2125.5 0.9,17.5 5.4,34.7 13.3,50.4 375.1,744.4 460.3,1474.1 461.2,1481.4 7,63.2 60.6,111.1 124.2,111.1 h 1793 c 63.7,0 117.2,-47.9 124.3,-111.1 0.8,-7.3 86,-737 461.1,-1481.4 7.9,-15.7 12.4,-32.9 13.3,-50.4 1.8,-38.3 27.4,-949.7 -1416.2,-2125.5 -23,-18.7 -51,-28.1 -79,-28.1"
         style="fill:#0b126d;fill-opacity:1;fill-rule:nonzero;stroke:none"
         id="path102" />
      <path
         d="m 25071,19221.5 c -79.5,-372 -195.5,-806.5 -364,-1228 -141.5,-354.5 -319,-699 -542,-988.5 -897,-1164 -2721,-1774.5 -4165,-1774.5 -1444,0 -3268,610.5 -4165,1774.5 -223,289.5 -400.5,634 -542,988.5 -168.5,421.5 -284.5,856 -364,1228 -221.5,1042 -130.5,2130.5 300,3104.5 573,1296.5 1864,2710.5 4771,2710.5 2907,0 4198,-1414 4771,-2710.5 430.5,-974 521.5,-2062.5 300,-3104.5"
         style="fill:#fdc7a3;fill-opacity:1;fill-rule:nonzero;stroke:none"
         id="path104" />
      <path
         d="m 20000,15355.6 c -1317.9,0 -3152.3,540 -4065.8,1725.7 -314.9,408.6 -536.9,934.1 -691.1,1428.9 -1.9,25.6 -3.6,51.1 -5.2,76.5 17.7,-47.8 36.1,-95.6 55.1,-143.2 141.5,-354.5 319,-699 542,-988.5 897,-1164 2721,-1774.5 4165,-1774.5 1444,0 3268,610.5 4165,1774.5 223,289.5 400.5,634 542,988.5 19,47.6 37.4,95.4 55.1,143.2 -1.6,-25.5 -3.4,-51 -5.2,-76.8 -154.2,-494.5 -376.2,-1020 -691.1,-1428.7 -913.4,-1185.6 -2747.9,-1725.6 -4065.8,-1725.6"
         style="fill:#b49093;fill-opacity:1;fill-rule:nonzero;stroke:none"
         id="path106" />
      <path
         d="m 18533.1,18997.8 c 0,-468.7 -310.3,-848.7 -693.1,-848.7 -382.9,0 -693.2,380 -693.2,848.7 0,468.7 310.3,848.7 693.2,848.7 382.8,0 693.1,-380 693.1,-848.7"
         style="fill:#0b126d;fill-opacity:1;fill-rule:nonzero;stroke:none"
         id="path108" />
      <path
         d="m 17568.5,19535.1 c -9.8,2.6 -13.1,4 -18.3,5.8 l -13.5,5.3 c -8.6,3.6 -16.5,7.4 -24,11.4 -15.7,7.7 -29.6,16.4 -43.7,25.1 -27,18.7 -52.4,38.7 -74.7,61.1 -45.6,44.2 -80,96.3 -107.3,148.9 -24.5,54.6 -42.1,109.7 -50.2,165.1 -4.8,27.5 -5,55.5 -7.3,82.4 0.7,27.4 1.8,54.3 4.1,80.8 0.8,8.9 8.7,15.5 17.6,14.7 5.6,-0.5 10.3,-3.8 12.8,-8.4 l 0.6,-1.1 c 24.4,-46.1 47.6,-90 75.6,-129.1 27.2,-39.4 57.4,-73.9 89.9,-102.9 32.1,-29.1 67.3,-51.5 102.3,-68.5 17.2,-9.2 35.4,-15.2 52.7,-20.8 8.5,-2.4 17.1,-5.3 25,-6.6 4.2,-1 8.1,-1.7 11.4,-2 1.7,-0.3 3.7,-0.7 4.6,-0.6 0.9,0 3.6,-0.4 0,0.8 72.1,-16 117.7,-87.4 101.8,-159.5 -15.8,-72.2 -87.3,-117.8 -159.4,-101.9"
         style="fill:#0b126d;fill-opacity:1;fill-rule:nonzero;stroke:none"
         id="path110" />
      <path
         d="m 17495.8,19252.1 c -9.7,-2.7 -13.3,-3.1 -18.7,-4.1 l -14.3,-2.2 c -9.3,-1.2 -18,-1.7 -26.6,-2.1 -17.4,-1.2 -33.8,-0.6 -50.3,-0.1 -32.8,2.7 -64.7,7.3 -95.3,15.6 -61.5,15.4 -117.4,43.3 -167.4,75.2 -48.5,35.1 -91.3,73.9 -126,117.9 -17.9,21.4 -32.1,45.5 -47.5,67.6 -13.1,24.2 -25.6,48 -36.8,72.2 -3.8,8.1 -0.3,17.7 7.8,21.4 5.1,2.4 10.9,1.9 15.3,-0.8 l 1,-0.7 c 44.3,-27.7 86.3,-54.2 130.1,-74 43.2,-20.5 86.7,-35.3 129.3,-44.1 42.3,-9.3 84.1,-11 122.9,-8.2 19.4,0.7 38.2,4.5 55.9,8.4 8.6,2.1 17.6,3.9 25.1,6.7 4,1.2 7.8,2.6 10.9,4 1.5,0.6 3.5,1.2 4.2,1.8 0.8,0.5 3.3,1.4 -0.4,0.6 70.4,22.3 145.7,-16.7 168,-87.2 22.3,-70.4 -16.7,-145.6 -87.2,-167.9"
         style="fill:#0b126d;fill-opacity:1;fill-rule:nonzero;stroke:none"
         id="path112" />
      <path
         d="m 18232.7,18794 c 0,-178.8 -118.4,-323.8 -264.5,-323.8 -146,0 -264.5,145 -264.5,323.8 0,178.8 118.5,323.8 264.5,323.8 146.1,0 264.5,-145 264.5,-323.8"
         style="fill:#ffffff;fill-opacity:1;fill-rule:nonzero;stroke:none"
         id="path114" />
      <path
         d="m 21466.9,18997.8 c 0,-468.7 310.3,-848.7 693.1,-848.7 382.9,0 693.2,380 693.2,848.7 0,468.7 -310.3,848.7 -693.2,848.7 -382.8,0 -693.1,-380 -693.1,-848.7"
         style="fill:#0b126d;fill-opacity:1;fill-rule:nonzero;stroke:none"
         id="path116" />
      <path
         d="m 22374,19796.4 c -3.6,-1.1 -1,-0.7 -0.1,-0.8 0.9,-0.1 2.9,0.4 4.6,0.7 3.4,0.3 7.2,1 11.3,1.9 8,1.3 16.6,4.3 25.1,6.7 17.3,5.5 35.6,11.6 52.7,20.7 35,17.1 70.3,39.4 102.4,68.5 32.4,29 62.7,63.6 89.9,103 27.9,39.1 51.1,82.9 75.5,129.1 l 0.5,0.9 c 4.2,7.9 14.1,11 21.9,6.8 5,-2.7 8.1,-7.7 8.6,-12.9 2.3,-26.5 3.4,-53.4 4.2,-80.9 -2.3,-26.8 -2.6,-54.8 -7.4,-82.3 -8,-55.4 -25.7,-110.5 -50.1,-165.1 -27.4,-52.6 -61.8,-104.7 -107.3,-148.9 -22.4,-22.4 -47.7,-42.4 -74.8,-61.1 -14.1,-8.7 -28,-17.4 -43.6,-25.1 -7.6,-4 -15.5,-7.9 -24.1,-11.5 l -13.4,-5.2 c -5.2,-1.8 -8.6,-3.3 -18.4,-5.9 -72.1,-15.9 -143.5,29.8 -159.4,102 -15.9,72.1 29.7,143.5 101.9,159.4"
         style="fill:#0b126d;fill-opacity:1;fill-rule:nonzero;stroke:none"
         id="path118" />
      <path
         d="m 22585,19507.2 c -3.7,0.9 -1.1,-0.1 -0.4,-0.6 0.7,-0.5 2.7,-1.1 4.3,-1.8 3.1,-1.4 6.8,-2.8 10.8,-4 7.5,-2.8 16.5,-4.6 25.1,-6.7 17.6,-3.9 36.5,-7.7 55.9,-8.4 38.8,-2.7 80.5,-1 122.9,8.1 42.6,8.9 86.1,23.7 129.3,44.2 43.8,19.9 85.9,46.3 130.1,74.1 l 0.9,0.5 c 7.6,4.8 17.6,2.5 22.3,-5.1 3,-4.8 3.1,-10.6 1,-15.4 -11.3,-24.1 -23.8,-48 -36.9,-72.1 -15.4,-22.1 -29.6,-46.3 -47.5,-67.7 -34.7,-44 -77.5,-82.8 -126,-117.8 -49.9,-32 -105.8,-59.8 -167.4,-75.4 -30.5,-8.2 -62.5,-12.8 -95.2,-15.4 -16.6,-0.6 -33,-1.2 -50.4,0 -8.6,0.3 -17.3,0.9 -26.6,2.1 l -14.2,2.2 c -5.5,1 -9.1,1.4 -18.8,4.1 -70.4,22.3 -109.5,97.5 -87.2,168 22.4,70.4 97.6,109.4 168,87.1"
         style="fill:#0b126d;fill-opacity:1;fill-rule:nonzero;stroke:none"
         id="path120" />
      <path
         d="m 21767.3,18794 c 0,-178.8 118.4,-323.8 264.5,-323.8 146,0 264.4,145 264.4,323.8 0,178.8 -118.4,323.8 -264.4,323.8 -146.1,0 -264.5,-145 -264.5,-323.8"
         style="fill:#ffffff;fill-opacity:1;fill-rule:nonzero;stroke:none"
         id="path122" />
      <path
         d="m 20776.3,17387.6 c 24.4,-188.2 -72.2,-384.9 -233.5,-505.7 -162.8,-118 -361.2,-161.5 -542.8,-161.6 -181.6,-2.3 -380.9,38.5 -546.7,155.5 -80.9,60 -149.3,138.7 -191.9,227.9 -41.9,90.4 -63.4,182.8 -52.3,283 3,27.9 28.2,48 56.1,45 18.4,-2.1 33.5,-13.7 40.7,-29.4 l 4.4,-9.7 c 14,-30.8 32.1,-67.2 51.1,-97.6 21,-30.5 40.5,-60.3 65.8,-85 47.4,-51.1 101.7,-90.1 160.9,-120.1 120.7,-56.6 261.4,-79.9 411.9,-80.2 150.5,-2.1 292,18.5 415.8,74.1 60.7,29.3 116.9,68.4 166.2,120.3 50.4,50.5 91.5,118.1 122.3,187.7 l 2.6,5.8 c 8.2,18.4 29.7,26.7 48.1,18.5 12,-5.3 19.7,-16.4 21.3,-28.5"
         style="fill:#0b126d;fill-opacity:1;fill-rule:nonzero;stroke:none"
         id="path124" />
      <path
         d="m 23701.8,18424.8 c -213.6,-317 -590.6,-509.9 -1120.7,-573.6 -493.9,-59.3 -876.2,35 -1136.9,279.9 -440.8,414.1 -454.1,1160.1 -437.6,1476.1 3.1,60.2 33.1,115.6 83.1,153.2 320.6,241.2 1266.1,788.6 2627.2,157 71.8,-33.3 124.9,-94.9 141.5,-168.6 65.2,-288.8 143.5,-878.5 -156.6,-1324 m -5119,-173 c -255.9,-249.5 -636.3,-350.4 -1131.2,-299.6 -531.3,54.4 -912.1,240.7 -1131.8,554 -308.9,440.2 -242.2,1031.2 -182.7,1321 15.2,74 67,136.4 138.2,171.1 1348.3,655.1 2304.5,124.2 2629.8,-111.4 50.8,-36.7 81.8,-91.7 86.1,-151.7 22.7,-315.6 24.1,-1061.7 -408.4,-1483.4 m 6137.9,1610.1 c -3,34 -23.6,64.9 -55.4,81.3 -192.5,99.1 -394.6,166.4 -582.6,212.3 -120.9,29.4 -237.5,71.8 -351.6,119.4 -1278.3,533.3 -2242.8,132 -2706.9,-157.2 -80.4,-50.2 -184,-55.7 -270.1,-14.8 -537.4,255.2 -1124.1,147.4 -1454.4,47.5 -81,-24.5 -169.2,-12.4 -238.8,33.6 -413.6,273.5 -1402.8,749.2 -2725.3,206 -162.5,-66.7 -327.1,-129.7 -496.7,-178.2 -167.8,-47.9 -344.1,-113.8 -512.4,-204.2 -31.5,-17 -51.5,-48.3 -53.8,-82.3 l -22.3,-328.6 c -3.2,-46.2 27,-88.6 73.8,-103.2 85.2,-26.4 232.7,-87.9 412.7,-227.9 10.5,-303.4 81.8,-644.4 289.8,-940.9 280.1,-399.2 746.6,-634.8 1386.8,-700.4 41.6,-4.2 82.7,-7.6 123.1,-10 550.7,-33 971.9,121.4 1299.8,409.6 554.6,487.3 569.5,1281.3 509.5,1676.1 237,84.5 838.4,248.6 1310.9,-52.2 -22.2,-350.1 -15.4,-1227.8 538.2,-1748.9 318.2,-299.6 757.8,-429.5 1307.7,-386.9 40.3,3.1 81.4,7.2 122.9,12.1 638.7,76.7 1100.6,320.4 1372.8,724.4 202.1,300 266.7,642.2 271.2,945.8 177.2,143.1 323.4,207.1 408.1,235 46.6,15.3 75.8,58.3 71.8,104.5 l -28.8,328.1"
         style="fill:#0b126d;fill-opacity:1;fill-rule:nonzero;stroke:none"
         id="path126" />
      <path
         d="m 15237.9,18586.7 c -34.5,93.2 -66.6,186.6 -96.4,279.5 -34.8,133.7 -64.6,262.1 -90.1,381.6 -52.6,247.1 -87.1,494.3 -103.7,740 20.1,673.5 86.3,1118.7 86.3,1118.7 0,0 623,1125.5 1513.5,2016 0,0 27.7,-101.7 96.3,-288.7 22,-70.3 44.8,-139.1 68.1,-206 -831,-839 -1410.4,-1885.8 -1410.4,-1885.8 0,0 -141,-949.9 -63.6,-2155.3 m 9524.2,0 c 77.4,1205.4 -63.6,2155.3 -63.6,2155.3 -233.1,-131.3 -462.9,-172 -658.3,-172 -319.6,0 -547.2,109 -547.2,109 -112.3,-143.9 -227.1,-202.7 -324.3,-221.6 -240.3,55.5 -466.3,78.9 -676.6,78.9 -381.1,0 -710.2,-76.7 -978,-177.3 -616,29.9 -914.6,185 -914.6,185 -312.6,-131.4 -583.3,-178 -809.8,-178 -552,0 -842.2,276.5 -842.2,276.5 -173.8,-101.8 -338.8,-148.8 -490.3,-160.3 -176.7,62 -379.3,113.1 -604.7,138.8 -185.8,101.5 -295,220.5 -295,220.5 -179.2,312.4 -323.1,593.2 -437.2,835 156,-302.2 273.6,-476 273.6,-476 140.3,-125.5 277.1,-203.6 395,-252.2 137.2,-66.5 307.2,-119.4 500.4,-119.4 181.5,0 383.5,46.7 598.2,172.6 0,0 307,-292.4 890.6,-292.4 239.3,0 525.2,49.2 855.4,187.9 0,0 387,-200.8 1187.6,-200.8 344.1,0 764.8,37.2 1263.9,143.3 0,0 73.2,-41.8 182.2,-41.8 116,0 272.5,47.3 424.8,242.3 0,0 240.5,-115.2 578.4,-115.2 206.4,0 449.2,43 695.6,181.7 0,0 66.1,-445.1 86.3,-1118.6 -16.6,-245.8 -51.1,-493 -103.7,-740.1 -25.4,-119.3 -55.1,-247.3 -89.8,-380.7 -29.9,-93.1 -62.1,-186.9 -96.7,-280.4"
         style="fill:#b49093;fill-opacity:1;fill-rule:nonzero;stroke:none"
         id="path128" />
      <path
         d="m 24756.9,18509.9 c 1.8,25.8 3.6,51.3 5.2,76.8 34.6,93.5 66.8,187.3 96.7,280.4 -30.1,-115.8 -64,-235.5 -101.9,-357.2 m -9513.8,0.3 c -37.8,121.2 -71.6,240.6 -101.6,356 29.8,-92.9 61.9,-186.3 96.4,-279.5 1.6,-25.4 3.3,-50.9 5.2,-76.5"
         style="fill:#816a88;fill-opacity:1;fill-rule:nonzero;stroke:none"
         id="path130" />
      <path
         d="m 21722.9,20354 c -73.2,0 -142.8,1.7 -208.8,5 267.8,100.6 596.9,177.3 978,177.3 210.3,0 436.3,-23.4 676.6,-78.9 -27.4,-5.4 -53.4,-7.5 -77.5,-7.5 -103.4,0 -172.7,39.6 -172.7,39.6 -472.1,-100.4 -870,-135.5 -1195.6,-135.5 m -3341.2,125.4 c -209.9,-0.1 -390.8,65.9 -529.2,141.6 225.4,-25.7 428,-76.8 604.7,-138.8 -25.5,-1.9 -50.7,-2.8 -75.5,-2.8"
         style="fill:#0b126d;fill-opacity:1;fill-rule:nonzero;stroke:none"
         id="path132" />
      <path
         d="m 20000,24911.7 c -2886,0 -4125.3,-1433.6 -4656.8,-2636.2 -413.4,-935.2 -514.3,-1982.1 -291.8,-3027.7 137,-643.5 401.3,-1541.7 882.8,-2166.5 913.5,-1185.7 2747.9,-1725.7 4065.8,-1725.7 1317.9,0 3152.4,540 4065.8,1725.6 481.6,625.2 745.9,1523.3 882.8,2166.6 222.4,1045.6 121.6,2092.6 -291.8,3027.7 -531.5,1202.6 -1770.8,2636.2 -4656.8,2636.2 m 0,-9806.1 c -1377.1,0 -3298.8,570.5 -4263.8,1823.1 -510.2,662 -787,1598.2 -929.3,2267 -233.5,1097.4 -127.2,2197.3 307.7,3180.9 561.4,1270.5 1864.8,2785.1 4885.4,2785.1 3020.6,0 4324,-1514.6 4885.5,-2785.1 434.7,-983.5 541.1,-2083.4 307.6,-3180.9 -142.3,-668.6 -419,-1604.8 -929.3,-2267.1 -965,-1252.5 -2886.6,-1823 -4263.8,-1823"
         style="fill:#0b126d;fill-opacity:1;fill-rule:nonzero;stroke:none"
         id="path134" />
      <path
         d="m 26327,15071.5 -152.5,941.5 C 25144,14219.5 23173,14410.5 23173,14410.5 c 2499,1946 1793,6696 1793,6696 -649.5,-365.5 -1274,-66.5 -1274,-66.5 -295.5,-378.5 -607,-200.5 -607,-200.5 -1660,-353 -2451.5,57.5 -2451.5,57.5 -1135.5,-477 -1746,104.5 -1746,104.5 -829.5,-486.5 -1469,210 -1469,210 -667.5,1164 -871,1911 -871,1911 -890.5,-890.5 -1513.5,-2016 -1513.5,-2016 0,0 -706,-4750 1793,-6696 0,0 -1971,-191 -3001.5,1602.5 l -152.5,-941.5 c 0,0 -1126,1385.5 -1288.5,4046.5 -59.5,971.5 9.5,2113 309,3419.5 1119.5,4884 3751,6588 7306.5,6588 2698,0 4863.4,-981 6240.5,-3588 438,-829 796,-1822 1066,-3000 1119,-4884 -979.5,-7466 -979.5,-7466"
         style="fill:#ad5833;fill-opacity:1;fill-rule:nonzero;stroke:none"
         id="path136" />
      <path
         d="m 12384.5,19118 v 0 0"
         style="fill:#363d6a;fill-opacity:1;fill-rule:nonzero;stroke:none"
         id="path138" />
      <path
         d="m 26241.3,25535.9 c -0.2,0.5 -0.5,1.1 -0.8,1.6 0.3,-0.5 0.6,-1 0.8,-1.6"
         style="fill:#363d6a;fill-opacity:1;fill-rule:nonzero;stroke:none"
         id="path140" />
      <path
         d="m 23339.5,14404.6 c -105.7,0 -166.5,5.9 -166.5,5.9 1597.3,1243.8 1885.2,3633.1 1885,5195.5 -0.1,882 -92,1500.5 -92,1500.5 -246.4,-138.7 -489.2,-181.7 -695.6,-181.7 -337.9,0 -578.4,115.2 -578.4,115.2 -152.3,-195 -308.8,-242.3 -424.8,-242.3 -109,0 -182.2,41.8 -182.2,41.8 -499.1,-106.1 -919.8,-143.3 -1263.9,-143.3 -800.6,0 -1187.6,200.8 -1187.6,200.8 -330.2,-138.7 -616.1,-187.9 -855.4,-187.9 -583.6,0 -890.6,292.4 -890.6,292.4 -214.7,-125.9 -416.7,-172.6 -598.2,-172.6 -193.2,0 -363.2,52.9 -500.4,119.4 177.8,-73.2 312.7,-79.2 352.2,-79.2 7.8,0 11.9,0.2 11.9,0.2 -132.8,151.6 -254.6,304.8 -366.4,458.9 167.6,-45 351.9,-80.2 517.8,-80.2 237.8,0 437.7,72.4 496.1,292.5 0,0 422.1,-248.6 878.6,-248.6 170.6,0 345.9,34.7 505.9,130.1 0,0 -243.5,807.5 0,1580 0,0 260.1,-1939 1919.6,-1939 249.9,0 531.2,43.9 848.4,145 0,0 27.5,-5.7 64.4,-5.7 93.4,0 247,36.7 167.1,296.2 0,0 -227,909.5 -71.1,1506.5 0,0 425.6,-1659.1 1410.4,-1659.1 100.2,0 206.2,17.2 318.2,55.1 1211.5,410 197.5,4032 -773.5,4837 35.5,-16 1173.5,-557.5 1664.5,-4329 0,0 481.5,-820 -285,-1105 0,0 132.5,-2293 -260.5,-3992 0,0 486.5,295 1056.5,1737.5 0,0 148,-648.6 107.5,-1464.5 35.5,63 1771.5,3167.5 -109,8447.5 -0.3,1 -0.7,2.3 -1.2,3.4 437.7,-828.7 795.4,-1821.1 1065.2,-2998.4 235.5,-1027.8 328.5,-1953.7 328.5,-2775 0,-342.3 -16.1,-666.4 -44.8,-972.2 -7.9,-84.6 -16.8,-168.1 -26.6,-250 -53.3,-445.5 -132.9,-849.1 -226.5,-1210.4 -22.2,-85.7 -45.1,-169 -68.8,-250 -143.8,-493 -310.9,-897.3 -464,-1210.4 -44.5,-91 -87.8,-174.3 -129.1,-250 -198.3,-363.5 -348.2,-548 -348.2,-548 l -152.5,941.5 c -28.3,-49.3 -57.4,-97.1 -87.1,-143.5 -56.7,-88.6 -115.7,-171.7 -176.8,-250 -485.1,-621.8 -1093.6,-928.3 -1613.6,-1077.6 -83.5,-23.9 -164.5,-43.8 -242.6,-60.3 -302.8,-64.1 -558.2,-77 -714.9,-77 m -6679,0 c -156.7,0 -412.1,12.9 -715,77 -77.9,16.5 -159.1,36.4 -242.6,60.3 -619.6,177.9 -1364.8,578.9 -1877.4,1471.1 l -23.2,-143.5 -40.5,-250 -88.8,-548 c 0,0 -394.6,485.4 -750.3,1433.7 200,-533 412.2,-919.6 559.7,-1156 v 0 0 c -293.5,557.5 -672.1,1482.3 -835.9,2760.1 177.7,-424.4 474.2,-910.8 967,-1307.3 0,0 -260.3,990 -82.4,1765.5 0,0 396.9,-1458 1280.9,-2342.5 -17,73 -1010.5,4364.5 680,7009 0,0 59,-73.4 193.6,-73.4 95.4,0 228.7,36.8 405.9,162.4 0,0 -381.8,2164.9 802.5,3449.9 l -0.1,-0.1 c -3.3,-5.1 -65.2,-103.8 -142.8,-289.6 -590.6,-1316.2 -420.4,-2650.9 -107.3,-3649.4 -68.6,187 -96.3,288.7 -96.3,288.7 -890.5,-890.5 -1513.5,-2016 -1513.5,-2016 0,0 -91.9,-618.5 -92,-1500.5 -0.2,-1562.4 287.7,-3951.7 1885,-5195.5 0,0 -60.8,-5.9 -166.5,-5.9 m -3739.2,2104.3 c -0.1,0.3 -0.1,0.4 -0.2,0.7 0.1,-0.3 0.1,-0.4 0.2,-0.7 m -461.6,1852 v 0.1 c 0,-0.2 0,0 0,-0.1 m -0.9,6.6 c -0.1,0.3 -0.1,0.5 -0.1,0.7 0,-0.2 0,-0.5 0.1,-0.7 m -2,14 c 0,0.4 -0.1,1.1 -0.2,1.5 0.1,-0.5 0.2,-1 0.2,-1.5 m -0.8,6.5 c -0.1,0.6 -0.2,1.2 -0.3,1.8 0.1,-0.7 0.2,-1.2 0.3,-1.8 m -1.1,7.9 c -0.1,0.7 -0.2,1.4 -0.3,2.1 0.1,-0.8 0.2,-1.4 0.3,-2.1 m -0.8,6.1 c -0.2,1 -0.3,2.1 -0.5,3.1 0.2,-1.1 0.3,-2 0.5,-3.1 m -0.8,5.8 c -0.6,4.6 -1.2,9 -1.8,13.6 0.6,-4.5 1.2,-9.1 1.8,-13.6 m -1.9,14.5 c -0.3,1.7 -0.5,3.2 -0.7,4.9 0.2,-1.6 0.5,-3.3 0.7,-4.9 m -0.7,5.3 c -27.5,208.8 -49.3,427.4 -64,655.1 14.7,-227.8 36.5,-446.2 64,-655.1 m -64.1,656.5 c -0.1,1.6 -0.2,3.1 -0.3,4.7 0.1,-1.6 0.2,-3.2 0.3,-4.7 m -0.4,6.7 c -0.2,2.4 -0.3,4.8 -0.5,7.2 0.2,-2.4 0.3,-4.8 0.5,-7.2 m -0.7,10.5 c 0,0.9 -0.1,2.3 -0.2,3.3 0.1,-1.1 0.2,-2.2 0.2,-3.3 m -0.4,7.1 c -0.1,1 -0.1,1.9 -0.2,2.9 0.1,-1 0.1,-1.9 0.2,-2.9 m 13856.2,6427.5 c -0.2,0.5 -0.5,1.1 -0.8,1.6 v 0 c 0.3,-0.5 0.6,-1.1 0.8,-1.6 v 0 m -9347.3,1237 c 0,0 0,0 0,0.1 0,0 -0.1,-0.1 0,0 0,0 0,0 0,-0.1"
         style="fill:#7c4345;fill-opacity:1;fill-rule:nonzero;stroke:none"
         id="path142" />
      <path
         d="m 12922.7,16505.2 c -0.4,1.2 -0.9,2.4 -1.4,3.7 0.5,-1.2 1,-2.5 1.4,-3.7 m -1.6,4.4 c -65.4,174.5 -129.4,364.7 -189.4,570.3 v 0 c 60,-205.5 124,-395.8 189.4,-570.3 m -258.2,820.3 v 0 c -80.8,312.1 -151.2,656 -203.2,1031 52,-375 122.4,-718.9 203.2,-1031 m -203.2,1031.1 c -0.3,2.1 -0.6,4.3 -0.9,6.5 0.3,-2.2 0.6,-4.3 0.9,-6.5 m -1,7.2 c -0.6,4.4 -1.3,8.9 -1.9,13.3 0.6,-4.4 1.2,-8.8 1.9,-13.3 m -2.1,14.8 c -0.2,1.7 -0.4,3.4 -0.6,5 0.2,-1.6 0.4,-3.4 0.6,-5 m -0.9,6.8 c -0.3,1.9 -0.5,4.1 -0.8,6.1 0.3,-2.1 0.5,-4.1 0.8,-6.1 m -1.1,8.2 c -0.2,1.3 -0.4,2.7 -0.5,4 0.1,-1.3 0.3,-2.7 0.5,-4 m -1,7.1 c -0.1,0.9 -0.2,1.8 -0.3,2.7 0.1,-0.9 0.2,-1.8 0.3,-2.7 m -2.1,16.3 c -0.1,0.3 -0.1,0.6 -0.1,0.9 0,-0.3 0,-0.7 0.1,-0.9 m -0.8,5.8 c 0,0.2 0,0.2 0,0.4 0,-0.1 0,-0.3 0,-0.4 m -64,655.5 c 0,0.5 0,0.9 -0.1,1.4 0.1,-0.5 0.1,-0.9 0.1,-1.4 m -0.4,6.1 c 0,0.6 -0.1,1.4 -0.1,2 0,-0.6 0.1,-1.4 0.1,-2 m -0.6,9.2 c 0,1.2 -0.1,2.1 -0.2,3.3 0.1,-1.2 0.2,-2.2 0.2,-3.3 m -0.4,6.6 c 0,1.2 -0.1,2.6 -0.2,3.8 0.1,-1.3 0.1,-2.5 0.2,-3.8 m -0.4,6.7 c -0.1,2.3 -0.3,4.5 -0.4,6.7 v 0 c 0.1,-2.1 0.3,-4.6 0.4,-6.7 m -19.9,650.3 c -0.1,78.7 0.8,158.4 2.5,239.1 v 0 c -1.7,-80.7 -2.6,-160.4 -2.5,-239.1 m 10.7,489.1 v 0 c 16.8,383 53.9,786.5 115.6,1210.4 v 0 c -61.7,-423.9 -98.8,-827.4 -115.6,-1210.4 m 154.5,1460.4 v 0 c 44.3,267.7 98.4,543.2 163.3,826.4 29.9,130.3 60.8,258.3 92.8,384 v 0 c -32,-125.7 -62.9,-253.7 -92.8,-384 -64.9,-283.3 -119,-558.7 -163.3,-826.4 m 321.9,1460.4 v 0 c 117.1,430.2 247.2,833.4 389.8,1210.4 v 0 c -142.5,-377 -272.7,-780.2 -389.8,-1210.4 m 487.7,1460.4 v 0 c 178.5,440.1 374.9,842.9 588.4,1210.4 v 0 c -213.5,-367.5 -409.9,-770.3 -588.4,-1210.4 m 739.7,1460.4 v 0 c 291.1,461.9 611.4,863.8 959.2,1210.4 v 0 c -347.7,-346.6 -668.1,-748.5 -959.2,-1210.4 m 1225.4,1460.4 v 0 c 1263.4,1116.8 2855.5,1572.8 4695.1,1572.8 147.3,0 293.1,-2.9 437.1,-8.9 -144.1,6 -289.7,8.9 -437.1,8.9 -1839.6,0 -3431.7,-456 -4695.1,-1572.8 m 5152.3,1563.1 c -0.6,0 -1.2,0 -1.9,0 0.6,0 1.3,0 1.9,0 m -6.6,0.2 c -1.2,0.1 -2.5,0.1 -3.7,0.2 1.2,-0.1 2.5,-0.1 3.7,-0.2 m -6.8,0.3 c -1.8,0.1 -3.7,0.2 -5.4,0.3 1.7,-0.1 3.7,-0.2 5.4,-0.3"
         style="fill:#b6b9c3;fill-opacity:1;fill-rule:nonzero;stroke:none"
         id="path144" />
      <path
         d="m 15038.7,27302.7 v 0 c 86.9,86.7 175.9,170.2 266.2,250 v 0 c -90.3,-79.8 -179.3,-163.3 -266.2,-250"
         style="fill:#b5f9d3;fill-opacity:1;fill-rule:nonzero;stroke:none"
         id="path146" />
      <path
         d="m 13928.2,25842.3 v 0 c 49.6,85.4 99.9,168.5 151.3,250 v 0 c -51.4,-81.5 -101.7,-164.6 -151.3,-250"
         style="fill:#b5f9d3;fill-opacity:1;fill-rule:nonzero;stroke:none"
         id="path148" />
      <path
         d="m 13241.9,24381.9 v 0 c 32,84.7 64.6,167.9 97.9,250 v 0 c -33.3,-82.1 -65.9,-165.3 -97.9,-250"
         style="fill:#b5f9d3;fill-opacity:1;fill-rule:nonzero;stroke:none"
         id="path150" />
      <path
         d="m 12786.3,22921.5 v 0 c 21.4,84.4 43.4,167.7 65.8,250 v 0 c -22.4,-82.3 -44.4,-165.6 -65.8,-250"
         style="fill:#b5f9d3;fill-opacity:1;fill-rule:nonzero;stroke:none"
         id="path152" />
      <path
         d="m 12491.3,21461.1 v 0 c 12,82.6 25,165.9 38.9,250 v 0 c -13.9,-84.1 -26.9,-167.4 -38.9,-250"
         style="fill:#b5f9d3;fill-opacity:1;fill-rule:nonzero;stroke:none"
         id="path154" />
      <path
         d="m 12367.5,20000.7 v 0 c 1.8,82.3 4.5,165.8 8.2,250 v 0 c -3.7,-84.2 -6.4,-167.7 -8.2,-250"
         style="fill:#b5f9d3;fill-opacity:1;fill-rule:nonzero;stroke:none"
         id="path156" />
      <path
         d="m 12731.7,17079.9 v 0 c -23.6,81 -46.6,164.3 -68.8,250 v 0 c 22.2,-85.7 45.2,-169 68.8,-250"
         style="fill:#b5f9d3;fill-opacity:1;fill-rule:nonzero;stroke:none"
         id="path158" />
      <path
         d="m 12646.5,18109.3 c -232.7,555.8 -261.8,1005.5 -262,1008.7 0,0.2 0,-0.1 0,0 v 0 c -12.7,206.9 -19.5,421.4 -19.5,643.6 -0.1,78.7 0.8,158.4 2.5,239.1 1.8,82.3 4.5,165.8 8.2,250 16.8,383 53.9,786.5 115.6,1210.4 12,82.6 25,165.9 38.9,250 44.3,267.7 98.4,543.1 163.3,826.4 29.9,130.3 60.8,258.3 92.8,384 21.4,84.4 43.4,167.7 65.8,250 117.1,430.2 247.3,833.4 389.8,1210.4 32,84.7 64.6,167.9 97.9,250 178.5,440.1 374.9,842.9 588.4,1210.4 49.6,85.4 99.9,168.5 151.3,250 291.1,461.9 611.5,863.8 959.2,1210.4 86.9,86.7 175.9,170.2 266.2,250 1263.4,1116.8 2855.5,1572.8 4695.1,1572.8 147.4,0 293,-2.9 437.1,-8.9 0.5,0 0.8,0 1.3,0 1.7,-0.1 3.6,-0.2 5.4,-0.3 1.1,0 2,-0.1 3.1,-0.1 1.2,-0.1 2.5,-0.1 3.7,-0.2 1.6,0 3.1,-0.1 4.7,-0.2 0.7,0 1.3,0 1.9,0 2457.6,-106.6 4439.3,-1098.6 5738.5,-3496.7 -1382.4,2283.9 -3452.3,3156.4 -5995.7,3156.4 -1396.2,0 -2649.8,-263 -3725.5,-877.9 85.3,-148.9 -101.5,-433.2 -423.6,-640.8 -200.9,-129.4 -407.3,-198.7 -558.6,-198.7 -47,0 -88.7,6.7 -123.2,20.3 -1111.4,-1044.3 -1956.3,-2625.3 -2475.6,-4890.9 -299.5,-1306.5 -368.5,-2448 -309,-3419.5 14,-229 35.1,-448.6 62,-658.7"
         style="fill:#debcad;fill-opacity:1;fill-rule:nonzero;stroke:none"
         id="path160" />
      <path
         d="m 12384.5,19118 v 0 0 0 c 0,-0.1 0,0.2 0,0"
         style="fill:#afb1c3;fill-opacity:1;fill-rule:nonzero;stroke:none"
         id="path162" />
      <path
         d="m 13482.4,15349.2 c -147.5,236.4 -359.7,623 -559.7,1156 -0.4,1.2 -0.9,2.5 -1.4,3.7 -0.1,0.3 -0.1,0.4 -0.2,0.7 -184.7,493.3 -358.8,1111.5 -461.4,1851.3 0,0.1 0,-0.1 0,0.1 -0.3,2.2 -0.6,4.3 -0.9,6.5 -0.1,0.2 -0.1,0.5 -0.1,0.7 -0.7,4.5 -1.3,8.9 -1.9,13.3 0,0.5 -0.1,1 -0.2,1.5 -0.2,1.6 -0.4,3.4 -0.6,5 -0.1,0.6 -0.2,1.1 -0.3,1.8 -0.3,2 -0.5,4 -0.8,6.1 -0.1,0.7 -0.2,1.3 -0.3,2.1 -0.2,1.3 -0.4,2.7 -0.5,4 -0.2,1.1 -0.3,2 -0.5,3.1 -0.1,0.9 -0.2,1.8 -0.3,2.7 -0.6,4.5 -1.2,9.1 -1.8,13.6 -0.1,0.2 -0.1,0.6 -0.1,0.9 -0.2,1.6 -0.5,3.3 -0.7,4.9 0,0.1 0,0.3 0,0.4 -27.5,208.9 -49.3,427.3 -64,655.1 0,0.5 0,0.9 -0.1,1.4 -0.1,1.5 -0.2,3.1 -0.3,4.7 0,0.6 -0.1,1.4 -0.1,2 -0.2,2.4 -0.3,4.8 -0.5,7.2 0,1.1 -0.1,2.1 -0.2,3.3 0,1.1 -0.1,2.2 -0.2,3.3 -0.1,1.3 -0.1,2.5 -0.2,3.8 -0.1,1 -0.1,1.9 -0.2,2.9 -0.1,2.1 -0.3,4.6 -0.4,6.7 0.2,-3.2 29.3,-452.9 262,-1008.7 163.8,-1277.8 542.4,-2202.6 835.9,-2760.1"
         style="fill:#cbb4b5;fill-opacity:1;fill-rule:nonzero;stroke:none"
         id="path164" />
      <path
         d="m 17120.3,21676.5 c -125.1,242.4 -274.9,567.2 -408.4,951.3 2.6,2.7 5.2,5.3 7.8,7.9 25.5,-63.7 54.2,-133.2 86.3,-208.1 59.6,-167.2 159.6,-423.4 314.3,-751.1"
         style="fill:#fee9da;fill-opacity:1;fill-rule:nonzero;stroke:none"
         id="path166" />
      <path
         d="m 17788.9,20948.3 c -117.9,48.6 -254.7,126.7 -395,252.2 0,0 -117.6,173.8 -273.6,476 -154.7,327.7 -254.7,583.9 -314.3,751.1 135.9,-316.7 333.7,-730 612.5,-1216.1 0,0 138.6,-150.9 370.4,-263.2 m -1077,1679.5 c -23.3,66.9 -46.1,135.7 -68.1,206 21.2,-58 46.4,-124.2 75.9,-198.1 -2.6,-2.6 -5.2,-5.2 -7.8,-7.9"
         style="fill:#e1d3d4;fill-opacity:1;fill-rule:nonzero;stroke:none"
         id="path168" />
      <path
         d="m 17786.6,21328.2 c -294.6,79 -537.6,188 -537.6,188 -1242.2,2560.2 -772.3,4309.4 -497.9,4967 43.4,96.6 91,193.3 142.8,289.6 0,0 0,0.1 0.1,0.1 -6,-17.2 -981.8,-2859.6 892.6,-5444.7 m -892.6,5444.7 c 0,0.2 -0.1,-0.1 0,0.1 v 0 -0.1"
         style="fill:#debcad;fill-opacity:1;fill-rule:nonzero;stroke:none"
         id="path170" />
      <path
         d="m 18141.1,20869.1 c -39.5,0 -174.4,6 -352.2,79.2 -231.8,112.3 -370.4,263.2 -370.4,263.2 -344.7,601.1 -565.7,1091 -698.8,1424.2 -29.5,73.9 -54.7,140.1 -75.9,198.1 -313.1,998.5 -483.3,2333.2 107.3,3649.4 -274.4,-657.6 -744.3,-2406.8 497.9,-4967 0,0 243,-109 537.6,-188 111.8,-154.1 233.6,-307.3 366.4,-458.9 0,0 -4.1,-0.2 -11.9,-0.2 m -1247.2,5903.7 0.1,0.1 v 0.1 c 0,-0.1 0,-0.1 0,-0.1 -0.1,0 -0.1,-0.1 -0.1,-0.1"
         style="fill:#cbb4b5;fill-opacity:1;fill-rule:nonzero;stroke:none"
         id="path172" />
      <path
         d="m 24968.8,21231.6 c -2,0.1 6.9,0.4 11.5,0.9 l 18.6,1.9 c 12.7,1.5 26.2,3.7 39.7,6.2 27,4.7 54.8,11.4 82.6,18.7 55.6,14.7 111.4,34 167,54.9 55.6,20.8 110.5,45.4 165,70.8 l 40.8,20 20.3,9.9 14.4,8 c 18.7,11.1 36.2,24.1 52.1,38.9 30.9,30.3 55.6,67.4 69.3,108.3 7,20.4 11.5,41.6 13.7,63 0.5,10.8 1.4,21.5 0.7,32.3 0.1,4.5 -0.3,11.9 -1,20.2 l -1.6,23.2 c -8.2,124.2 -17.7,248.7 -30.1,373 -23.4,248.9 -60.9,496.4 -102.5,743 -24.1,122.6 -44.1,246.3 -73,367.9 l -40.3,183.1 c -14.2,60.9 -30.3,121.3 -45.3,182 -122.8,484.4 -285.9,959.5 -504.7,1408.3 -221,448.2 -489.5,868.3 -804.3,1266.9 -2.7,3.5 -2.2,8.4 1.3,11.2 2.9,2.3 7,2.2 9.8,0 401.3,-319 707,-748.1 943.9,-1201.4 239.4,-454.3 421.8,-936.3 563.3,-1428.5 141.4,-492.7 235.8,-997.3 296.1,-1506.1 14.5,-127.4 27.8,-254.9 35.9,-383.3 l 1.7,-24 c 0.6,-7.6 1.2,-16 1.4,-27.3 1,-20.8 -0.1,-41.7 -1.5,-62.5 -3.8,-41.6 -12.5,-82.7 -25.8,-122.2 -26.5,-79.2 -73.3,-150.8 -132.8,-208.7 -30.2,-28.7 -63.6,-53.8 -99.3,-74.9 l -27.1,-15 -22.2,-11 -44.5,-21.9 c -60,-28.2 -120.5,-55.5 -183.5,-79.3 -62.6,-24.2 -126.9,-45.3 -193.8,-62.4 -33.5,-8.5 -67.3,-16.3 -102.6,-22.2 -17.8,-3 -35.4,-5.8 -54.2,-7.8 l -28.7,-2.8 c -11.1,-0.6 -17.9,-1.3 -35.7,-1.2 -69,1.5 -123.8,58.6 -122.3,127.7 1.5,69 58.6,123.7 127.7,122.2"
         style="fill:#0b126d;fill-opacity:1;fill-rule:nonzero;stroke:none"
         id="path174" />
      <path
         d="m 16427.4,23087.6 c -44.8,160.8 -74.5,314.5 -100.2,473.1 -25.7,157.7 -44.7,316.1 -55.9,475.2 -22.1,317.7 -26.3,637.8 7.4,955.2 15.7,158.7 37.3,316.9 68.5,473.2 30.3,156.5 67.7,311.7 115.2,463.9 23.1,76.2 51.3,151 79,225.5 14.6,37.1 31.2,73.4 46.6,110 15.3,36.6 31.7,72.8 50.3,108.2 67.4,143.9 153.9,278.4 246,406.4 3.6,5 10.7,6.1 15.7,2.5 4.2,-3 5.7,-8.5 3.8,-13.2 l -0.1,-0.4 c -116.4,-291.9 -218.7,-582 -289.2,-881.4 -38.2,-148.7 -66.6,-299.7 -88.1,-451.6 -22.5,-151.8 -35.5,-304.9 -42.9,-458 -14,-306.5 -5.8,-614 26,-919.2 16.4,-152.4 37.1,-304.4 62.6,-455.4 25.7,-149.8 58.2,-303.1 95.4,-444.2 l 1.1,-4.3 c 17.6,-66.8 -22.2,-135.2 -88.9,-152.8 -66.2,-17.4 -133.9,21.6 -152.3,87.3"
         style="fill:#0b126d;fill-opacity:1;fill-rule:nonzero;stroke:none"
         id="path176" />
      <path
         d="m 14909.8,21121.7 c 24.4,184.8 57.2,363.4 94.4,543 35.5,179.5 79.8,357.1 125,534.2 44.1,177.4 98.1,352.3 152.4,526.7 56.8,173.8 119.1,345.7 188.9,514.6 4.7,11.4 17.8,16.9 29.2,12.1 9.9,-4 15.3,-14.4 13.4,-24.6 l -0.1,-0.3 c -32.6,-179.3 -70.2,-356.4 -101.3,-534.9 -18.1,-88.6 -33.4,-177.8 -49.7,-266.6 l -46.2,-267 c -31.5,-177.7 -56.8,-356.4 -84.5,-534.4 -26,-177.8 -51,-357.7 -73.3,-532.9 l -0.3,-2 c -8.6,-68.5 -71.2,-116.9 -139.7,-108.2 -68.5,8.7 -116.9,71.3 -108.2,139.7 v 0.6"
         style="fill:#0b126d;fill-opacity:1;fill-rule:nonzero;stroke:none"
         id="path178" />
      <path
         d="m 20525.1,20834.2 c -38,79.7 -63.6,149.7 -90.1,224.8 -25.9,73.9 -48.3,148.4 -69.2,223 -41.5,149.2 -74.1,299.7 -101.3,450.6 -25.8,151.2 -46.5,302.6 -60,454.4 -8.3,75.6 -11.2,151.9 -16.9,227.5 -3.9,75.9 -5.7,151.8 -8.6,227.4 -0.1,3.3 2.5,6 5.7,6.1 3.1,0.2 5.7,-2.2 6.1,-5.1 12.8,-74.6 24.4,-149.3 38.1,-223.4 15.5,-74 28.1,-148.2 46,-221.4 32.9,-146.8 72.6,-291.7 116.8,-434.5 45.5,-142.4 96,-282.7 153.9,-418.9 29.1,-67.9 59.4,-135.2 92.5,-200.4 32.1,-64.1 68.8,-132.1 103.4,-185 l 1.6,-2.4 c 37.9,-57.9 21.7,-135.6 -36.2,-173.6 -57.9,-37.9 -135.6,-21.7 -173.6,36.3 -3,4.5 -5.9,9.8 -8.2,14.6"
         style="fill:#0b126d;fill-opacity:1;fill-rule:nonzero;stroke:none"
         id="path180" />
      <path
         d="m 23598.7,20956.8 c -16.1,20.5 -24.3,33.8 -35,50.1 l -28.6,46.6 c -17.7,30.9 -34.9,61.9 -50.4,93.2 -32,62.3 -59.6,125.5 -85.9,188.8 -51.9,127 -93.1,256.4 -129.2,386.2 -36.9,129.8 -64.3,261.2 -89.8,392.4 -12,65.7 -21.9,131.7 -32.9,197.3 l -25.9,197.9 c -1,8.2 4.7,15.7 12.9,16.7 7.4,1 14.3,-3.7 16.2,-10.8 l 0.2,-0.5 52.5,-191 c 19.9,-63 38.5,-126.1 59.2,-188.5 42.7,-124.4 86.8,-247.9 139.6,-367.1 51.8,-119.5 108.1,-236.5 172.5,-347.2 32.5,-55.1 65.8,-109.4 101.8,-160.6 17.7,-25.9 36.4,-50.5 55.1,-74.8 l 28.5,-34.5 c 8.9,-10.3 20.6,-23.4 26,-28 53.1,-45 59.8,-124.5 14.8,-177.7 -44.9,-53.2 -124.5,-59.8 -177.6,-14.9 -6.5,5.5 -12.3,11.5 -17.4,17.9 l -6.6,8.5"
         style="fill:#0b126d;fill-opacity:1;fill-rule:nonzero;stroke:none"
         id="path182" />
      <path
         d="m 24966.1,21231.6 c 18.8,0 37.6,-4.2 55,-12.7 36.9,-18.1 62.5,-53.2 68.6,-93.9 1.8,-12 177.2,-1219.2 41.4,-2648.6 -165.9,-1746.1 -725.2,-3100.7 -1624.1,-3944.3 583.4,29.2 1817,251.5 2558.9,1543 26.4,45.9 78.9,70.5 130.8,60.7 52.1,-9.5 92.6,-50.7 101,-102.9 l 102.8,-634.2 c 183.6,292.1 481.3,838.9 720.6,1624.9 343.7,1129.1 633.6,2997.5 63.4,5486 -1014.9,4428.5 -3297.8,6491.1 -7184.5,6491.1 -3886.7,0 -6169.6,-2062.6 -7184.5,-6491.1 -570.2,-2488.5 -280.2,-4356.9 63.5,-5486 239.2,-785.9 536.9,-1332.8 720.5,-1624.9 l 102.8,634.2 c 8.4,52.2 48.9,93.4 100.9,102.9 51.5,9.8 104.5,-14.7 130.8,-60.7 741.9,-1291.4 1975.4,-1513.8 2559,-1542.9 -898.9,843.5 -1458.2,2198.1 -1624,3944.2 -135.9,1429.4 39.5,2636.6 41.3,2648.6 2.2,14.8 7,29.1 14.2,42.2 25.8,46.6 642.1,1151.2 1534.5,2043.7 31.5,31.5 77.5,43.7 120.5,32.4 43,-11.4 76.8,-44.9 88.5,-87.9 2,-7.3 207.2,-742.5 851.5,-1868.4 77.1,-78.2 615.2,-582 1304.9,-177.4 48.2,28.2 109.1,21.1 149.5,-17.4 22.3,-20.9 572.2,-516.7 1611,-80.2 34.2,14.4 73,12.8 105.9,-4.2 7.1,-3.6 781.5,-383.3 2368,-46 30,6.4 61.4,1.5 88,-13.7 21.5,-11.4 228.7,-110.3 446.8,168.8 36.1,46.2 99.5,61.2 152.5,35.7 23,-10.7 576.5,-264.8 1158.6,63 19,10.7 40.2,16 61.4,16 z m -8286.5,-6951 c -471.1,0 -1878.9,113.5 -2783,1389.1 l -100.2,-618 c -7.8,-48.6 -43.5,-88.1 -91.1,-100.8 -47.4,-12.8 -98.2,3.7 -129.3,41.9 -22,27.2 -544.4,679 -931.9,1943.7 -355.5,1160.5 -656.5,3079.1 -72.2,5628.9 547.7,2390.2 1457.5,4089 2781.3,5193.6 1202.9,1003.8 2722.9,1491.7 4646.8,1491.7 1923.9,0 3443.9,-487.9 4646.8,-1491.7 1323.8,-1104.6 2233.6,-2803.4 2781.3,-5193.6 584.4,-2549.8 283.2,-4468.4 -72.2,-5628.9 -387.5,-1264.7 -909.9,-1916.5 -931.9,-1943.7 -31.1,-38.2 -81.9,-54.7 -129.3,-41.9 -47.6,12.7 -83.3,52.2 -91.1,100.8 l -100.3,618 C 25010,14127 23180.2,14283.9 23160.7,14285.9 c -50.9,5 -93.7,40.5 -108,89.6 -14.3,49.2 2.9,102 43.3,133.5 2148.5,1672.8 1860.7,5548 1767.2,6408.4 -494.9,-207.2 -947.1,-92.8 -1134.6,-26.6 -243.5,-256.5 -511.9,-241.5 -659.2,-182.2 -1434.3,-296.8 -2229.3,-34.7 -2438.4,52.1 -955.1,-381.1 -1556,-53.3 -1756.2,91.3 -869.9,-447.4 -1541.4,267.6 -1548.2,275.1 -6.3,6.7 -11.7,14.3 -16.3,22.3 -472.4,823.1 -714.2,1436.6 -818.3,1736.4 -729.6,-774.9 -1255.3,-1675.5 -1337.5,-1819.9 -47.1,-353.8 -576.3,-4745.9 1749.6,-6556.9 40.3,-31.5 57.5,-84.3 43.2,-133.5 -14.3,-49.1 -57.1,-84.6 -108,-89.6 -3.4,-0.3 -61,-5.3 -159.7,-5.3"
         style="fill:#0b126d;fill-opacity:1;fill-rule:nonzero;stroke:none"
         id="path184" />
      <path
         d="m 26381.7,12124.1 -840,-6519.8 H 14458.3 l -275.4,2138.1 -564.6,4381.7 c -43.9,338.7 220.1,639.3 562.2,639.3 h 11639 c 342.1,0 606.1,-300.6 562.2,-639.3"
         style="fill:#cfcfe5;fill-opacity:1;fill-rule:nonzero;stroke:none"
         id="path186" />
      <path
         d="m 25459.3,6077.8 c -36.7,11.7 -75.8,18 -116.4,18 h -1730.1 v 0 h -8904.6 l -159.7,1240.4 -28.6,221.9 c 721.7,-365.6 2114,-903.2 4057.3,-903.2 446.3,0 921.3,28.3 1424.4,93.6 2963.5,384.8 5115.5,2563.8 4700,5608.7 h 1483.5 c 9.4,0 18.7,-0.2 27.9,-0.7 27.3,-67.1 37.4,-140.9 27.9,-214.4 l -781.6,-6064.3"
         style="fill:#9496c1;fill-opacity:1;fill-rule:nonzero;stroke:none"
         id="path188" />
      <path
         d="m 14519.9,7558.1 c -66.6,33.7 -127.3,65.9 -182.4,96.2 l -578.4,4487.8 c -15.6,121.1 21.7,243.1 102.3,334.8 80.6,91.6 196.8,144.2 318.8,144.2 h 10479.3 c 16.2,-88.5 30.2,-176.8 42.1,-263.9 h -7197.1 c -19.4,-162.9 -452.1,-293.2 -983.3,-293.2 -531.2,0 -963.8,130.3 -983.3,293.2 H 14546 c -342,0 -606,-300.6 -562.2,-639.3 l 536.1,-4159.8"
         style="fill:#f1f1f7;fill-opacity:1;fill-rule:nonzero;stroke:none"
         id="path190" />
      <path
         d="m 14540.7,6077.8 -203.2,1576.5 c 55.1,-30.3 115.8,-62.5 182.4,-96.2 l 28.6,-221.9 159.7,-1240.4 h -51.1 c -40.6,0 -79.7,-6.3 -116.4,-18 M 26213,12356.5 c -9.2,0.5 -18.5,0.7 -27.9,0.7 h -1483.5 c -11.9,87.1 -25.9,175.4 -42.1,263.9 h 1160.2 c 122.1,0 238.3,-52.6 318.9,-144.3 31.7,-36 56.7,-76.7 74.4,-120.3"
         style="fill:#dfdfec;fill-opacity:1;fill-rule:nonzero;stroke:none"
         id="path192" />
      <path
         d="m 21646,9126.1 c 0,-908.6 -736.5,-1645.1 -1645.1,-1645.1 -908.5,0 -1645.1,736.5 -1645.1,1645.1 0,908.5 736.6,1645.1 1645.1,1645.1 908.6,0 1645.1,-736.6 1645.1,-1645.1"
         style="fill:#fa6469;fill-opacity:1;fill-rule:nonzero;stroke:none"
         id="path194" />
      <path
         d="m 19609.2,8747.3 v 0 c 0,-94.8 -97,-158.5 -184,-120.8 l -733.7,318 c -69.1,29.9 -113.8,98.1 -113.8,173.4 0,75.3 44.7,143.4 113.8,173.4 l 733.7,318 c 87,37.7 184,-26 184,-120.8 v -1.3 c 0,-54.5 -33.5,-103.3 -84.3,-122.9 l -634.5,-244.4 635.4,-250.1 c 50.3,-19.8 83.4,-68.4 83.4,-122.5"
         style="fill:#ffffff;fill-opacity:1;fill-rule:nonzero;stroke:none"
         id="path196" />
      <path
         d="m 20247.1,9695.2 -287.2,-1182.3 c -9.6,-39 -17.9,-69.7 -25.1,-92.3 -7.2,-22.5 -18.1,-40.2 -32.8,-52.8 -14.7,-12.7 -36.1,-19 -64.1,-19 -69.7,0 -104.6,30.1 -104.6,90.2 0,15.8 6.8,55.1 20.5,118 l 286.1,1182.3 c 15,62.9 29.4,106 43.1,129.2 13.7,23.3 40.3,34.9 79.9,34.9 34.2,0 60.4,-8.2 78.5,-24.6 18.1,-16.4 27.2,-39 27.2,-67.7 0,-21.2 -7.2,-59.8 -21.5,-115.9"
         style="fill:#ffffff;fill-opacity:1;fill-rule:nonzero;stroke:none"
         id="path198" />
      <path
         d="m 21310.6,8944.8 -736.2,-320.5 c -86.3,-37.6 -182.8,25.6 -182.8,119.7 v 1.8 c 0,53.8 32.9,102 82.9,121.6 l 638,250.5 -637.4,246.6 c -50.3,19.5 -83.5,67.9 -83.5,121.8 0,93.9 96.2,157.2 182.4,119.9 l 736,-317.5 c 68.7,-29.6 113.2,-97.2 113.2,-172 0,-74.7 -44.2,-142.1 -112.6,-171.9"
         style="fill:#ffffff;fill-opacity:1;fill-rule:nonzero;stroke:none"
         id="path200" />
      <path
         d="m 14583.4,5746.3 h 10833.2 l 824.3,6395.8 c 15.6,121.1 -21.7,243.1 -102.3,334.7 -80.6,91.7 -196.8,144.3 -318.9,144.3 H 14180.2 c -122,0 -238.2,-52.6 -318.8,-144.2 -80.6,-91.7 -117.9,-213.7 -102.3,-334.8 l 824.3,-6395.8 M 25541.7,5461.9 H 14458.4 c -71.5,0 -131.9,53.1 -141.1,124 l -840.2,6519.9 c -26,202.1 36.2,405.8 170.8,558.9 134.5,153 328.6,240.7 532.3,240.7 h 11639.5 c 203.8,0 397.8,-87.8 532.5,-240.8 134.5,-153 196.7,-356.7 170.7,-558.8 l -840.2,-6519.9 c -9.2,-70.9 -69.6,-124 -141,-124"
         style="fill:#0b126d;fill-opacity:1;fill-rule:nonzero;stroke:none"
         id="path202" />
      <path
         d="M 25342.9,5329.9 H 14657.1 c -211.5,0 -383,171.5 -383,383 0,211.5 171.5,382.9 383,382.9 h 10685.8 c 211.5,0 383,-171.4 383,-382.9 0,-211.5 -171.5,-383 -383,-383"
         style="fill:#cfcfe5;fill-opacity:1;fill-rule:nonzero;stroke:none"
         id="path204" />
      <path
         d="m 25524.4,5375.6 c 49.9,26.9 93.2,64.6 126.7,109.9 v 0 c -33.5,-45.4 -76.8,-83 -126.7,-109.9"
         style="fill:#a4b3d3;fill-opacity:1;fill-rule:nonzero;stroke:none"
         id="path206" />
      <path
         d="m 25651.1,5485.5 c 37.8,51.2 63.2,112.1 71.7,178.4 -8.5,-66.3 -33.9,-127.2 -71.7,-178.4 v 0"
         style="fill:#0b126d;fill-opacity:1;fill-rule:nonzero;stroke:none"
         id="path208" />
      <path
         d="m 25725.9,5712.9 c 0,21.3 -1.8,42.3 -5.1,62.7 v 0 c 3.3,-20.4 5.1,-41.4 5.1,-62.7 v 0"
         style="fill:#0b126d;fill-opacity:1;fill-rule:nonzero;stroke:none"
         id="path210" />
      <path
         d="m 25459.3,6077.8 c -36.7,11.7 -75.8,18 -116.4,18 h -1730.1 v 0 h 1730.1 c 40.6,0 79.7,-6.3 116.4,-18 v 0"
         style="fill:#6b6ea8;fill-opacity:1;fill-rule:nonzero;stroke:none"
         id="path212" />
      <path
         d="m 25550.3,6034.9 c -28,18.1 -58.6,32.6 -91,42.9 v 0 c 32.4,-10.3 63,-24.8 91,-42.9"
         style="fill:#0b126d;fill-opacity:1;fill-rule:nonzero;stroke:none"
         id="path214" />
      <path
         d="M 25342.9,5329.9 H 14657.1 c -205.6,0 -372.9,162.2 -382.1,365.6 h 8955.7 c 211.5,0 383,171.5 383,383 0,5.8 -0.7,11.5 -0.9,17.3 h 1730.1 c 40.6,0 79.7,-6.3 116.4,-18 32.4,-10.3 63,-24.8 91,-42.9 88.6,-57.2 152,-149.9 170.2,-258 0.1,-0.4 0.2,-0.9 0.3,-1.3 3.3,-20.4 5.1,-41.4 5.1,-62.7 0,-16.6 -1.1,-33 -3.1,-49 -8.5,-66.3 -33.9,-127.2 -71.7,-178.4 -33.5,-45.3 -76.8,-83 -126.7,-109.9 -54,-29.2 -115.8,-45.7 -181.5,-45.7"
         style="fill:#9496c1;fill-opacity:1;fill-rule:nonzero;stroke:none"
         id="path216" />
      <path
         d="m 14657.1,5953.7 c -132.8,0 -240.8,-108 -240.8,-240.8 0,-132.8 108,-240.8 240.8,-240.8 h 10685.8 c 132.8,0 240.8,108 240.8,240.8 0,132.8 -108,240.8 -240.8,240.8 z m 10685.8,-766 H 14657.1 c -289.6,0 -525.2,235.6 -525.2,525.2 0,289.5 235.6,525.1 525.2,525.1 h 10685.8 c 289.6,0 525.2,-235.6 525.2,-525.1 0,-289.6 -235.6,-525.2 -525.2,-525.2"
         style="fill:#0b126d;fill-opacity:1;fill-rule:nonzero;stroke:none"
         id="path218" />
      <path
         d="m 6169.53,5360.7 c 576.25,90.6 1152.55,96.9 1728.8,96.4 l 1728.8,6 3457.67,12 6915.2,23.4 3457.6,-0.4 3457.6,-4.3 3457.6,-9.5 1728.9,-5.2 c 288.1,-1.8 576.2,-11.1 864.4,-29.2 288.1,-20.1 576.2,-44.8 864.4,-93.6 14.6,-2.5 24.4,-16.3 21.9,-30.9 -1.9,-11.5 -11,-20.1 -21.9,-22 -288.2,-48.7 -576.3,-73.4 -864.4,-93.6 -288.2,-18.1 -576.3,-27.4 -864.4,-29.2 l -1728.9,-5.1 -3457.6,-9.6 -3457.6,-4.2 -3457.6,-0.4 -6915.2,23.3 -3457.67,12.1 -1728.8,6 c -576.25,-0.6 -1152.55,5.8 -1728.8,96.3 -17.05,2.7 -28.7,18.7 -26.05,35.7 2.15,13.8 13,24 26.05,26"
         style="fill:#0b126d;fill-opacity:1;fill-rule:nonzero;stroke:none"
         id="path220" />
    </g>
  </g>
</svg>
